<?xml version="1.0" standalone="no"?>
<!DOCTYPE svg PUBLIC "-//W3C//DTD SVG 1.1//EN" "http://www.w3.org/Graphics/SVG/1.1/DTD/svg11.dtd" >
<svg xmlns="http://www.w3.org/2000/svg">
<metadata>
This is a custom SVG webfont generated by Font Squirrel.
Copyright   : Copyright c 2007 by George Triantafyllakos All rights reserved
Designer    : George Triantafyllakos
Foundry     : George Triantafyllakos
Foundry URL : httpwwwbackpackergr
</metadata>
<defs>
<font id="webfontOdV5l44Z" horiz-adv-x="600" >
<font-face units-per-em="1000" ascent="800" descent="-200" />
<missing-glyph horiz-adv-x="500" />
<glyph unicode=" " />
<glyph unicode="!" d="M215 37q0 10 6.5 16.5t15.5 6.5q10 0 16.5 -6.5t6.5 -16.5q0 -9 -6.5 -15.5t-16.5 -6.5q-9 0 -15.5 6.5t-6.5 15.5zM215 237q0 10 6.5 16.5t15.5 6.5q10 0 16.5 -6.5t6.5 -16.5q0 -9 -6.5 -15.5t-16.5 -6.5q-9 0 -15.5 6.5t-6.5 15.5zM215 337q0 10 6.5 16.5t15.5 6.5 q10 0 16.5 -6.5t6.5 -16.5q0 -9 -6.5 -15.5t-16.5 -6.5q-9 0 -15.5 6.5t-6.5 15.5zM215 437q0 10 6.5 16.5t15.5 6.5q10 0 16.5 -6.5t6.5 -16.5q0 -9 -6.5 -15.5t-16.5 -6.5q-9 0 -15.5 6.5t-6.5 15.5z" />
<glyph unicode="&#x22;" d="M115 337q0 10 6.5 16.5t15.5 6.5q10 0 16.5 -6.5t6.5 -16.5q0 -9 -6.5 -15.5t-16.5 -6.5q-9 0 -15.5 6.5t-6.5 15.5zM215 437q0 10 6.5 16.5t15.5 6.5q10 0 16.5 -6.5t6.5 -16.5q0 -9 -6.5 -15.5t-16.5 -6.5q-9 0 -15.5 6.5t-6.5 15.5zM215 537q0 10 6.5 16.5t15.5 6.5 q10 0 16.5 -6.5t6.5 -16.5q0 -9 -6.5 -15.5t-16.5 -6.5q-9 0 -15.5 6.5t-6.5 15.5zM315 337q0 10 6.5 16.5t15.5 6.5q10 0 16.5 -6.5t6.5 -16.5q0 -9 -6.5 -15.5t-16.5 -6.5q-9 0 -15.5 6.5t-6.5 15.5zM415 437q0 10 6.5 16.5t15.5 6.5q10 0 16.5 -6.5t6.5 -16.5 q0 -9 -6.5 -15.5t-16.5 -6.5q-9 0 -15.5 6.5t-6.5 15.5zM415 537q0 10 6.5 16.5t15.5 6.5q10 0 16.5 -6.5t6.5 -16.5q0 -9 -6.5 -15.5t-16.5 -6.5q-9 0 -15.5 6.5t-6.5 15.5z" />
<glyph unicode="#" d="M15 137q0 10 6.5 16.5t15.5 6.5q10 0 16.5 -6.5t6.5 -16.5q0 -9 -6.5 -15.5t-16.5 -6.5q-9 0 -15.5 6.5t-6.5 15.5zM15 337q0 10 6.5 16.5t15.5 6.5q10 0 16.5 -6.5t6.5 -16.5q0 -9 -6.5 -15.5t-16.5 -6.5q-9 0 -15.5 6.5t-6.5 15.5zM115 37q0 10 6.5 16.5t15.5 6.5 q10 0 16.5 -6.5t6.5 -16.5q0 -9 -6.5 -15.5t-16.5 -6.5q-9 0 -15.5 6.5t-6.5 15.5zM115 137q0 10 6.5 16.5t15.5 6.5q10 0 16.5 -6.5t6.5 -16.5q0 -9 -6.5 -15.5t-16.5 -6.5q-9 0 -15.5 6.5t-6.5 15.5zM115 237q0 10 6.5 16.5t15.5 6.5q10 0 16.5 -6.5t6.5 -16.5 q0 -9 -6.5 -15.5t-16.5 -6.5q-9 0 -15.5 6.5t-6.5 15.5zM115 337q0 10 6.5 16.5t15.5 6.5q10 0 16.5 -6.5t6.5 -16.5q0 -9 -6.5 -15.5t-16.5 -6.5q-9 0 -15.5 6.5t-6.5 15.5zM115 437q0 10 6.5 16.5t15.5 6.5q10 0 16.5 -6.5t6.5 -16.5q0 -9 -6.5 -15.5t-16.5 -6.5 q-9 0 -15.5 6.5t-6.5 15.5zM215 137q0 10 6.5 16.5t15.5 6.5q10 0 16.5 -6.5t6.5 -16.5q0 -9 -6.5 -15.5t-16.5 -6.5q-9 0 -15.5 6.5t-6.5 15.5zM215 337q0 10 6.5 16.5t15.5 6.5q10 0 16.5 -6.5t6.5 -16.5q0 -9 -6.5 -15.5t-16.5 -6.5q-9 0 -15.5 6.5t-6.5 15.5zM315 37 q0 10 6.5 16.5t15.5 6.5q10 0 16.5 -6.5t6.5 -16.5q0 -9 -6.5 -15.5t-16.5 -6.5q-9 0 -15.5 6.5t-6.5 15.5zM315 137q0 10 6.5 16.5t15.5 6.5q10 0 16.5 -6.5t6.5 -16.5q0 -9 -6.5 -15.5t-16.5 -6.5q-9 0 -15.5 6.5t-6.5 15.5zM315 237q0 10 6.5 16.5t15.5 6.5 q10 0 16.5 -6.5t6.5 -16.5q0 -9 -6.5 -15.5t-16.5 -6.5q-9 0 -15.5 6.5t-6.5 15.5zM315 337q0 10 6.5 16.5t15.5 6.5q10 0 16.5 -6.5t6.5 -16.5q0 -9 -6.5 -15.5t-16.5 -6.5q-9 0 -15.5 6.5t-6.5 15.5zM315 437q0 10 6.5 16.5t15.5 6.5q10 0 16.5 -6.5t6.5 -16.5 q0 -9 -6.5 -15.5t-16.5 -6.5q-9 0 -15.5 6.5t-6.5 15.5zM415 137q0 10 6.5 16.5t15.5 6.5q10 0 16.5 -6.5t6.5 -16.5q0 -9 -6.5 -15.5t-16.5 -6.5q-9 0 -15.5 6.5t-6.5 15.5zM415 337q0 10 6.5 16.5t15.5 6.5q10 0 16.5 -6.5t6.5 -16.5q0 -9 -6.5 -15.5t-16.5 -6.5 q-9 0 -15.5 6.5t-6.5 15.5z" />
<glyph unicode="$" d="M15 37q0 10 6.5 16.5t15.5 6.5q10 0 16.5 -6.5t6.5 -16.5q0 -9 -6.5 -15.5t-16.5 -6.5q-9 0 -15.5 6.5t-6.5 15.5zM15 337q0 10 6.5 16.5t15.5 6.5q10 0 16.5 -6.5t6.5 -16.5q0 -9 -6.5 -15.5t-16.5 -6.5q-9 0 -15.5 6.5t-6.5 15.5zM115 37q0 10 6.5 16.5t15.5 6.5 q10 0 16.5 -6.5t6.5 -16.5q0 -9 -6.5 -15.5t-16.5 -6.5q-9 0 -15.5 6.5t-6.5 15.5zM115 237q0 10 6.5 16.5t15.5 6.5q10 0 16.5 -6.5t6.5 -16.5q0 -9 -6.5 -15.5t-16.5 -6.5q-9 0 -15.5 6.5t-6.5 15.5zM115 437q0 10 6.5 16.5t15.5 6.5q10 0 16.5 -6.5t6.5 -16.5 q0 -9 -6.5 -15.5t-16.5 -6.5q-9 0 -15.5 6.5t-6.5 15.5zM215 37q0 10 6.5 16.5t15.5 6.5q10 0 16.5 -6.5t6.5 -16.5q0 -9 -6.5 -15.5t-16.5 -6.5q-9 0 -15.5 6.5t-6.5 15.5zM215 -63q0 10 6.5 16.5t15.5 6.5q10 0 16.5 -6.5t6.5 -16.5q0 -9 -6.5 -15.5t-16.5 -6.5 q-9 0 -15.5 6.5t-6.5 15.5zM215 137q0 10 6.5 16.5t15.5 6.5q10 0 16.5 -6.5t6.5 -16.5q0 -9 -6.5 -15.5t-16.5 -6.5q-9 0 -15.5 6.5t-6.5 15.5zM215 237q0 10 6.5 16.5t15.5 6.5q10 0 16.5 -6.5t6.5 -16.5q0 -9 -6.5 -15.5t-16.5 -6.5q-9 0 -15.5 6.5t-6.5 15.5zM215 337 q0 10 6.5 16.5t15.5 6.5q10 0 16.5 -6.5t6.5 -16.5q0 -9 -6.5 -15.5t-16.5 -6.5q-9 0 -15.5 6.5t-6.5 15.5zM215 437q0 10 6.5 16.5t15.5 6.5q10 0 16.5 -6.5t6.5 -16.5q0 -9 -6.5 -15.5t-16.5 -6.5q-9 0 -15.5 6.5t-6.5 15.5zM215 537q0 10 6.5 16.5t15.5 6.5 q10 0 16.5 -6.5t6.5 -16.5q0 -9 -6.5 -15.5t-16.5 -6.5q-9 0 -15.5 6.5t-6.5 15.5zM315 37q0 10 6.5 16.5t15.5 6.5q10 0 16.5 -6.5t6.5 -16.5q0 -9 -6.5 -15.5t-16.5 -6.5q-9 0 -15.5 6.5t-6.5 15.5zM315 237q0 10 6.5 16.5t15.5 6.5q10 0 16.5 -6.5t6.5 -16.5 q0 -9 -6.5 -15.5t-16.5 -6.5q-9 0 -15.5 6.5t-6.5 15.5zM315 437q0 10 6.5 16.5t15.5 6.5q10 0 16.5 -6.5t6.5 -16.5q0 -9 -6.5 -15.5t-16.5 -6.5q-9 0 -15.5 6.5t-6.5 15.5zM415 137q0 10 6.5 16.5t15.5 6.5q10 0 16.5 -6.5t6.5 -16.5q0 -9 -6.5 -15.5t-16.5 -6.5 q-9 0 -15.5 6.5t-6.5 15.5zM415 437q0 10 6.5 16.5t15.5 6.5q10 0 16.5 -6.5t6.5 -16.5q0 -9 -6.5 -15.5t-16.5 -6.5q-9 0 -15.5 6.5t-6.5 15.5z" />
<glyph unicode="%" d="M15 37q0 10 6.5 16.5t15.5 6.5q10 0 16.5 -6.5t6.5 -16.5q0 -9 -6.5 -15.5t-16.5 -6.5q-9 0 -15.5 6.5t-6.5 15.5zM15 337q0 10 6.5 16.5t15.5 6.5q10 0 16.5 -6.5t6.5 -16.5q0 -9 -6.5 -15.5t-16.5 -6.5q-9 0 -15.5 6.5t-6.5 15.5zM15 437q0 10 6.5 16.5t15.5 6.5 q10 0 16.5 -6.5t6.5 -16.5q0 -9 -6.5 -15.5t-16.5 -6.5q-9 0 -15.5 6.5t-6.5 15.5zM115 137q0 10 6.5 16.5t15.5 6.5q10 0 16.5 -6.5t6.5 -16.5q0 -9 -6.5 -15.5t-16.5 -6.5q-9 0 -15.5 6.5t-6.5 15.5zM115 237q0 10 6.5 16.5t15.5 6.5q10 0 16.5 -6.5t6.5 -16.5 q0 -9 -6.5 -15.5t-16.5 -6.5q-9 0 -15.5 6.5t-6.5 15.5zM115 337q0 10 6.5 16.5t15.5 6.5q10 0 16.5 -6.5t6.5 -16.5q0 -9 -6.5 -15.5t-16.5 -6.5q-9 0 -15.5 6.5t-6.5 15.5zM115 437q0 10 6.5 16.5t15.5 6.5q10 0 16.5 -6.5t6.5 -16.5q0 -9 -6.5 -15.5t-16.5 -6.5 q-9 0 -15.5 6.5t-6.5 15.5zM215 37q0 10 6.5 16.5t15.5 6.5q10 0 16.5 -6.5t6.5 -16.5q0 -9 -6.5 -15.5t-16.5 -6.5q-9 0 -15.5 6.5t-6.5 15.5zM215 137q0 10 6.5 16.5t15.5 6.5q10 0 16.5 -6.5t6.5 -16.5q0 -9 -6.5 -15.5t-16.5 -6.5q-9 0 -15.5 6.5t-6.5 15.5zM215 337 q0 10 6.5 16.5t15.5 6.5q10 0 16.5 -6.5t6.5 -16.5q0 -9 -6.5 -15.5t-16.5 -6.5q-9 0 -15.5 6.5t-6.5 15.5zM315 37q0 10 6.5 16.5t15.5 6.5q10 0 16.5 -6.5t6.5 -16.5q0 -9 -6.5 -15.5t-16.5 -6.5q-9 0 -15.5 6.5t-6.5 15.5zM315 137q0 10 6.5 16.5t15.5 6.5 q10 0 16.5 -6.5t6.5 -16.5q0 -9 -6.5 -15.5t-16.5 -6.5q-9 0 -15.5 6.5t-6.5 15.5zM315 437q0 10 6.5 16.5t15.5 6.5q10 0 16.5 -6.5t6.5 -16.5q0 -9 -6.5 -15.5t-16.5 -6.5q-9 0 -15.5 6.5t-6.5 15.5z" />
<glyph unicode="&#x26;" d="M15 137q0 10 6.5 16.5t15.5 6.5q10 0 16.5 -6.5t6.5 -16.5q0 -9 -6.5 -15.5t-16.5 -6.5q-9 0 -15.5 6.5t-6.5 15.5zM15 337q0 10 6.5 16.5t15.5 6.5q10 0 16.5 -6.5t6.5 -16.5q0 -9 -6.5 -15.5t-16.5 -6.5q-9 0 -15.5 6.5t-6.5 15.5zM115 37q0 10 6.5 16.5t15.5 6.5 q10 0 16.5 -6.5t6.5 -16.5q0 -9 -6.5 -15.5t-16.5 -6.5q-9 0 -15.5 6.5t-6.5 15.5zM115 237q0 10 6.5 16.5t15.5 6.5q10 0 16.5 -6.5t6.5 -16.5q0 -9 -6.5 -15.5t-16.5 -6.5q-9 0 -15.5 6.5t-6.5 15.5zM115 437q0 10 6.5 16.5t15.5 6.5q10 0 16.5 -6.5t6.5 -16.5 q0 -9 -6.5 -15.5t-16.5 -6.5q-9 0 -15.5 6.5t-6.5 15.5zM215 37q0 10 6.5 16.5t15.5 6.5q10 0 16.5 -6.5t6.5 -16.5q0 -9 -6.5 -15.5t-16.5 -6.5q-9 0 -15.5 6.5t-6.5 15.5zM215 237q0 10 6.5 16.5t15.5 6.5q10 0 16.5 -6.5t6.5 -16.5q0 -9 -6.5 -15.5t-16.5 -6.5 q-9 0 -15.5 6.5t-6.5 15.5zM215 437q0 10 6.5 16.5t15.5 6.5q10 0 16.5 -6.5t6.5 -16.5q0 -9 -6.5 -15.5t-16.5 -6.5q-9 0 -15.5 6.5t-6.5 15.5zM315 137q0 10 6.5 16.5t15.5 6.5q10 0 16.5 -6.5t6.5 -16.5q0 -9 -6.5 -15.5t-16.5 -6.5q-9 0 -15.5 6.5t-6.5 15.5zM315 237 q0 10 6.5 16.5t15.5 6.5q10 0 16.5 -6.5t6.5 -16.5q0 -9 -6.5 -15.5t-16.5 -6.5q-9 0 -15.5 6.5t-6.5 15.5zM415 237q0 10 6.5 16.5t15.5 6.5q10 0 16.5 -6.5t6.5 -16.5q0 -9 -6.5 -15.5t-16.5 -6.5q-9 0 -15.5 6.5t-6.5 15.5z" />
<glyph unicode="'" d="M215 337q0 10 6.5 16.5t15.5 6.5q10 0 16.5 -6.5t6.5 -16.5q0 -9 -6.5 -15.5t-16.5 -6.5q-9 0 -15.5 6.5t-6.5 15.5zM315 437q0 10 6.5 16.5t15.5 6.5q10 0 16.5 -6.5t6.5 -16.5q0 -9 -6.5 -15.5t-16.5 -6.5q-9 0 -15.5 6.5t-6.5 15.5zM315 537q0 10 6.5 16.5t15.5 6.5 q10 0 16.5 -6.5t6.5 -16.5q0 -9 -6.5 -15.5t-16.5 -6.5q-9 0 -15.5 6.5t-6.5 15.5z" />
<glyph unicode="(" d="M215 37q0 10 6.5 16.5t15.5 6.5q10 0 16.5 -6.5t6.5 -16.5q0 -9 -6.5 -15.5t-16.5 -6.5q-9 0 -15.5 6.5t-6.5 15.5zM215 137q0 10 6.5 16.5t15.5 6.5q10 0 16.5 -6.5t6.5 -16.5q0 -9 -6.5 -15.5t-16.5 -6.5q-9 0 -15.5 6.5t-6.5 15.5zM215 237q0 10 6.5 16.5t15.5 6.5 q10 0 16.5 -6.5t6.5 -16.5q0 -9 -6.5 -15.5t-16.5 -6.5q-9 0 -15.5 6.5t-6.5 15.5zM215 337q0 10 6.5 16.5t15.5 6.5q10 0 16.5 -6.5t6.5 -16.5q0 -9 -6.5 -15.5t-16.5 -6.5q-9 0 -15.5 6.5t-6.5 15.5zM215 437q0 10 6.5 16.5t15.5 6.5q10 0 16.5 -6.5t6.5 -16.5 q0 -9 -6.5 -15.5t-16.5 -6.5q-9 0 -15.5 6.5t-6.5 15.5zM315 -63q0 10 6.5 16.5t15.5 6.5q10 0 16.5 -6.5t6.5 -16.5q0 -9 -6.5 -15.5t-16.5 -6.5q-9 0 -15.5 6.5t-6.5 15.5zM315 537q0 10 6.5 16.5t15.5 6.5q10 0 16.5 -6.5t6.5 -16.5q0 -9 -6.5 -15.5t-16.5 -6.5 q-9 0 -15.5 6.5t-6.5 15.5z" />
<glyph unicode=")" d="M215 -63q0 10 6.5 16.5t15.5 6.5q10 0 16.5 -6.5t6.5 -16.5q0 -9 -6.5 -15.5t-16.5 -6.5q-9 0 -15.5 6.5t-6.5 15.5zM215 537q0 10 6.5 16.5t15.5 6.5q10 0 16.5 -6.5t6.5 -16.5q0 -9 -6.5 -15.5t-16.5 -6.5q-9 0 -15.5 6.5t-6.5 15.5zM315 37q0 10 6.5 16.5t15.5 6.5 q10 0 16.5 -6.5t6.5 -16.5q0 -9 -6.5 -15.5t-16.5 -6.5q-9 0 -15.5 6.5t-6.5 15.5zM315 137q0 10 6.5 16.5t15.5 6.5q10 0 16.5 -6.5t6.5 -16.5q0 -9 -6.5 -15.5t-16.5 -6.5q-9 0 -15.5 6.5t-6.5 15.5zM315 237q0 10 6.5 16.5t15.5 6.5q10 0 16.5 -6.5t6.5 -16.5 q0 -9 -6.5 -15.5t-16.5 -6.5q-9 0 -15.5 6.5t-6.5 15.5zM315 337q0 10 6.5 16.5t15.5 6.5q10 0 16.5 -6.5t6.5 -16.5q0 -9 -6.5 -15.5t-16.5 -6.5q-9 0 -15.5 6.5t-6.5 15.5zM315 437q0 10 6.5 16.5t15.5 6.5q10 0 16.5 -6.5t6.5 -16.5q0 -9 -6.5 -15.5t-16.5 -6.5 q-9 0 -15.5 6.5t-6.5 15.5z" />
<glyph unicode="*" d="M15 337q0 10 6.5 16.5t15.5 6.5q10 0 16.5 -6.5t6.5 -16.5q0 -9 -6.5 -15.5t-16.5 -6.5q-9 0 -15.5 6.5t-6.5 15.5zM15 537q0 10 6.5 16.5t15.5 6.5q10 0 16.5 -6.5t6.5 -16.5q0 -9 -6.5 -15.5t-16.5 -6.5q-9 0 -15.5 6.5t-6.5 15.5zM115 437q0 10 6.5 16.5t15.5 6.5 q10 0 16.5 -6.5t6.5 -16.5q0 -9 -6.5 -15.5t-16.5 -6.5q-9 0 -15.5 6.5t-6.5 15.5zM215 337q0 10 6.5 16.5t15.5 6.5q10 0 16.5 -6.5t6.5 -16.5q0 -9 -6.5 -15.5t-16.5 -6.5q-9 0 -15.5 6.5t-6.5 15.5zM215 537q0 10 6.5 16.5t15.5 6.5q10 0 16.5 -6.5t6.5 -16.5 q0 -9 -6.5 -15.5t-16.5 -6.5q-9 0 -15.5 6.5t-6.5 15.5z" />
<glyph unicode="+" d="M15 237q0 10 6.5 16.5t15.5 6.5q10 0 16.5 -6.5t6.5 -16.5q0 -9 -6.5 -15.5t-16.5 -6.5q-9 0 -15.5 6.5t-6.5 15.5zM115 237q0 10 6.5 16.5t15.5 6.5q10 0 16.5 -6.5t6.5 -16.5q0 -9 -6.5 -15.5t-16.5 -6.5q-9 0 -15.5 6.5t-6.5 15.5zM215 37q0 10 6.5 16.5t15.5 6.5 q10 0 16.5 -6.5t6.5 -16.5q0 -9 -6.5 -15.5t-16.5 -6.5q-9 0 -15.5 6.5t-6.5 15.5zM215 137q0 10 6.5 16.5t15.5 6.5q10 0 16.5 -6.5t6.5 -16.5q0 -9 -6.5 -15.5t-16.5 -6.5q-9 0 -15.5 6.5t-6.5 15.5zM215 237q0 10 6.5 16.5t15.5 6.5q10 0 16.5 -6.5t6.5 -16.5 q0 -9 -6.5 -15.5t-16.5 -6.5q-9 0 -15.5 6.5t-6.5 15.5zM215 337q0 10 6.5 16.5t15.5 6.5q10 0 16.5 -6.5t6.5 -16.5q0 -9 -6.5 -15.5t-16.5 -6.5q-9 0 -15.5 6.5t-6.5 15.5zM215 437q0 10 6.5 16.5t15.5 6.5q10 0 16.5 -6.5t6.5 -16.5q0 -9 -6.5 -15.5t-16.5 -6.5 q-9 0 -15.5 6.5t-6.5 15.5zM315 237q0 10 6.5 16.5t15.5 6.5q10 0 16.5 -6.5t6.5 -16.5q0 -9 -6.5 -15.5t-16.5 -6.5q-9 0 -15.5 6.5t-6.5 15.5zM415 237q0 10 6.5 16.5t15.5 6.5q10 0 16.5 -6.5t6.5 -16.5q0 -9 -6.5 -15.5t-16.5 -6.5q-9 0 -15.5 6.5t-6.5 15.5z" />
<glyph unicode="," d="M115 -63q0 10 6.5 16.5t15.5 6.5q10 0 16.5 -6.5t6.5 -16.5q0 -9 -6.5 -15.5t-16.5 -6.5q-9 0 -15.5 6.5t-6.5 15.5zM215 37q0 10 6.5 16.5t15.5 6.5q10 0 16.5 -6.5t6.5 -16.5q0 -9 -6.5 -15.5t-16.5 -6.5q-9 0 -15.5 6.5t-6.5 15.5zM215 137q0 10 6.5 16.5t15.5 6.5 q10 0 16.5 -6.5t6.5 -16.5q0 -9 -6.5 -15.5t-16.5 -6.5q-9 0 -15.5 6.5t-6.5 15.5z" />
<glyph unicode="-" d="M115 237q0 10 6.5 16.5t15.5 6.5q10 0 16.5 -6.5t6.5 -16.5q0 -9 -6.5 -15.5t-16.5 -6.5q-9 0 -15.5 6.5t-6.5 15.5zM215 237q0 10 6.5 16.5t15.5 6.5q10 0 16.5 -6.5t6.5 -16.5q0 -9 -6.5 -15.5t-16.5 -6.5q-9 0 -15.5 6.5t-6.5 15.5zM315 237q0 10 6.5 16.5t15.5 6.5 q10 0 16.5 -6.5t6.5 -16.5q0 -9 -6.5 -15.5t-16.5 -6.5q-9 0 -15.5 6.5t-6.5 15.5z" />
<glyph unicode="." d="M215 37q0 10 6.5 16.5t15.5 6.5q10 0 16.5 -6.5t6.5 -16.5q0 -9 -6.5 -15.5t-16.5 -6.5q-9 0 -15.5 6.5t-6.5 15.5zM215 137q0 10 6.5 16.5t15.5 6.5q10 0 16.5 -6.5t6.5 -16.5q0 -9 -6.5 -15.5t-16.5 -6.5q-9 0 -15.5 6.5t-6.5 15.5z" />
<glyph unicode="/" d="M115 37q0 10 6.5 16.5t15.5 6.5q10 0 16.5 -6.5t6.5 -16.5q0 -9 -6.5 -15.5t-16.5 -6.5q-9 0 -15.5 6.5t-6.5 15.5zM115 -63q0 10 6.5 16.5t15.5 6.5q10 0 16.5 -6.5t6.5 -16.5q0 -9 -6.5 -15.5t-16.5 -6.5q-9 0 -15.5 6.5t-6.5 15.5zM215 137q0 10 6.5 16.5t15.5 6.5 q10 0 16.5 -6.5t6.5 -16.5q0 -9 -6.5 -15.5t-16.5 -6.5q-9 0 -15.5 6.5t-6.5 15.5zM315 237q0 10 6.5 16.5t15.5 6.5q10 0 16.5 -6.5t6.5 -16.5q0 -9 -6.5 -15.5t-16.5 -6.5q-9 0 -15.5 6.5t-6.5 15.5zM315 337q0 10 6.5 16.5t15.5 6.5q10 0 16.5 -6.5t6.5 -16.5 q0 -9 -6.5 -15.5t-16.5 -6.5q-9 0 -15.5 6.5t-6.5 15.5zM415 437q0 10 6.5 16.5t15.5 6.5q10 0 16.5 -6.5t6.5 -16.5q0 -9 -6.5 -15.5t-16.5 -6.5q-9 0 -15.5 6.5t-6.5 15.5zM415 537q0 10 6.5 16.5t15.5 6.5q10 0 16.5 -6.5t6.5 -16.5q0 -9 -6.5 -15.5t-16.5 -6.5 q-9 0 -15.5 6.5t-6.5 15.5z" />
<glyph unicode="0" d="M15 137q0 10 6.5 16.5t15.5 6.5q10 0 16.5 -6.5t6.5 -16.5q0 -9 -6.5 -15.5t-16.5 -6.5q-9 0 -15.5 6.5t-6.5 15.5zM15 237q0 10 6.5 16.5t15.5 6.5q10 0 16.5 -6.5t6.5 -16.5q0 -9 -6.5 -15.5t-16.5 -6.5q-9 0 -15.5 6.5t-6.5 15.5zM15 337q0 10 6.5 16.5t15.5 6.5 q10 0 16.5 -6.5t6.5 -16.5q0 -9 -6.5 -15.5t-16.5 -6.5q-9 0 -15.5 6.5t-6.5 15.5zM115 37q0 10 6.5 16.5t15.5 6.5q10 0 16.5 -6.5t6.5 -16.5q0 -9 -6.5 -15.5t-16.5 -6.5q-9 0 -15.5 6.5t-6.5 15.5zM115 137q0 10 6.5 16.5t15.5 6.5q10 0 16.5 -6.5t6.5 -16.5 q0 -9 -6.5 -15.5t-16.5 -6.5q-9 0 -15.5 6.5t-6.5 15.5zM115 437q0 10 6.5 16.5t15.5 6.5q10 0 16.5 -6.5t6.5 -16.5q0 -9 -6.5 -15.5t-16.5 -6.5q-9 0 -15.5 6.5t-6.5 15.5zM215 37q0 10 6.5 16.5t15.5 6.5q10 0 16.5 -6.5t6.5 -16.5q0 -9 -6.5 -15.5t-16.5 -6.5 q-9 0 -15.5 6.5t-6.5 15.5zM215 237q0 10 6.5 16.5t15.5 6.5q10 0 16.5 -6.5t6.5 -16.5q0 -9 -6.5 -15.5t-16.5 -6.5q-9 0 -15.5 6.5t-6.5 15.5zM215 437q0 10 6.5 16.5t15.5 6.5q10 0 16.5 -6.5t6.5 -16.5q0 -9 -6.5 -15.5t-16.5 -6.5q-9 0 -15.5 6.5t-6.5 15.5zM315 37 q0 10 6.5 16.5t15.5 6.5q10 0 16.5 -6.5t6.5 -16.5q0 -9 -6.5 -15.5t-16.5 -6.5q-9 0 -15.5 6.5t-6.5 15.5zM315 337q0 10 6.5 16.5t15.5 6.5q10 0 16.5 -6.5t6.5 -16.5q0 -9 -6.5 -15.5t-16.5 -6.5q-9 0 -15.5 6.5t-6.5 15.5zM315 437q0 10 6.5 16.5t15.5 6.5 q10 0 16.5 -6.5t6.5 -16.5q0 -9 -6.5 -15.5t-16.5 -6.5q-9 0 -15.5 6.5t-6.5 15.5zM415 137q0 10 6.5 16.5t15.5 6.5q10 0 16.5 -6.5t6.5 -16.5q0 -9 -6.5 -15.5t-16.5 -6.5q-9 0 -15.5 6.5t-6.5 15.5zM415 237q0 10 6.5 16.5t15.5 6.5q10 0 16.5 -6.5t6.5 -16.5 q0 -9 -6.5 -15.5t-16.5 -6.5q-9 0 -15.5 6.5t-6.5 15.5zM415 337q0 10 6.5 16.5t15.5 6.5q10 0 16.5 -6.5t6.5 -16.5q0 -9 -6.5 -15.5t-16.5 -6.5q-9 0 -15.5 6.5t-6.5 15.5z" />
<glyph unicode="1" d="M15 37q0 10 6.5 16.5t15.5 6.5q10 0 16.5 -6.5t6.5 -16.5q0 -9 -6.5 -15.5t-16.5 -6.5q-9 0 -15.5 6.5t-6.5 15.5zM15 437q0 10 6.5 16.5t15.5 6.5q10 0 16.5 -6.5t6.5 -16.5q0 -9 -6.5 -15.5t-16.5 -6.5q-9 0 -15.5 6.5t-6.5 15.5zM115 37q0 10 6.5 16.5t15.5 6.5 q10 0 16.5 -6.5t6.5 -16.5q0 -9 -6.5 -15.5t-16.5 -6.5q-9 0 -15.5 6.5t-6.5 15.5zM115 437q0 10 6.5 16.5t15.5 6.5q10 0 16.5 -6.5t6.5 -16.5q0 -9 -6.5 -15.5t-16.5 -6.5q-9 0 -15.5 6.5t-6.5 15.5zM215 37q0 10 6.5 16.5t15.5 6.5q10 0 16.5 -6.5t6.5 -16.5 q0 -9 -6.5 -15.5t-16.5 -6.5q-9 0 -15.5 6.5t-6.5 15.5zM215 137q0 10 6.5 16.5t15.5 6.5q10 0 16.5 -6.5t6.5 -16.5q0 -9 -6.5 -15.5t-16.5 -6.5q-9 0 -15.5 6.5t-6.5 15.5zM215 237q0 10 6.5 16.5t15.5 6.5q10 0 16.5 -6.5t6.5 -16.5q0 -9 -6.5 -15.5t-16.5 -6.5 q-9 0 -15.5 6.5t-6.5 15.5zM215 337q0 10 6.5 16.5t15.5 6.5q10 0 16.5 -6.5t6.5 -16.5q0 -9 -6.5 -15.5t-16.5 -6.5q-9 0 -15.5 6.5t-6.5 15.5zM215 437q0 10 6.5 16.5t15.5 6.5q10 0 16.5 -6.5t6.5 -16.5q0 -9 -6.5 -15.5t-16.5 -6.5q-9 0 -15.5 6.5t-6.5 15.5zM315 37 q0 10 6.5 16.5t15.5 6.5q10 0 16.5 -6.5t6.5 -16.5q0 -9 -6.5 -15.5t-16.5 -6.5q-9 0 -15.5 6.5t-6.5 15.5zM415 37q0 10 6.5 16.5t15.5 6.5q10 0 16.5 -6.5t6.5 -16.5q0 -9 -6.5 -15.5t-16.5 -6.5q-9 0 -15.5 6.5t-6.5 15.5z" />
<glyph unicode="2" d="M15 37q0 10 6.5 16.5t15.5 6.5q10 0 16.5 -6.5t6.5 -16.5q0 -9 -6.5 -15.5t-16.5 -6.5q-9 0 -15.5 6.5t-6.5 15.5zM15 337q0 10 6.5 16.5t15.5 6.5q10 0 16.5 -6.5t6.5 -16.5q0 -9 -6.5 -15.5t-16.5 -6.5q-9 0 -15.5 6.5t-6.5 15.5zM115 37q0 10 6.5 16.5t15.5 6.5 q10 0 16.5 -6.5t6.5 -16.5q0 -9 -6.5 -15.5t-16.5 -6.5q-9 0 -15.5 6.5t-6.5 15.5zM115 137q0 10 6.5 16.5t15.5 6.5q10 0 16.5 -6.5t6.5 -16.5q0 -9 -6.5 -15.5t-16.5 -6.5q-9 0 -15.5 6.5t-6.5 15.5zM115 437q0 10 6.5 16.5t15.5 6.5q10 0 16.5 -6.5t6.5 -16.5 q0 -9 -6.5 -15.5t-16.5 -6.5q-9 0 -15.5 6.5t-6.5 15.5zM215 37q0 10 6.5 16.5t15.5 6.5q10 0 16.5 -6.5t6.5 -16.5q0 -9 -6.5 -15.5t-16.5 -6.5q-9 0 -15.5 6.5t-6.5 15.5zM215 237q0 10 6.5 16.5t15.5 6.5q10 0 16.5 -6.5t6.5 -16.5q0 -9 -6.5 -15.5t-16.5 -6.5 q-9 0 -15.5 6.5t-6.5 15.5zM215 437q0 10 6.5 16.5t15.5 6.5q10 0 16.5 -6.5t6.5 -16.5q0 -9 -6.5 -15.5t-16.5 -6.5q-9 0 -15.5 6.5t-6.5 15.5zM315 37q0 10 6.5 16.5t15.5 6.5q10 0 16.5 -6.5t6.5 -16.5q0 -9 -6.5 -15.5t-16.5 -6.5q-9 0 -15.5 6.5t-6.5 15.5zM315 237 q0 10 6.5 16.5t15.5 6.5q10 0 16.5 -6.5t6.5 -16.5q0 -9 -6.5 -15.5t-16.5 -6.5q-9 0 -15.5 6.5t-6.5 15.5zM315 437q0 10 6.5 16.5t15.5 6.5q10 0 16.5 -6.5t6.5 -16.5q0 -9 -6.5 -15.5t-16.5 -6.5q-9 0 -15.5 6.5t-6.5 15.5zM415 37q0 10 6.5 16.5t15.5 6.5 q10 0 16.5 -6.5t6.5 -16.5q0 -9 -6.5 -15.5t-16.5 -6.5q-9 0 -15.5 6.5t-6.5 15.5zM415 337q0 10 6.5 16.5t15.5 6.5q10 0 16.5 -6.5t6.5 -16.5q0 -9 -6.5 -15.5t-16.5 -6.5q-9 0 -15.5 6.5t-6.5 15.5z" />
<glyph unicode="3" d="M15 37q0 10 6.5 16.5t15.5 6.5q10 0 16.5 -6.5t6.5 -16.5q0 -9 -6.5 -15.5t-16.5 -6.5q-9 0 -15.5 6.5t-6.5 15.5zM15 437q0 10 6.5 16.5t15.5 6.5q10 0 16.5 -6.5t6.5 -16.5q0 -9 -6.5 -15.5t-16.5 -6.5q-9 0 -15.5 6.5t-6.5 15.5zM115 37q0 10 6.5 16.5t15.5 6.5 q10 0 16.5 -6.5t6.5 -16.5q0 -9 -6.5 -15.5t-16.5 -6.5q-9 0 -15.5 6.5t-6.5 15.5zM115 237q0 10 6.5 16.5t15.5 6.5q10 0 16.5 -6.5t6.5 -16.5q0 -9 -6.5 -15.5t-16.5 -6.5q-9 0 -15.5 6.5t-6.5 15.5zM115 437q0 10 6.5 16.5t15.5 6.5q10 0 16.5 -6.5t6.5 -16.5 q0 -9 -6.5 -15.5t-16.5 -6.5q-9 0 -15.5 6.5t-6.5 15.5zM215 37q0 10 6.5 16.5t15.5 6.5q10 0 16.5 -6.5t6.5 -16.5q0 -9 -6.5 -15.5t-16.5 -6.5q-9 0 -15.5 6.5t-6.5 15.5zM215 237q0 10 6.5 16.5t15.5 6.5q10 0 16.5 -6.5t6.5 -16.5q0 -9 -6.5 -15.5t-16.5 -6.5 q-9 0 -15.5 6.5t-6.5 15.5zM215 437q0 10 6.5 16.5t15.5 6.5q10 0 16.5 -6.5t6.5 -16.5q0 -9 -6.5 -15.5t-16.5 -6.5q-9 0 -15.5 6.5t-6.5 15.5zM315 37q0 10 6.5 16.5t15.5 6.5q10 0 16.5 -6.5t6.5 -16.5q0 -9 -6.5 -15.5t-16.5 -6.5q-9 0 -15.5 6.5t-6.5 15.5zM315 237 q0 10 6.5 16.5t15.5 6.5q10 0 16.5 -6.5t6.5 -16.5q0 -9 -6.5 -15.5t-16.5 -6.5q-9 0 -15.5 6.5t-6.5 15.5zM315 437q0 10 6.5 16.5t15.5 6.5q10 0 16.5 -6.5t6.5 -16.5q0 -9 -6.5 -15.5t-16.5 -6.5q-9 0 -15.5 6.5t-6.5 15.5zM415 137q0 10 6.5 16.5t15.5 6.5 q10 0 16.5 -6.5t6.5 -16.5q0 -9 -6.5 -15.5t-16.5 -6.5q-9 0 -15.5 6.5t-6.5 15.5zM415 337q0 10 6.5 16.5t15.5 6.5q10 0 16.5 -6.5t6.5 -16.5q0 -9 -6.5 -15.5t-16.5 -6.5q-9 0 -15.5 6.5t-6.5 15.5z" />
<glyph unicode="4" d="M15 137q0 10 6.5 16.5t15.5 6.5q10 0 16.5 -6.5t6.5 -16.5q0 -9 -6.5 -15.5t-16.5 -6.5q-9 0 -15.5 6.5t-6.5 15.5zM115 137q0 10 6.5 16.5t15.5 6.5q10 0 16.5 -6.5t6.5 -16.5q0 -9 -6.5 -15.5t-16.5 -6.5q-9 0 -15.5 6.5t-6.5 15.5zM115 237q0 10 6.5 16.5t15.5 6.5 q10 0 16.5 -6.5t6.5 -16.5q0 -9 -6.5 -15.5t-16.5 -6.5q-9 0 -15.5 6.5t-6.5 15.5zM215 137q0 10 6.5 16.5t15.5 6.5q10 0 16.5 -6.5t6.5 -16.5q0 -9 -6.5 -15.5t-16.5 -6.5q-9 0 -15.5 6.5t-6.5 15.5zM215 337q0 10 6.5 16.5t15.5 6.5q10 0 16.5 -6.5t6.5 -16.5 q0 -9 -6.5 -15.5t-16.5 -6.5q-9 0 -15.5 6.5t-6.5 15.5zM315 37q0 10 6.5 16.5t15.5 6.5q10 0 16.5 -6.5t6.5 -16.5q0 -9 -6.5 -15.5t-16.5 -6.5q-9 0 -15.5 6.5t-6.5 15.5zM315 137q0 10 6.5 16.5t15.5 6.5q10 0 16.5 -6.5t6.5 -16.5q0 -9 -6.5 -15.5t-16.5 -6.5 q-9 0 -15.5 6.5t-6.5 15.5zM315 237q0 10 6.5 16.5t15.5 6.5q10 0 16.5 -6.5t6.5 -16.5q0 -9 -6.5 -15.5t-16.5 -6.5q-9 0 -15.5 6.5t-6.5 15.5zM315 337q0 10 6.5 16.5t15.5 6.5q10 0 16.5 -6.5t6.5 -16.5q0 -9 -6.5 -15.5t-16.5 -6.5q-9 0 -15.5 6.5t-6.5 15.5zM315 437 q0 10 6.5 16.5t15.5 6.5q10 0 16.5 -6.5t6.5 -16.5q0 -9 -6.5 -15.5t-16.5 -6.5q-9 0 -15.5 6.5t-6.5 15.5zM415 137q0 10 6.5 16.5t15.5 6.5q10 0 16.5 -6.5t6.5 -16.5q0 -9 -6.5 -15.5t-16.5 -6.5q-9 0 -15.5 6.5t-6.5 15.5z" />
<glyph unicode="5" d="M15 37q0 10 6.5 16.5t15.5 6.5q10 0 16.5 -6.5t6.5 -16.5q0 -9 -6.5 -15.5t-16.5 -6.5q-9 0 -15.5 6.5t-6.5 15.5zM15 237q0 10 6.5 16.5t15.5 6.5q10 0 16.5 -6.5t6.5 -16.5q0 -9 -6.5 -15.5t-16.5 -6.5q-9 0 -15.5 6.5t-6.5 15.5zM15 337q0 10 6.5 16.5t15.5 6.5 q10 0 16.5 -6.5t6.5 -16.5q0 -9 -6.5 -15.5t-16.5 -6.5q-9 0 -15.5 6.5t-6.5 15.5zM15 437q0 10 6.5 16.5t15.5 6.5q10 0 16.5 -6.5t6.5 -16.5q0 -9 -6.5 -15.5t-16.5 -6.5q-9 0 -15.5 6.5t-6.5 15.5zM115 37q0 10 6.5 16.5t15.5 6.5q10 0 16.5 -6.5t6.5 -16.5 q0 -9 -6.5 -15.5t-16.5 -6.5q-9 0 -15.5 6.5t-6.5 15.5zM115 237q0 10 6.5 16.5t15.5 6.5q10 0 16.5 -6.5t6.5 -16.5q0 -9 -6.5 -15.5t-16.5 -6.5q-9 0 -15.5 6.5t-6.5 15.5zM115 437q0 10 6.5 16.5t15.5 6.5q10 0 16.5 -6.5t6.5 -16.5q0 -9 -6.5 -15.5t-16.5 -6.5 q-9 0 -15.5 6.5t-6.5 15.5zM215 37q0 10 6.5 16.5t15.5 6.5q10 0 16.5 -6.5t6.5 -16.5q0 -9 -6.5 -15.5t-16.5 -6.5q-9 0 -15.5 6.5t-6.5 15.5zM215 237q0 10 6.5 16.5t15.5 6.5q10 0 16.5 -6.5t6.5 -16.5q0 -9 -6.5 -15.5t-16.5 -6.5q-9 0 -15.5 6.5t-6.5 15.5zM215 437 q0 10 6.5 16.5t15.5 6.5q10 0 16.5 -6.5t6.5 -16.5q0 -9 -6.5 -15.5t-16.5 -6.5q-9 0 -15.5 6.5t-6.5 15.5zM315 37q0 10 6.5 16.5t15.5 6.5q10 0 16.5 -6.5t6.5 -16.5q0 -9 -6.5 -15.5t-16.5 -6.5q-9 0 -15.5 6.5t-6.5 15.5zM315 237q0 10 6.5 16.5t15.5 6.5 q10 0 16.5 -6.5t6.5 -16.5q0 -9 -6.5 -15.5t-16.5 -6.5q-9 0 -15.5 6.5t-6.5 15.5zM315 437q0 10 6.5 16.5t15.5 6.5q10 0 16.5 -6.5t6.5 -16.5q0 -9 -6.5 -15.5t-16.5 -6.5q-9 0 -15.5 6.5t-6.5 15.5zM415 137q0 10 6.5 16.5t15.5 6.5q10 0 16.5 -6.5t6.5 -16.5 q0 -9 -6.5 -15.5t-16.5 -6.5q-9 0 -15.5 6.5t-6.5 15.5zM415 437q0 10 6.5 16.5t15.5 6.5q10 0 16.5 -6.5t6.5 -16.5q0 -9 -6.5 -15.5t-16.5 -6.5q-9 0 -15.5 6.5t-6.5 15.5z" />
<glyph unicode="6" d="M15 137q0 10 6.5 16.5t15.5 6.5q10 0 16.5 -6.5t6.5 -16.5q0 -9 -6.5 -15.5t-16.5 -6.5q-9 0 -15.5 6.5t-6.5 15.5zM15 237q0 10 6.5 16.5t15.5 6.5q10 0 16.5 -6.5t6.5 -16.5q0 -9 -6.5 -15.5t-16.5 -6.5q-9 0 -15.5 6.5t-6.5 15.5zM15 337q0 10 6.5 16.5t15.5 6.5 q10 0 16.5 -6.5t6.5 -16.5q0 -9 -6.5 -15.5t-16.5 -6.5q-9 0 -15.5 6.5t-6.5 15.5zM115 37q0 10 6.5 16.5t15.5 6.5q10 0 16.5 -6.5t6.5 -16.5q0 -9 -6.5 -15.5t-16.5 -6.5q-9 0 -15.5 6.5t-6.5 15.5zM115 237q0 10 6.5 16.5t15.5 6.5q10 0 16.5 -6.5t6.5 -16.5 q0 -9 -6.5 -15.5t-16.5 -6.5q-9 0 -15.5 6.5t-6.5 15.5zM115 437q0 10 6.5 16.5t15.5 6.5q10 0 16.5 -6.5t6.5 -16.5q0 -9 -6.5 -15.5t-16.5 -6.5q-9 0 -15.5 6.5t-6.5 15.5zM215 37q0 10 6.5 16.5t15.5 6.5q10 0 16.5 -6.5t6.5 -16.5q0 -9 -6.5 -15.5t-16.5 -6.5 q-9 0 -15.5 6.5t-6.5 15.5zM215 237q0 10 6.5 16.5t15.5 6.5q10 0 16.5 -6.5t6.5 -16.5q0 -9 -6.5 -15.5t-16.5 -6.5q-9 0 -15.5 6.5t-6.5 15.5zM215 437q0 10 6.5 16.5t15.5 6.5q10 0 16.5 -6.5t6.5 -16.5q0 -9 -6.5 -15.5t-16.5 -6.5q-9 0 -15.5 6.5t-6.5 15.5zM315 37 q0 10 6.5 16.5t15.5 6.5q10 0 16.5 -6.5t6.5 -16.5q0 -9 -6.5 -15.5t-16.5 -6.5q-9 0 -15.5 6.5t-6.5 15.5zM315 237q0 10 6.5 16.5t15.5 6.5q10 0 16.5 -6.5t6.5 -16.5q0 -9 -6.5 -15.5t-16.5 -6.5q-9 0 -15.5 6.5t-6.5 15.5zM315 437q0 10 6.5 16.5t15.5 6.5 q10 0 16.5 -6.5t6.5 -16.5q0 -9 -6.5 -15.5t-16.5 -6.5q-9 0 -15.5 6.5t-6.5 15.5zM415 137q0 10 6.5 16.5t15.5 6.5q10 0 16.5 -6.5t6.5 -16.5q0 -9 -6.5 -15.5t-16.5 -6.5q-9 0 -15.5 6.5t-6.5 15.5z" />
<glyph unicode="7" d="M15 437q0 10 6.5 16.5t15.5 6.5q10 0 16.5 -6.5t6.5 -16.5q0 -9 -6.5 -15.5t-16.5 -6.5q-9 0 -15.5 6.5t-6.5 15.5zM115 37q0 10 6.5 16.5t15.5 6.5q10 0 16.5 -6.5t6.5 -16.5q0 -9 -6.5 -15.5t-16.5 -6.5q-9 0 -15.5 6.5t-6.5 15.5zM115 437q0 10 6.5 16.5t15.5 6.5 q10 0 16.5 -6.5t6.5 -16.5q0 -9 -6.5 -15.5t-16.5 -6.5q-9 0 -15.5 6.5t-6.5 15.5zM215 137q0 10 6.5 16.5t15.5 6.5q10 0 16.5 -6.5t6.5 -16.5q0 -9 -6.5 -15.5t-16.5 -6.5q-9 0 -15.5 6.5t-6.5 15.5zM215 437q0 10 6.5 16.5t15.5 6.5q10 0 16.5 -6.5t6.5 -16.5 q0 -9 -6.5 -15.5t-16.5 -6.5q-9 0 -15.5 6.5t-6.5 15.5zM315 237q0 10 6.5 16.5t15.5 6.5q10 0 16.5 -6.5t6.5 -16.5q0 -9 -6.5 -15.5t-16.5 -6.5q-9 0 -15.5 6.5t-6.5 15.5zM315 437q0 10 6.5 16.5t15.5 6.5q10 0 16.5 -6.5t6.5 -16.5q0 -9 -6.5 -15.5t-16.5 -6.5 q-9 0 -15.5 6.5t-6.5 15.5zM415 337q0 10 6.5 16.5t15.5 6.5q10 0 16.5 -6.5t6.5 -16.5q0 -9 -6.5 -15.5t-16.5 -6.5q-9 0 -15.5 6.5t-6.5 15.5zM415 437q0 10 6.5 16.5t15.5 6.5q10 0 16.5 -6.5t6.5 -16.5q0 -9 -6.5 -15.5t-16.5 -6.5q-9 0 -15.5 6.5t-6.5 15.5z" />
<glyph unicode="8" d="M15 137q0 10 6.5 16.5t15.5 6.5q10 0 16.5 -6.5t6.5 -16.5q0 -9 -6.5 -15.5t-16.5 -6.5q-9 0 -15.5 6.5t-6.5 15.5zM15 337q0 10 6.5 16.5t15.5 6.5q10 0 16.5 -6.5t6.5 -16.5q0 -9 -6.5 -15.5t-16.5 -6.5q-9 0 -15.5 6.5t-6.5 15.5zM115 37q0 10 6.5 16.5t15.5 6.5 q10 0 16.5 -6.5t6.5 -16.5q0 -9 -6.5 -15.5t-16.5 -6.5q-9 0 -15.5 6.5t-6.5 15.5zM115 237q0 10 6.5 16.5t15.5 6.5q10 0 16.5 -6.5t6.5 -16.5q0 -9 -6.5 -15.5t-16.5 -6.5q-9 0 -15.5 6.5t-6.5 15.5zM115 437q0 10 6.5 16.5t15.5 6.5q10 0 16.5 -6.5t6.5 -16.5 q0 -9 -6.5 -15.5t-16.5 -6.5q-9 0 -15.5 6.5t-6.5 15.5zM215 37q0 10 6.5 16.5t15.5 6.5q10 0 16.5 -6.5t6.5 -16.5q0 -9 -6.5 -15.5t-16.5 -6.5q-9 0 -15.5 6.5t-6.5 15.5zM215 237q0 10 6.5 16.5t15.5 6.5q10 0 16.5 -6.5t6.5 -16.5q0 -9 -6.5 -15.5t-16.5 -6.5 q-9 0 -15.5 6.5t-6.5 15.5zM215 437q0 10 6.5 16.5t15.5 6.5q10 0 16.5 -6.5t6.5 -16.5q0 -9 -6.5 -15.5t-16.5 -6.5q-9 0 -15.5 6.5t-6.5 15.5zM315 37q0 10 6.5 16.5t15.5 6.5q10 0 16.5 -6.5t6.5 -16.5q0 -9 -6.5 -15.5t-16.5 -6.5q-9 0 -15.5 6.5t-6.5 15.5zM315 237 q0 10 6.5 16.5t15.5 6.5q10 0 16.5 -6.5t6.5 -16.5q0 -9 -6.5 -15.5t-16.5 -6.5q-9 0 -15.5 6.5t-6.5 15.5zM315 437q0 10 6.5 16.5t15.5 6.5q10 0 16.5 -6.5t6.5 -16.5q0 -9 -6.5 -15.5t-16.5 -6.5q-9 0 -15.5 6.5t-6.5 15.5zM415 137q0 10 6.5 16.5t15.5 6.5 q10 0 16.5 -6.5t6.5 -16.5q0 -9 -6.5 -15.5t-16.5 -6.5q-9 0 -15.5 6.5t-6.5 15.5zM415 337q0 10 6.5 16.5t15.5 6.5q10 0 16.5 -6.5t6.5 -16.5q0 -9 -6.5 -15.5t-16.5 -6.5q-9 0 -15.5 6.5t-6.5 15.5z" />
<glyph unicode="9" d="M15 337q0 10 6.5 16.5t15.5 6.5q10 0 16.5 -6.5t6.5 -16.5q0 -9 -6.5 -15.5t-16.5 -6.5q-9 0 -15.5 6.5t-6.5 15.5zM115 37q0 10 6.5 16.5t15.5 6.5q10 0 16.5 -6.5t6.5 -16.5q0 -9 -6.5 -15.5t-16.5 -6.5q-9 0 -15.5 6.5t-6.5 15.5zM115 237q0 10 6.5 16.5t15.5 6.5 q10 0 16.5 -6.5t6.5 -16.5q0 -9 -6.5 -15.5t-16.5 -6.5q-9 0 -15.5 6.5t-6.5 15.5zM115 437q0 10 6.5 16.5t15.5 6.5q10 0 16.5 -6.5t6.5 -16.5q0 -9 -6.5 -15.5t-16.5 -6.5q-9 0 -15.5 6.5t-6.5 15.5zM215 37q0 10 6.5 16.5t15.5 6.5q10 0 16.5 -6.5t6.5 -16.5 q0 -9 -6.5 -15.5t-16.5 -6.5q-9 0 -15.5 6.5t-6.5 15.5zM215 237q0 10 6.5 16.5t15.5 6.5q10 0 16.5 -6.5t6.5 -16.5q0 -9 -6.5 -15.5t-16.5 -6.5q-9 0 -15.5 6.5t-6.5 15.5zM215 437q0 10 6.5 16.5t15.5 6.5q10 0 16.5 -6.5t6.5 -16.5q0 -9 -6.5 -15.5t-16.5 -6.5 q-9 0 -15.5 6.5t-6.5 15.5zM315 37q0 10 6.5 16.5t15.5 6.5q10 0 16.5 -6.5t6.5 -16.5q0 -9 -6.5 -15.5t-16.5 -6.5q-9 0 -15.5 6.5t-6.5 15.5zM315 237q0 10 6.5 16.5t15.5 6.5q10 0 16.5 -6.5t6.5 -16.5q0 -9 -6.5 -15.5t-16.5 -6.5q-9 0 -15.5 6.5t-6.5 15.5zM315 437 q0 10 6.5 16.5t15.5 6.5q10 0 16.5 -6.5t6.5 -16.5q0 -9 -6.5 -15.5t-16.5 -6.5q-9 0 -15.5 6.5t-6.5 15.5zM415 137q0 10 6.5 16.5t15.5 6.5q10 0 16.5 -6.5t6.5 -16.5q0 -9 -6.5 -15.5t-16.5 -6.5q-9 0 -15.5 6.5t-6.5 15.5zM415 237q0 10 6.5 16.5t15.5 6.5 q10 0 16.5 -6.5t6.5 -16.5q0 -9 -6.5 -15.5t-16.5 -6.5q-9 0 -15.5 6.5t-6.5 15.5zM415 337q0 10 6.5 16.5t15.5 6.5q10 0 16.5 -6.5t6.5 -16.5q0 -9 -6.5 -15.5t-16.5 -6.5q-9 0 -15.5 6.5t-6.5 15.5z" />
<glyph unicode=":" d="M215 37q0 10 6.5 16.5t15.5 6.5q10 0 16.5 -6.5t6.5 -16.5q0 -9 -6.5 -15.5t-16.5 -6.5q-9 0 -15.5 6.5t-6.5 15.5zM215 137q0 10 6.5 16.5t15.5 6.5q10 0 16.5 -6.5t6.5 -16.5q0 -9 -6.5 -15.5t-16.5 -6.5q-9 0 -15.5 6.5t-6.5 15.5zM215 337q0 10 6.5 16.5t15.5 6.5 q10 0 16.5 -6.5t6.5 -16.5q0 -9 -6.5 -15.5t-16.5 -6.5q-9 0 -15.5 6.5t-6.5 15.5zM215 437q0 10 6.5 16.5t15.5 6.5q10 0 16.5 -6.5t6.5 -16.5q0 -9 -6.5 -15.5t-16.5 -6.5q-9 0 -15.5 6.5t-6.5 15.5z" />
<glyph unicode=";" d="M115 -63q0 10 6.5 16.5t15.5 6.5q10 0 16.5 -6.5t6.5 -16.5q0 -9 -6.5 -15.5t-16.5 -6.5q-9 0 -15.5 6.5t-6.5 15.5zM215 37q0 10 6.5 16.5t15.5 6.5q10 0 16.5 -6.5t6.5 -16.5q0 -9 -6.5 -15.5t-16.5 -6.5q-9 0 -15.5 6.5t-6.5 15.5zM215 137q0 10 6.5 16.5t15.5 6.5 q10 0 16.5 -6.5t6.5 -16.5q0 -9 -6.5 -15.5t-16.5 -6.5q-9 0 -15.5 6.5t-6.5 15.5zM215 337q0 10 6.5 16.5t15.5 6.5q10 0 16.5 -6.5t6.5 -16.5q0 -9 -6.5 -15.5t-16.5 -6.5q-9 0 -15.5 6.5t-6.5 15.5zM215 437q0 10 6.5 16.5t15.5 6.5q10 0 16.5 -6.5t6.5 -16.5 q0 -9 -6.5 -15.5t-16.5 -6.5q-9 0 -15.5 6.5t-6.5 15.5z" />
<glyph unicode="&#x3c;" d="M115 237q0 10 6.5 16.5t15.5 6.5q10 0 16.5 -6.5t6.5 -16.5q0 -9 -6.5 -15.5t-16.5 -6.5q-9 0 -15.5 6.5t-6.5 15.5zM215 137q0 10 6.5 16.5t15.5 6.5q10 0 16.5 -6.5t6.5 -16.5q0 -9 -6.5 -15.5t-16.5 -6.5q-9 0 -15.5 6.5t-6.5 15.5zM215 337q0 10 6.5 16.5t15.5 6.5 q10 0 16.5 -6.5t6.5 -16.5q0 -9 -6.5 -15.5t-16.5 -6.5q-9 0 -15.5 6.5t-6.5 15.5zM315 37q0 10 6.5 16.5t15.5 6.5q10 0 16.5 -6.5t6.5 -16.5q0 -9 -6.5 -15.5t-16.5 -6.5q-9 0 -15.5 6.5t-6.5 15.5zM315 437q0 10 6.5 16.5t15.5 6.5q10 0 16.5 -6.5t6.5 -16.5 q0 -9 -6.5 -15.5t-16.5 -6.5q-9 0 -15.5 6.5t-6.5 15.5z" />
<glyph unicode="=" d="M15 137q0 10 6.5 16.5t15.5 6.5q10 0 16.5 -6.5t6.5 -16.5q0 -9 -6.5 -15.5t-16.5 -6.5q-9 0 -15.5 6.5t-6.5 15.5zM15 337q0 10 6.5 16.5t15.5 6.5q10 0 16.5 -6.5t6.5 -16.5q0 -9 -6.5 -15.5t-16.5 -6.5q-9 0 -15.5 6.5t-6.5 15.5zM115 137q0 10 6.5 16.5t15.5 6.5 q10 0 16.5 -6.5t6.5 -16.5q0 -9 -6.5 -15.5t-16.5 -6.5q-9 0 -15.5 6.5t-6.5 15.5zM115 337q0 10 6.5 16.5t15.5 6.5q10 0 16.5 -6.5t6.5 -16.5q0 -9 -6.5 -15.5t-16.5 -6.5q-9 0 -15.5 6.5t-6.5 15.5zM215 137q0 10 6.5 16.5t15.5 6.5q10 0 16.5 -6.5t6.5 -16.5 q0 -9 -6.5 -15.5t-16.5 -6.5q-9 0 -15.5 6.5t-6.5 15.5zM215 337q0 10 6.5 16.5t15.5 6.5q10 0 16.5 -6.5t6.5 -16.5q0 -9 -6.5 -15.5t-16.5 -6.5q-9 0 -15.5 6.5t-6.5 15.5zM315 137q0 10 6.5 16.5t15.5 6.5q10 0 16.5 -6.5t6.5 -16.5q0 -9 -6.5 -15.5t-16.5 -6.5 q-9 0 -15.5 6.5t-6.5 15.5zM315 337q0 10 6.5 16.5t15.5 6.5q10 0 16.5 -6.5t6.5 -16.5q0 -9 -6.5 -15.5t-16.5 -6.5q-9 0 -15.5 6.5t-6.5 15.5zM415 137q0 10 6.5 16.5t15.5 6.5q10 0 16.5 -6.5t6.5 -16.5q0 -9 -6.5 -15.5t-16.5 -6.5q-9 0 -15.5 6.5t-6.5 15.5zM415 337 q0 10 6.5 16.5t15.5 6.5q10 0 16.5 -6.5t6.5 -16.5q0 -9 -6.5 -15.5t-16.5 -6.5q-9 0 -15.5 6.5t-6.5 15.5z" />
<glyph unicode="&#x3e;" d="M215 37q0 10 6.5 16.5t15.5 6.5q10 0 16.5 -6.5t6.5 -16.5q0 -9 -6.5 -15.5t-16.5 -6.5q-9 0 -15.5 6.5t-6.5 15.5zM215 437q0 10 6.5 16.5t15.5 6.5q10 0 16.5 -6.5t6.5 -16.5q0 -9 -6.5 -15.5t-16.5 -6.5q-9 0 -15.5 6.5t-6.5 15.5zM315 137q0 10 6.5 16.5t15.5 6.5 q10 0 16.5 -6.5t6.5 -16.5q0 -9 -6.5 -15.5t-16.5 -6.5q-9 0 -15.5 6.5t-6.5 15.5zM315 337q0 10 6.5 16.5t15.5 6.5q10 0 16.5 -6.5t6.5 -16.5q0 -9 -6.5 -15.5t-16.5 -6.5q-9 0 -15.5 6.5t-6.5 15.5zM415 237q0 10 6.5 16.5t15.5 6.5q10 0 16.5 -6.5t6.5 -16.5 q0 -9 -6.5 -15.5t-16.5 -6.5q-9 0 -15.5 6.5t-6.5 15.5z" />
<glyph unicode="?" d="M15 337q0 10 6.5 16.5t15.5 6.5q10 0 16.5 -6.5t6.5 -16.5q0 -9 -6.5 -15.5t-16.5 -6.5q-9 0 -15.5 6.5t-6.5 15.5zM115 437q0 10 6.5 16.5t15.5 6.5q10 0 16.5 -6.5t6.5 -16.5q0 -9 -6.5 -15.5t-16.5 -6.5q-9 0 -15.5 6.5t-6.5 15.5zM215 37q0 10 6.5 16.5t15.5 6.5 q10 0 16.5 -6.5t6.5 -16.5q0 -9 -6.5 -15.5t-16.5 -6.5q-9 0 -15.5 6.5t-6.5 15.5zM215 237q0 10 6.5 16.5t15.5 6.5q10 0 16.5 -6.5t6.5 -16.5q0 -9 -6.5 -15.5t-16.5 -6.5q-9 0 -15.5 6.5t-6.5 15.5zM215 437q0 10 6.5 16.5t15.5 6.5q10 0 16.5 -6.5t6.5 -16.5 q0 -9 -6.5 -15.5t-16.5 -6.5q-9 0 -15.5 6.5t-6.5 15.5zM315 237q0 10 6.5 16.5t15.5 6.5q10 0 16.5 -6.5t6.5 -16.5q0 -9 -6.5 -15.5t-16.5 -6.5q-9 0 -15.5 6.5t-6.5 15.5zM315 437q0 10 6.5 16.5t15.5 6.5q10 0 16.5 -6.5t6.5 -16.5q0 -9 -6.5 -15.5t-16.5 -6.5 q-9 0 -15.5 6.5t-6.5 15.5zM415 337q0 10 6.5 16.5t15.5 6.5q10 0 16.5 -6.5t6.5 -16.5q0 -9 -6.5 -15.5t-16.5 -6.5q-9 0 -15.5 6.5t-6.5 15.5z" />
<glyph unicode="@" d="M15 37q0 10 6.5 16.5t15.5 6.5q10 0 16.5 -6.5t6.5 -16.5q0 -9 -6.5 -15.5t-16.5 -6.5q-9 0 -15.5 6.5t-6.5 15.5zM15 137q0 10 6.5 16.5t15.5 6.5q10 0 16.5 -6.5t6.5 -16.5q0 -9 -6.5 -15.5t-16.5 -6.5q-9 0 -15.5 6.5t-6.5 15.5zM15 237q0 10 6.5 16.5t15.5 6.5 q10 0 16.5 -6.5t6.5 -16.5q0 -9 -6.5 -15.5t-16.5 -6.5q-9 0 -15.5 6.5t-6.5 15.5zM15 337q0 10 6.5 16.5t15.5 6.5q10 0 16.5 -6.5t6.5 -16.5q0 -9 -6.5 -15.5t-16.5 -6.5q-9 0 -15.5 6.5t-6.5 15.5zM15 437q0 10 6.5 16.5t15.5 6.5q10 0 16.5 -6.5t6.5 -16.5 q0 -9 -6.5 -15.5t-16.5 -6.5q-9 0 -15.5 6.5t-6.5 15.5zM115 -63q0 10 6.5 16.5t15.5 6.5q10 0 16.5 -6.5t6.5 -16.5q0 -9 -6.5 -15.5t-16.5 -6.5q-9 0 -15.5 6.5t-6.5 15.5zM115 137q0 10 6.5 16.5t15.5 6.5q10 0 16.5 -6.5t6.5 -16.5q0 -9 -6.5 -15.5t-16.5 -6.5 q-9 0 -15.5 6.5t-6.5 15.5zM115 237q0 10 6.5 16.5t15.5 6.5q10 0 16.5 -6.5t6.5 -16.5q0 -9 -6.5 -15.5t-16.5 -6.5q-9 0 -15.5 6.5t-6.5 15.5zM115 537q0 10 6.5 16.5t15.5 6.5q10 0 16.5 -6.5t6.5 -16.5q0 -9 -6.5 -15.5t-16.5 -6.5q-9 0 -15.5 6.5t-6.5 15.5zM215 -63 q0 10 6.5 16.5t15.5 6.5q10 0 16.5 -6.5t6.5 -16.5q0 -9 -6.5 -15.5t-16.5 -6.5q-9 0 -15.5 6.5t-6.5 15.5zM215 137q0 10 6.5 16.5t15.5 6.5q10 0 16.5 -6.5t6.5 -16.5q0 -9 -6.5 -15.5t-16.5 -6.5q-9 0 -15.5 6.5t-6.5 15.5zM215 337q0 10 6.5 16.5t15.5 6.5 q10 0 16.5 -6.5t6.5 -16.5q0 -9 -6.5 -15.5t-16.5 -6.5q-9 0 -15.5 6.5t-6.5 15.5zM215 537q0 10 6.5 16.5t15.5 6.5q10 0 16.5 -6.5t6.5 -16.5q0 -9 -6.5 -15.5t-16.5 -6.5q-9 0 -15.5 6.5t-6.5 15.5zM315 -63q0 10 6.5 16.5t15.5 6.5q10 0 16.5 -6.5t6.5 -16.5 q0 -9 -6.5 -15.5t-16.5 -6.5q-9 0 -15.5 6.5t-6.5 15.5zM315 137q0 10 6.5 16.5t15.5 6.5q10 0 16.5 -6.5t6.5 -16.5q0 -9 -6.5 -15.5t-16.5 -6.5q-9 0 -15.5 6.5t-6.5 15.5zM315 237q0 10 6.5 16.5t15.5 6.5q10 0 16.5 -6.5t6.5 -16.5q0 -9 -6.5 -15.5t-16.5 -6.5 q-9 0 -15.5 6.5t-6.5 15.5zM315 337q0 10 6.5 16.5t15.5 6.5q10 0 16.5 -6.5t6.5 -16.5q0 -9 -6.5 -15.5t-16.5 -6.5q-9 0 -15.5 6.5t-6.5 15.5zM315 537q0 10 6.5 16.5t15.5 6.5q10 0 16.5 -6.5t6.5 -16.5q0 -9 -6.5 -15.5t-16.5 -6.5q-9 0 -15.5 6.5t-6.5 15.5zM415 -63 q0 10 6.5 16.5t15.5 6.5q10 0 16.5 -6.5t6.5 -16.5q0 -9 -6.5 -15.5t-16.5 -6.5q-9 0 -15.5 6.5t-6.5 15.5zM415 137q0 10 6.5 16.5t15.5 6.5q10 0 16.5 -6.5t6.5 -16.5q0 -9 -6.5 -15.5t-16.5 -6.5q-9 0 -15.5 6.5t-6.5 15.5zM415 237q0 10 6.5 16.5t15.5 6.5 q10 0 16.5 -6.5t6.5 -16.5q0 -9 -6.5 -15.5t-16.5 -6.5q-9 0 -15.5 6.5t-6.5 15.5zM415 337q0 10 6.5 16.5t15.5 6.5q10 0 16.5 -6.5t6.5 -16.5q0 -9 -6.5 -15.5t-16.5 -6.5q-9 0 -15.5 6.5t-6.5 15.5zM415 437q0 10 6.5 16.5t15.5 6.5q10 0 16.5 -6.5t6.5 -16.5 q0 -9 -6.5 -15.5t-16.5 -6.5q-9 0 -15.5 6.5t-6.5 15.5z" />
<glyph unicode="A" d="M15 37q0 10 6.5 16.5t15.5 6.5q10 0 16.5 -6.5t6.5 -16.5q0 -9 -6.5 -15.5t-16.5 -6.5q-9 0 -15.5 6.5t-6.5 15.5zM15 137q0 10 6.5 16.5t15.5 6.5q10 0 16.5 -6.5t6.5 -16.5q0 -9 -6.5 -15.5t-16.5 -6.5q-9 0 -15.5 6.5t-6.5 15.5zM15 237q0 10 6.5 16.5t15.5 6.5 q10 0 16.5 -6.5t6.5 -16.5q0 -9 -6.5 -15.5t-16.5 -6.5q-9 0 -15.5 6.5t-6.5 15.5zM15 337q0 10 6.5 16.5t15.5 6.5q10 0 16.5 -6.5t6.5 -16.5q0 -9 -6.5 -15.5t-16.5 -6.5q-9 0 -15.5 6.5t-6.5 15.5zM115 237q0 10 6.5 16.5t15.5 6.5q10 0 16.5 -6.5t6.5 -16.5 q0 -9 -6.5 -15.5t-16.5 -6.5q-9 0 -15.5 6.5t-6.5 15.5zM115 437q0 10 6.5 16.5t15.5 6.5q10 0 16.5 -6.5t6.5 -16.5q0 -9 -6.5 -15.5t-16.5 -6.5q-9 0 -15.5 6.5t-6.5 15.5zM215 237q0 10 6.5 16.5t15.5 6.5q10 0 16.5 -6.5t6.5 -16.5q0 -9 -6.5 -15.5t-16.5 -6.5 q-9 0 -15.5 6.5t-6.5 15.5zM215 437q0 10 6.5 16.5t15.5 6.5q10 0 16.5 -6.5t6.5 -16.5q0 -9 -6.5 -15.5t-16.5 -6.5q-9 0 -15.5 6.5t-6.5 15.5zM315 237q0 10 6.5 16.5t15.5 6.5q10 0 16.5 -6.5t6.5 -16.5q0 -9 -6.5 -15.5t-16.5 -6.5q-9 0 -15.5 6.5t-6.5 15.5zM315 437 q0 10 6.5 16.5t15.5 6.5q10 0 16.5 -6.5t6.5 -16.5q0 -9 -6.5 -15.5t-16.5 -6.5q-9 0 -15.5 6.5t-6.5 15.5zM415 37q0 10 6.5 16.5t15.5 6.5q10 0 16.5 -6.5t6.5 -16.5q0 -9 -6.5 -15.5t-16.5 -6.5q-9 0 -15.5 6.5t-6.5 15.5zM415 137q0 10 6.5 16.5t15.5 6.5 q10 0 16.5 -6.5t6.5 -16.5q0 -9 -6.5 -15.5t-16.5 -6.5q-9 0 -15.5 6.5t-6.5 15.5zM415 237q0 10 6.5 16.5t15.5 6.5q10 0 16.5 -6.5t6.5 -16.5q0 -9 -6.5 -15.5t-16.5 -6.5q-9 0 -15.5 6.5t-6.5 15.5zM415 337q0 10 6.5 16.5t15.5 6.5q10 0 16.5 -6.5t6.5 -16.5 q0 -9 -6.5 -15.5t-16.5 -6.5q-9 0 -15.5 6.5t-6.5 15.5z" />
<glyph unicode="B" d="M15 37q0 10 6.5 16.5t15.5 6.5q10 0 16.5 -6.5t6.5 -16.5q0 -9 -6.5 -15.5t-16.5 -6.5q-9 0 -15.5 6.5t-6.5 15.5zM15 137q0 10 6.5 16.5t15.5 6.5q10 0 16.5 -6.5t6.5 -16.5q0 -9 -6.5 -15.5t-16.5 -6.5q-9 0 -15.5 6.5t-6.5 15.5zM15 237q0 10 6.5 16.5t15.5 6.5 q10 0 16.5 -6.5t6.5 -16.5q0 -9 -6.5 -15.5t-16.5 -6.5q-9 0 -15.5 6.5t-6.5 15.5zM15 337q0 10 6.5 16.5t15.5 6.5q10 0 16.5 -6.5t6.5 -16.5q0 -9 -6.5 -15.5t-16.5 -6.5q-9 0 -15.5 6.5t-6.5 15.5zM15 437q0 10 6.5 16.5t15.5 6.5q10 0 16.5 -6.5t6.5 -16.5 q0 -9 -6.5 -15.5t-16.5 -6.5q-9 0 -15.5 6.5t-6.5 15.5zM115 37q0 10 6.5 16.5t15.5 6.5q10 0 16.5 -6.5t6.5 -16.5q0 -9 -6.5 -15.5t-16.5 -6.5q-9 0 -15.5 6.5t-6.5 15.5zM115 237q0 10 6.5 16.5t15.5 6.5q10 0 16.5 -6.5t6.5 -16.5q0 -9 -6.5 -15.5t-16.5 -6.5 q-9 0 -15.5 6.5t-6.5 15.5zM115 437q0 10 6.5 16.5t15.5 6.5q10 0 16.5 -6.5t6.5 -16.5q0 -9 -6.5 -15.5t-16.5 -6.5q-9 0 -15.5 6.5t-6.5 15.5zM215 37q0 10 6.5 16.5t15.5 6.5q10 0 16.5 -6.5t6.5 -16.5q0 -9 -6.5 -15.5t-16.5 -6.5q-9 0 -15.5 6.5t-6.5 15.5zM215 237 q0 10 6.5 16.5t15.5 6.5q10 0 16.5 -6.5t6.5 -16.5q0 -9 -6.5 -15.5t-16.5 -6.5q-9 0 -15.5 6.5t-6.5 15.5zM215 437q0 10 6.5 16.5t15.5 6.5q10 0 16.5 -6.5t6.5 -16.5q0 -9 -6.5 -15.5t-16.5 -6.5q-9 0 -15.5 6.5t-6.5 15.5zM315 37q0 10 6.5 16.5t15.5 6.5 q10 0 16.5 -6.5t6.5 -16.5q0 -9 -6.5 -15.5t-16.5 -6.5q-9 0 -15.5 6.5t-6.5 15.5zM315 237q0 10 6.5 16.5t15.5 6.5q10 0 16.5 -6.5t6.5 -16.5q0 -9 -6.5 -15.5t-16.5 -6.5q-9 0 -15.5 6.5t-6.5 15.5zM315 437q0 10 6.5 16.5t15.5 6.5q10 0 16.5 -6.5t6.5 -16.5 q0 -9 -6.5 -15.5t-16.5 -6.5q-9 0 -15.5 6.5t-6.5 15.5zM415 137q0 10 6.5 16.5t15.5 6.5q10 0 16.5 -6.5t6.5 -16.5q0 -9 -6.5 -15.5t-16.5 -6.5q-9 0 -15.5 6.5t-6.5 15.5zM415 337q0 10 6.5 16.5t15.5 6.5q10 0 16.5 -6.5t6.5 -16.5q0 -9 -6.5 -15.5t-16.5 -6.5 q-9 0 -15.5 6.5t-6.5 15.5z" />
<glyph unicode="C" d="M15 137q0 10 6.5 16.5t15.5 6.5q10 0 16.5 -6.5t6.5 -16.5q0 -9 -6.5 -15.5t-16.5 -6.5q-9 0 -15.5 6.5t-6.5 15.5zM15 237q0 10 6.5 16.5t15.5 6.5q10 0 16.5 -6.5t6.5 -16.5q0 -9 -6.5 -15.5t-16.5 -6.5q-9 0 -15.5 6.5t-6.5 15.5zM15 337q0 10 6.5 16.5t15.5 6.5 q10 0 16.5 -6.5t6.5 -16.5q0 -9 -6.5 -15.5t-16.5 -6.5q-9 0 -15.5 6.5t-6.5 15.5zM115 37q0 10 6.5 16.5t15.5 6.5q10 0 16.5 -6.5t6.5 -16.5q0 -9 -6.5 -15.5t-16.5 -6.5q-9 0 -15.5 6.5t-6.5 15.5zM115 437q0 10 6.5 16.5t15.5 6.5q10 0 16.5 -6.5t6.5 -16.5 q0 -9 -6.5 -15.5t-16.5 -6.5q-9 0 -15.5 6.5t-6.5 15.5zM215 37q0 10 6.5 16.5t15.5 6.5q10 0 16.5 -6.5t6.5 -16.5q0 -9 -6.5 -15.5t-16.5 -6.5q-9 0 -15.5 6.5t-6.5 15.5zM215 437q0 10 6.5 16.5t15.5 6.5q10 0 16.5 -6.5t6.5 -16.5q0 -9 -6.5 -15.5t-16.5 -6.5 q-9 0 -15.5 6.5t-6.5 15.5zM315 37q0 10 6.5 16.5t15.5 6.5q10 0 16.5 -6.5t6.5 -16.5q0 -9 -6.5 -15.5t-16.5 -6.5q-9 0 -15.5 6.5t-6.5 15.5zM315 437q0 10 6.5 16.5t15.5 6.5q10 0 16.5 -6.5t6.5 -16.5q0 -9 -6.5 -15.5t-16.5 -6.5q-9 0 -15.5 6.5t-6.5 15.5zM415 37 q0 10 6.5 16.5t15.5 6.5q10 0 16.5 -6.5t6.5 -16.5q0 -9 -6.5 -15.5t-16.5 -6.5q-9 0 -15.5 6.5t-6.5 15.5zM415 437q0 10 6.5 16.5t15.5 6.5q10 0 16.5 -6.5t6.5 -16.5q0 -9 -6.5 -15.5t-16.5 -6.5q-9 0 -15.5 6.5t-6.5 15.5z" />
<glyph unicode="D" d="M15 37q0 10 6.5 16.5t15.5 6.5q10 0 16.5 -6.5t6.5 -16.5q0 -9 -6.5 -15.5t-16.5 -6.5q-9 0 -15.5 6.5t-6.5 15.5zM15 137q0 10 6.5 16.5t15.5 6.5q10 0 16.5 -6.5t6.5 -16.5q0 -9 -6.5 -15.5t-16.5 -6.5q-9 0 -15.5 6.5t-6.5 15.5zM15 237q0 10 6.5 16.5t15.5 6.5 q10 0 16.5 -6.5t6.5 -16.5q0 -9 -6.5 -15.5t-16.5 -6.5q-9 0 -15.5 6.5t-6.5 15.5zM15 337q0 10 6.5 16.5t15.5 6.5q10 0 16.5 -6.5t6.5 -16.5q0 -9 -6.5 -15.5t-16.5 -6.5q-9 0 -15.5 6.5t-6.5 15.5zM15 437q0 10 6.5 16.5t15.5 6.5q10 0 16.5 -6.5t6.5 -16.5 q0 -9 -6.5 -15.5t-16.5 -6.5q-9 0 -15.5 6.5t-6.5 15.5zM115 37q0 10 6.5 16.5t15.5 6.5q10 0 16.5 -6.5t6.5 -16.5q0 -9 -6.5 -15.5t-16.5 -6.5q-9 0 -15.5 6.5t-6.5 15.5zM115 437q0 10 6.5 16.5t15.5 6.5q10 0 16.5 -6.5t6.5 -16.5q0 -9 -6.5 -15.5t-16.5 -6.5 q-9 0 -15.5 6.5t-6.5 15.5zM215 37q0 10 6.5 16.5t15.5 6.5q10 0 16.5 -6.5t6.5 -16.5q0 -9 -6.5 -15.5t-16.5 -6.5q-9 0 -15.5 6.5t-6.5 15.5zM215 437q0 10 6.5 16.5t15.5 6.5q10 0 16.5 -6.5t6.5 -16.5q0 -9 -6.5 -15.5t-16.5 -6.5q-9 0 -15.5 6.5t-6.5 15.5zM315 37 q0 10 6.5 16.5t15.5 6.5q10 0 16.5 -6.5t6.5 -16.5q0 -9 -6.5 -15.5t-16.5 -6.5q-9 0 -15.5 6.5t-6.5 15.5zM315 437q0 10 6.5 16.5t15.5 6.5q10 0 16.5 -6.5t6.5 -16.5q0 -9 -6.5 -15.5t-16.5 -6.5q-9 0 -15.5 6.5t-6.5 15.5zM415 137q0 10 6.5 16.5t15.5 6.5 q10 0 16.5 -6.5t6.5 -16.5q0 -9 -6.5 -15.5t-16.5 -6.5q-9 0 -15.5 6.5t-6.5 15.5zM415 237q0 10 6.5 16.5t15.5 6.5q10 0 16.5 -6.5t6.5 -16.5q0 -9 -6.5 -15.5t-16.5 -6.5q-9 0 -15.5 6.5t-6.5 15.5zM415 337q0 10 6.5 16.5t15.5 6.5q10 0 16.5 -6.5t6.5 -16.5 q0 -9 -6.5 -15.5t-16.5 -6.5q-9 0 -15.5 6.5t-6.5 15.5z" />
<glyph unicode="E" d="M15 37q0 10 6.5 16.5t15.5 6.5q10 0 16.5 -6.5t6.5 -16.5q0 -9 -6.5 -15.5t-16.5 -6.5q-9 0 -15.5 6.5t-6.5 15.5zM15 137q0 10 6.5 16.5t15.5 6.5q10 0 16.5 -6.5t6.5 -16.5q0 -9 -6.5 -15.5t-16.5 -6.5q-9 0 -15.5 6.5t-6.5 15.5zM15 237q0 10 6.5 16.5t15.5 6.5 q10 0 16.5 -6.5t6.5 -16.5q0 -9 -6.5 -15.5t-16.5 -6.5q-9 0 -15.5 6.5t-6.5 15.5zM15 337q0 10 6.5 16.5t15.5 6.5q10 0 16.5 -6.5t6.5 -16.5q0 -9 -6.5 -15.5t-16.5 -6.5q-9 0 -15.5 6.5t-6.5 15.5zM15 437q0 10 6.5 16.5t15.5 6.5q10 0 16.5 -6.5t6.5 -16.5 q0 -9 -6.5 -15.5t-16.5 -6.5q-9 0 -15.5 6.5t-6.5 15.5zM115 37q0 10 6.5 16.5t15.5 6.5q10 0 16.5 -6.5t6.5 -16.5q0 -9 -6.5 -15.5t-16.5 -6.5q-9 0 -15.5 6.5t-6.5 15.5zM115 237q0 10 6.5 16.5t15.5 6.5q10 0 16.5 -6.5t6.5 -16.5q0 -9 -6.5 -15.5t-16.5 -6.5 q-9 0 -15.5 6.5t-6.5 15.5zM115 437q0 10 6.5 16.5t15.5 6.5q10 0 16.5 -6.5t6.5 -16.5q0 -9 -6.5 -15.5t-16.5 -6.5q-9 0 -15.5 6.5t-6.5 15.5zM215 37q0 10 6.5 16.5t15.5 6.5q10 0 16.5 -6.5t6.5 -16.5q0 -9 -6.5 -15.5t-16.5 -6.5q-9 0 -15.5 6.5t-6.5 15.5zM215 237 q0 10 6.5 16.5t15.5 6.5q10 0 16.5 -6.5t6.5 -16.5q0 -9 -6.5 -15.5t-16.5 -6.5q-9 0 -15.5 6.5t-6.5 15.5zM215 437q0 10 6.5 16.5t15.5 6.5q10 0 16.5 -6.5t6.5 -16.5q0 -9 -6.5 -15.5t-16.5 -6.5q-9 0 -15.5 6.5t-6.5 15.5zM315 37q0 10 6.5 16.5t15.5 6.5 q10 0 16.5 -6.5t6.5 -16.5q0 -9 -6.5 -15.5t-16.5 -6.5q-9 0 -15.5 6.5t-6.5 15.5zM315 237q0 10 6.5 16.5t15.5 6.5q10 0 16.5 -6.5t6.5 -16.5q0 -9 -6.5 -15.5t-16.5 -6.5q-9 0 -15.5 6.5t-6.5 15.5zM315 437q0 10 6.5 16.5t15.5 6.5q10 0 16.5 -6.5t6.5 -16.5 q0 -9 -6.5 -15.5t-16.5 -6.5q-9 0 -15.5 6.5t-6.5 15.5zM415 37q0 10 6.5 16.5t15.5 6.5q10 0 16.5 -6.5t6.5 -16.5q0 -9 -6.5 -15.5t-16.5 -6.5q-9 0 -15.5 6.5t-6.5 15.5zM415 437q0 10 6.5 16.5t15.5 6.5q10 0 16.5 -6.5t6.5 -16.5q0 -9 -6.5 -15.5t-16.5 -6.5 q-9 0 -15.5 6.5t-6.5 15.5z" />
<glyph unicode="F" d="M15 37q0 10 6.5 16.5t15.5 6.5q10 0 16.5 -6.5t6.5 -16.5q0 -9 -6.5 -15.5t-16.5 -6.5q-9 0 -15.5 6.5t-6.5 15.5zM15 137q0 10 6.5 16.5t15.5 6.5q10 0 16.5 -6.5t6.5 -16.5q0 -9 -6.5 -15.5t-16.5 -6.5q-9 0 -15.5 6.5t-6.5 15.5zM15 237q0 10 6.5 16.5t15.5 6.5 q10 0 16.5 -6.5t6.5 -16.5q0 -9 -6.5 -15.5t-16.5 -6.5q-9 0 -15.5 6.5t-6.5 15.5zM15 337q0 10 6.5 16.5t15.5 6.5q10 0 16.5 -6.5t6.5 -16.5q0 -9 -6.5 -15.5t-16.5 -6.5q-9 0 -15.5 6.5t-6.5 15.5zM15 437q0 10 6.5 16.5t15.5 6.5q10 0 16.5 -6.5t6.5 -16.5 q0 -9 -6.5 -15.5t-16.5 -6.5q-9 0 -15.5 6.5t-6.5 15.5zM115 237q0 10 6.5 16.5t15.5 6.5q10 0 16.5 -6.5t6.5 -16.5q0 -9 -6.5 -15.5t-16.5 -6.5q-9 0 -15.5 6.5t-6.5 15.5zM115 437q0 10 6.5 16.5t15.5 6.5q10 0 16.5 -6.5t6.5 -16.5q0 -9 -6.5 -15.5t-16.5 -6.5 q-9 0 -15.5 6.5t-6.5 15.5zM215 237q0 10 6.5 16.5t15.5 6.5q10 0 16.5 -6.5t6.5 -16.5q0 -9 -6.5 -15.5t-16.5 -6.5q-9 0 -15.5 6.5t-6.5 15.5zM215 437q0 10 6.5 16.5t15.5 6.5q10 0 16.5 -6.5t6.5 -16.5q0 -9 -6.5 -15.5t-16.5 -6.5q-9 0 -15.5 6.5t-6.5 15.5zM315 237 q0 10 6.5 16.5t15.5 6.5q10 0 16.5 -6.5t6.5 -16.5q0 -9 -6.5 -15.5t-16.5 -6.5q-9 0 -15.5 6.5t-6.5 15.5zM315 437q0 10 6.5 16.5t15.5 6.5q10 0 16.5 -6.5t6.5 -16.5q0 -9 -6.5 -15.5t-16.5 -6.5q-9 0 -15.5 6.5t-6.5 15.5zM415 437q0 10 6.5 16.5t15.5 6.5 q10 0 16.5 -6.5t6.5 -16.5q0 -9 -6.5 -15.5t-16.5 -6.5q-9 0 -15.5 6.5t-6.5 15.5z" />
<glyph unicode="G" d="M15 137q0 10 6.5 16.5t15.5 6.5q10 0 16.5 -6.5t6.5 -16.5q0 -9 -6.5 -15.5t-16.5 -6.5q-9 0 -15.5 6.5t-6.5 15.5zM15 237q0 10 6.5 16.5t15.5 6.5q10 0 16.5 -6.5t6.5 -16.5q0 -9 -6.5 -15.5t-16.5 -6.5q-9 0 -15.5 6.5t-6.5 15.5zM15 337q0 10 6.5 16.5t15.5 6.5 q10 0 16.5 -6.5t6.5 -16.5q0 -9 -6.5 -15.5t-16.5 -6.5q-9 0 -15.5 6.5t-6.5 15.5zM115 37q0 10 6.5 16.5t15.5 6.5q10 0 16.5 -6.5t6.5 -16.5q0 -9 -6.5 -15.5t-16.5 -6.5q-9 0 -15.5 6.5t-6.5 15.5zM115 437q0 10 6.5 16.5t15.5 6.5q10 0 16.5 -6.5t6.5 -16.5 q0 -9 -6.5 -15.5t-16.5 -6.5q-9 0 -15.5 6.5t-6.5 15.5zM215 37q0 10 6.5 16.5t15.5 6.5q10 0 16.5 -6.5t6.5 -16.5q0 -9 -6.5 -15.5t-16.5 -6.5q-9 0 -15.5 6.5t-6.5 15.5zM215 437q0 10 6.5 16.5t15.5 6.5q10 0 16.5 -6.5t6.5 -16.5q0 -9 -6.5 -15.5t-16.5 -6.5 q-9 0 -15.5 6.5t-6.5 15.5zM315 37q0 10 6.5 16.5t15.5 6.5q10 0 16.5 -6.5t6.5 -16.5q0 -9 -6.5 -15.5t-16.5 -6.5q-9 0 -15.5 6.5t-6.5 15.5zM315 237q0 10 6.5 16.5t15.5 6.5q10 0 16.5 -6.5t6.5 -16.5q0 -9 -6.5 -15.5t-16.5 -6.5q-9 0 -15.5 6.5t-6.5 15.5zM315 437 q0 10 6.5 16.5t15.5 6.5q10 0 16.5 -6.5t6.5 -16.5q0 -9 -6.5 -15.5t-16.5 -6.5q-9 0 -15.5 6.5t-6.5 15.5zM415 37q0 10 6.5 16.5t15.5 6.5q10 0 16.5 -6.5t6.5 -16.5q0 -9 -6.5 -15.5t-16.5 -6.5q-9 0 -15.5 6.5t-6.5 15.5zM415 137q0 10 6.5 16.5t15.5 6.5 q10 0 16.5 -6.5t6.5 -16.5q0 -9 -6.5 -15.5t-16.5 -6.5q-9 0 -15.5 6.5t-6.5 15.5zM415 237q0 10 6.5 16.5t15.5 6.5q10 0 16.5 -6.5t6.5 -16.5q0 -9 -6.5 -15.5t-16.5 -6.5q-9 0 -15.5 6.5t-6.5 15.5zM415 437q0 10 6.5 16.5t15.5 6.5q10 0 16.5 -6.5t6.5 -16.5 q0 -9 -6.5 -15.5t-16.5 -6.5q-9 0 -15.5 6.5t-6.5 15.5z" />
<glyph unicode="H" d="M15 37q0 10 6.5 16.5t15.5 6.5q10 0 16.5 -6.5t6.5 -16.5q0 -9 -6.5 -15.5t-16.5 -6.5q-9 0 -15.5 6.5t-6.5 15.5zM15 137q0 10 6.5 16.5t15.5 6.5q10 0 16.5 -6.5t6.5 -16.5q0 -9 -6.5 -15.5t-16.5 -6.5q-9 0 -15.5 6.5t-6.5 15.5zM15 237q0 10 6.5 16.5t15.5 6.5 q10 0 16.5 -6.5t6.5 -16.5q0 -9 -6.5 -15.5t-16.5 -6.5q-9 0 -15.5 6.5t-6.5 15.5zM15 337q0 10 6.5 16.5t15.5 6.5q10 0 16.5 -6.5t6.5 -16.5q0 -9 -6.5 -15.5t-16.5 -6.5q-9 0 -15.5 6.5t-6.5 15.5zM15 437q0 10 6.5 16.5t15.5 6.5q10 0 16.5 -6.5t6.5 -16.5 q0 -9 -6.5 -15.5t-16.5 -6.5q-9 0 -15.5 6.5t-6.5 15.5zM115 237q0 10 6.5 16.5t15.5 6.5q10 0 16.5 -6.5t6.5 -16.5q0 -9 -6.5 -15.5t-16.5 -6.5q-9 0 -15.5 6.5t-6.5 15.5zM215 237q0 10 6.5 16.5t15.5 6.5q10 0 16.5 -6.5t6.5 -16.5q0 -9 -6.5 -15.5t-16.5 -6.5 q-9 0 -15.5 6.5t-6.5 15.5zM315 237q0 10 6.5 16.5t15.5 6.5q10 0 16.5 -6.5t6.5 -16.5q0 -9 -6.5 -15.5t-16.5 -6.5q-9 0 -15.5 6.5t-6.5 15.5zM415 37q0 10 6.5 16.5t15.5 6.5q10 0 16.5 -6.5t6.5 -16.5q0 -9 -6.5 -15.5t-16.5 -6.5q-9 0 -15.5 6.5t-6.5 15.5zM415 137 q0 10 6.5 16.5t15.5 6.5q10 0 16.5 -6.5t6.5 -16.5q0 -9 -6.5 -15.5t-16.5 -6.5q-9 0 -15.5 6.5t-6.5 15.5zM415 237q0 10 6.5 16.5t15.5 6.5q10 0 16.5 -6.5t6.5 -16.5q0 -9 -6.5 -15.5t-16.5 -6.5q-9 0 -15.5 6.5t-6.5 15.5zM415 337q0 10 6.5 16.5t15.5 6.5 q10 0 16.5 -6.5t6.5 -16.5q0 -9 -6.5 -15.5t-16.5 -6.5q-9 0 -15.5 6.5t-6.5 15.5zM415 437q0 10 6.5 16.5t15.5 6.5q10 0 16.5 -6.5t6.5 -16.5q0 -9 -6.5 -15.5t-16.5 -6.5q-9 0 -15.5 6.5t-6.5 15.5z" />
<glyph unicode="I" d="M15 37q0 10 6.5 16.5t15.5 6.5q10 0 16.5 -6.5t6.5 -16.5q0 -9 -6.5 -15.5t-16.5 -6.5q-9 0 -15.5 6.5t-6.5 15.5zM15 437q0 10 6.5 16.5t15.5 6.5q10 0 16.5 -6.5t6.5 -16.5q0 -9 -6.5 -15.5t-16.5 -6.5q-9 0 -15.5 6.5t-6.5 15.5zM115 37q0 10 6.5 16.5t15.5 6.5 q10 0 16.5 -6.5t6.5 -16.5q0 -9 -6.5 -15.5t-16.5 -6.5q-9 0 -15.5 6.5t-6.5 15.5zM115 437q0 10 6.5 16.5t15.5 6.5q10 0 16.5 -6.5t6.5 -16.5q0 -9 -6.5 -15.5t-16.5 -6.5q-9 0 -15.5 6.5t-6.5 15.5zM215 37q0 10 6.5 16.5t15.5 6.5q10 0 16.5 -6.5t6.5 -16.5 q0 -9 -6.5 -15.5t-16.5 -6.5q-9 0 -15.5 6.5t-6.5 15.5zM215 137q0 10 6.5 16.5t15.5 6.5q10 0 16.5 -6.5t6.5 -16.5q0 -9 -6.5 -15.5t-16.5 -6.5q-9 0 -15.5 6.5t-6.5 15.5zM215 237q0 10 6.5 16.5t15.5 6.5q10 0 16.5 -6.5t6.5 -16.5q0 -9 -6.5 -15.5t-16.5 -6.5 q-9 0 -15.5 6.5t-6.5 15.5zM215 337q0 10 6.5 16.5t15.5 6.5q10 0 16.5 -6.5t6.5 -16.5q0 -9 -6.5 -15.5t-16.5 -6.5q-9 0 -15.5 6.5t-6.5 15.5zM215 437q0 10 6.5 16.5t15.5 6.5q10 0 16.5 -6.5t6.5 -16.5q0 -9 -6.5 -15.5t-16.5 -6.5q-9 0 -15.5 6.5t-6.5 15.5zM315 37 q0 10 6.5 16.5t15.5 6.5q10 0 16.5 -6.5t6.5 -16.5q0 -9 -6.5 -15.5t-16.5 -6.5q-9 0 -15.5 6.5t-6.5 15.5zM315 437q0 10 6.5 16.5t15.5 6.5q10 0 16.5 -6.5t6.5 -16.5q0 -9 -6.5 -15.5t-16.5 -6.5q-9 0 -15.5 6.5t-6.5 15.5zM415 37q0 10 6.5 16.5t15.5 6.5 q10 0 16.5 -6.5t6.5 -16.5q0 -9 -6.5 -15.5t-16.5 -6.5q-9 0 -15.5 6.5t-6.5 15.5zM415 437q0 10 6.5 16.5t15.5 6.5q10 0 16.5 -6.5t6.5 -16.5q0 -9 -6.5 -15.5t-16.5 -6.5q-9 0 -15.5 6.5t-6.5 15.5z" />
<glyph unicode="J" d="M15 137q0 10 6.5 16.5t15.5 6.5q10 0 16.5 -6.5t6.5 -16.5q0 -9 -6.5 -15.5t-16.5 -6.5q-9 0 -15.5 6.5t-6.5 15.5zM15 437q0 10 6.5 16.5t15.5 6.5q10 0 16.5 -6.5t6.5 -16.5q0 -9 -6.5 -15.5t-16.5 -6.5q-9 0 -15.5 6.5t-6.5 15.5zM115 37q0 10 6.5 16.5t15.5 6.5 q10 0 16.5 -6.5t6.5 -16.5q0 -9 -6.5 -15.5t-16.5 -6.5q-9 0 -15.5 6.5t-6.5 15.5zM115 437q0 10 6.5 16.5t15.5 6.5q10 0 16.5 -6.5t6.5 -16.5q0 -9 -6.5 -15.5t-16.5 -6.5q-9 0 -15.5 6.5t-6.5 15.5zM215 37q0 10 6.5 16.5t15.5 6.5q10 0 16.5 -6.5t6.5 -16.5 q0 -9 -6.5 -15.5t-16.5 -6.5q-9 0 -15.5 6.5t-6.5 15.5zM215 437q0 10 6.5 16.5t15.5 6.5q10 0 16.5 -6.5t6.5 -16.5q0 -9 -6.5 -15.5t-16.5 -6.5q-9 0 -15.5 6.5t-6.5 15.5zM315 137q0 10 6.5 16.5t15.5 6.5q10 0 16.5 -6.5t6.5 -16.5q0 -9 -6.5 -15.5t-16.5 -6.5 q-9 0 -15.5 6.5t-6.5 15.5zM315 237q0 10 6.5 16.5t15.5 6.5q10 0 16.5 -6.5t6.5 -16.5q0 -9 -6.5 -15.5t-16.5 -6.5q-9 0 -15.5 6.5t-6.5 15.5zM315 337q0 10 6.5 16.5t15.5 6.5q10 0 16.5 -6.5t6.5 -16.5q0 -9 -6.5 -15.5t-16.5 -6.5q-9 0 -15.5 6.5t-6.5 15.5zM315 437 q0 10 6.5 16.5t15.5 6.5q10 0 16.5 -6.5t6.5 -16.5q0 -9 -6.5 -15.5t-16.5 -6.5q-9 0 -15.5 6.5t-6.5 15.5z" />
<glyph unicode="K" d="M15 37q0 10 6.5 16.5t15.5 6.5q10 0 16.5 -6.5t6.5 -16.5q0 -9 -6.5 -15.5t-16.5 -6.5q-9 0 -15.5 6.5t-6.5 15.5zM15 137q0 10 6.5 16.5t15.5 6.5q10 0 16.5 -6.5t6.5 -16.5q0 -9 -6.5 -15.5t-16.5 -6.5q-9 0 -15.5 6.5t-6.5 15.5zM15 237q0 10 6.5 16.5t15.5 6.5 q10 0 16.5 -6.5t6.5 -16.5q0 -9 -6.5 -15.5t-16.5 -6.5q-9 0 -15.5 6.5t-6.5 15.5zM15 337q0 10 6.5 16.5t15.5 6.5q10 0 16.5 -6.5t6.5 -16.5q0 -9 -6.5 -15.5t-16.5 -6.5q-9 0 -15.5 6.5t-6.5 15.5zM15 437q0 10 6.5 16.5t15.5 6.5q10 0 16.5 -6.5t6.5 -16.5 q0 -9 -6.5 -15.5t-16.5 -6.5q-9 0 -15.5 6.5t-6.5 15.5zM115 237q0 10 6.5 16.5t15.5 6.5q10 0 16.5 -6.5t6.5 -16.5q0 -9 -6.5 -15.5t-16.5 -6.5q-9 0 -15.5 6.5t-6.5 15.5zM215 237q0 10 6.5 16.5t15.5 6.5q10 0 16.5 -6.5t6.5 -16.5q0 -9 -6.5 -15.5t-16.5 -6.5 q-9 0 -15.5 6.5t-6.5 15.5zM315 237q0 10 6.5 16.5t15.5 6.5q10 0 16.5 -6.5t6.5 -16.5q0 -9 -6.5 -15.5t-16.5 -6.5q-9 0 -15.5 6.5t-6.5 15.5zM415 37q0 10 6.5 16.5t15.5 6.5q10 0 16.5 -6.5t6.5 -16.5q0 -9 -6.5 -15.5t-16.5 -6.5q-9 0 -15.5 6.5t-6.5 15.5zM415 137 q0 10 6.5 16.5t15.5 6.5q10 0 16.5 -6.5t6.5 -16.5q0 -9 -6.5 -15.5t-16.5 -6.5q-9 0 -15.5 6.5t-6.5 15.5zM415 337q0 10 6.5 16.5t15.5 6.5q10 0 16.5 -6.5t6.5 -16.5q0 -9 -6.5 -15.5t-16.5 -6.5q-9 0 -15.5 6.5t-6.5 15.5zM415 437q0 10 6.5 16.5t15.5 6.5 q10 0 16.5 -6.5t6.5 -16.5q0 -9 -6.5 -15.5t-16.5 -6.5q-9 0 -15.5 6.5t-6.5 15.5z" />
<glyph unicode="L" d="M15 37q0 10 6.5 16.5t15.5 6.5q10 0 16.5 -6.5t6.5 -16.5q0 -9 -6.5 -15.5t-16.5 -6.5q-9 0 -15.5 6.5t-6.5 15.5zM15 137q0 10 6.5 16.5t15.5 6.5q10 0 16.5 -6.5t6.5 -16.5q0 -9 -6.5 -15.5t-16.5 -6.5q-9 0 -15.5 6.5t-6.5 15.5zM15 237q0 10 6.5 16.5t15.5 6.5 q10 0 16.5 -6.5t6.5 -16.5q0 -9 -6.5 -15.5t-16.5 -6.5q-9 0 -15.5 6.5t-6.5 15.5zM15 337q0 10 6.5 16.5t15.5 6.5q10 0 16.5 -6.5t6.5 -16.5q0 -9 -6.5 -15.5t-16.5 -6.5q-9 0 -15.5 6.5t-6.5 15.5zM15 437q0 10 6.5 16.5t15.5 6.5q10 0 16.5 -6.5t6.5 -16.5 q0 -9 -6.5 -15.5t-16.5 -6.5q-9 0 -15.5 6.5t-6.5 15.5zM115 37q0 10 6.5 16.5t15.5 6.5q10 0 16.5 -6.5t6.5 -16.5q0 -9 -6.5 -15.5t-16.5 -6.5q-9 0 -15.5 6.5t-6.5 15.5zM215 37q0 10 6.5 16.5t15.5 6.5q10 0 16.5 -6.5t6.5 -16.5q0 -9 -6.5 -15.5t-16.5 -6.5 q-9 0 -15.5 6.5t-6.5 15.5zM315 37q0 10 6.5 16.5t15.5 6.5q10 0 16.5 -6.5t6.5 -16.5q0 -9 -6.5 -15.5t-16.5 -6.5q-9 0 -15.5 6.5t-6.5 15.5zM415 37q0 10 6.5 16.5t15.5 6.5q10 0 16.5 -6.5t6.5 -16.5q0 -9 -6.5 -15.5t-16.5 -6.5q-9 0 -15.5 6.5t-6.5 15.5z" />
<glyph unicode="M" d="M15 37q0 10 6.5 16.5t15.5 6.5q10 0 16.5 -6.5t6.5 -16.5q0 -9 -6.5 -15.5t-16.5 -6.5q-9 0 -15.5 6.5t-6.5 15.5zM15 137q0 10 6.5 16.5t15.5 6.5q10 0 16.5 -6.5t6.5 -16.5q0 -9 -6.5 -15.5t-16.5 -6.5q-9 0 -15.5 6.5t-6.5 15.5zM15 237q0 10 6.5 16.5t15.5 6.5 q10 0 16.5 -6.5t6.5 -16.5q0 -9 -6.5 -15.5t-16.5 -6.5q-9 0 -15.5 6.5t-6.5 15.5zM15 337q0 10 6.5 16.5t15.5 6.5q10 0 16.5 -6.5t6.5 -16.5q0 -9 -6.5 -15.5t-16.5 -6.5q-9 0 -15.5 6.5t-6.5 15.5zM15 437q0 10 6.5 16.5t15.5 6.5q10 0 16.5 -6.5t6.5 -16.5 q0 -9 -6.5 -15.5t-16.5 -6.5q-9 0 -15.5 6.5t-6.5 15.5zM115 337q0 10 6.5 16.5t15.5 6.5q10 0 16.5 -6.5t6.5 -16.5q0 -9 -6.5 -15.5t-16.5 -6.5q-9 0 -15.5 6.5t-6.5 15.5zM215 137q0 10 6.5 16.5t15.5 6.5q10 0 16.5 -6.5t6.5 -16.5q0 -9 -6.5 -15.5t-16.5 -6.5 q-9 0 -15.5 6.5t-6.5 15.5zM215 237q0 10 6.5 16.5t15.5 6.5q10 0 16.5 -6.5t6.5 -16.5q0 -9 -6.5 -15.5t-16.5 -6.5q-9 0 -15.5 6.5t-6.5 15.5zM315 337q0 10 6.5 16.5t15.5 6.5q10 0 16.5 -6.5t6.5 -16.5q0 -9 -6.5 -15.5t-16.5 -6.5q-9 0 -15.5 6.5t-6.5 15.5zM415 37 q0 10 6.5 16.5t15.5 6.5q10 0 16.5 -6.5t6.5 -16.5q0 -9 -6.5 -15.5t-16.5 -6.5q-9 0 -15.5 6.5t-6.5 15.5zM415 137q0 10 6.5 16.5t15.5 6.5q10 0 16.5 -6.5t6.5 -16.5q0 -9 -6.5 -15.5t-16.5 -6.5q-9 0 -15.5 6.5t-6.5 15.5zM415 237q0 10 6.5 16.5t15.5 6.5 q10 0 16.5 -6.5t6.5 -16.5q0 -9 -6.5 -15.5t-16.5 -6.5q-9 0 -15.5 6.5t-6.5 15.5zM415 337q0 10 6.5 16.5t15.5 6.5q10 0 16.5 -6.5t6.5 -16.5q0 -9 -6.5 -15.5t-16.5 -6.5q-9 0 -15.5 6.5t-6.5 15.5zM415 437q0 10 6.5 16.5t15.5 6.5q10 0 16.5 -6.5t6.5 -16.5 q0 -9 -6.5 -15.5t-16.5 -6.5q-9 0 -15.5 6.5t-6.5 15.5z" />
<glyph unicode="N" d="M15 37q0 10 6.5 16.5t15.5 6.5q10 0 16.5 -6.5t6.5 -16.5q0 -9 -6.5 -15.5t-16.5 -6.5q-9 0 -15.5 6.5t-6.5 15.5zM15 137q0 10 6.5 16.5t15.5 6.5q10 0 16.5 -6.5t6.5 -16.5q0 -9 -6.5 -15.5t-16.5 -6.5q-9 0 -15.5 6.5t-6.5 15.5zM15 237q0 10 6.5 16.5t15.5 6.5 q10 0 16.5 -6.5t6.5 -16.5q0 -9 -6.5 -15.5t-16.5 -6.5q-9 0 -15.5 6.5t-6.5 15.5zM15 337q0 10 6.5 16.5t15.5 6.5q10 0 16.5 -6.5t6.5 -16.5q0 -9 -6.5 -15.5t-16.5 -6.5q-9 0 -15.5 6.5t-6.5 15.5zM15 437q0 10 6.5 16.5t15.5 6.5q10 0 16.5 -6.5t6.5 -16.5 q0 -9 -6.5 -15.5t-16.5 -6.5q-9 0 -15.5 6.5t-6.5 15.5zM115 337q0 10 6.5 16.5t15.5 6.5q10 0 16.5 -6.5t6.5 -16.5q0 -9 -6.5 -15.5t-16.5 -6.5q-9 0 -15.5 6.5t-6.5 15.5zM215 237q0 10 6.5 16.5t15.5 6.5q10 0 16.5 -6.5t6.5 -16.5q0 -9 -6.5 -15.5t-16.5 -6.5 q-9 0 -15.5 6.5t-6.5 15.5zM315 137q0 10 6.5 16.5t15.5 6.5q10 0 16.5 -6.5t6.5 -16.5q0 -9 -6.5 -15.5t-16.5 -6.5q-9 0 -15.5 6.5t-6.5 15.5zM415 37q0 10 6.5 16.5t15.5 6.5q10 0 16.5 -6.5t6.5 -16.5q0 -9 -6.5 -15.5t-16.5 -6.5q-9 0 -15.5 6.5t-6.5 15.5zM415 137 q0 10 6.5 16.5t15.5 6.5q10 0 16.5 -6.5t6.5 -16.5q0 -9 -6.5 -15.5t-16.5 -6.5q-9 0 -15.5 6.5t-6.5 15.5zM415 237q0 10 6.5 16.5t15.5 6.5q10 0 16.5 -6.5t6.5 -16.5q0 -9 -6.5 -15.5t-16.5 -6.5q-9 0 -15.5 6.5t-6.5 15.5zM415 337q0 10 6.5 16.5t15.5 6.5 q10 0 16.5 -6.5t6.5 -16.5q0 -9 -6.5 -15.5t-16.5 -6.5q-9 0 -15.5 6.5t-6.5 15.5zM415 437q0 10 6.5 16.5t15.5 6.5q10 0 16.5 -6.5t6.5 -16.5q0 -9 -6.5 -15.5t-16.5 -6.5q-9 0 -15.5 6.5t-6.5 15.5z" />
<glyph unicode="O" d="M15 137q0 10 6.5 16.5t15.5 6.5q10 0 16.5 -6.5t6.5 -16.5q0 -9 -6.5 -15.5t-16.5 -6.5q-9 0 -15.5 6.5t-6.5 15.5zM15 237q0 10 6.5 16.5t15.5 6.5q10 0 16.5 -6.5t6.5 -16.5q0 -9 -6.5 -15.5t-16.5 -6.5q-9 0 -15.5 6.5t-6.5 15.5zM15 337q0 10 6.5 16.5t15.5 6.5 q10 0 16.5 -6.5t6.5 -16.5q0 -9 -6.5 -15.5t-16.5 -6.5q-9 0 -15.5 6.5t-6.5 15.5zM115 37q0 10 6.5 16.5t15.5 6.5q10 0 16.5 -6.5t6.5 -16.5q0 -9 -6.5 -15.5t-16.5 -6.5q-9 0 -15.5 6.5t-6.5 15.5zM115 437q0 10 6.5 16.5t15.5 6.5q10 0 16.5 -6.5t6.5 -16.5 q0 -9 -6.5 -15.5t-16.5 -6.5q-9 0 -15.5 6.5t-6.5 15.5zM215 37q0 10 6.5 16.5t15.5 6.5q10 0 16.5 -6.5t6.5 -16.5q0 -9 -6.5 -15.5t-16.5 -6.5q-9 0 -15.5 6.5t-6.5 15.5zM215 437q0 10 6.5 16.5t15.5 6.5q10 0 16.5 -6.5t6.5 -16.5q0 -9 -6.5 -15.5t-16.5 -6.5 q-9 0 -15.5 6.5t-6.5 15.5zM315 37q0 10 6.5 16.5t15.5 6.5q10 0 16.5 -6.5t6.5 -16.5q0 -9 -6.5 -15.5t-16.5 -6.5q-9 0 -15.5 6.5t-6.5 15.5zM315 437q0 10 6.5 16.5t15.5 6.5q10 0 16.5 -6.5t6.5 -16.5q0 -9 -6.5 -15.5t-16.5 -6.5q-9 0 -15.5 6.5t-6.5 15.5zM415 137 q0 10 6.5 16.5t15.5 6.5q10 0 16.5 -6.5t6.5 -16.5q0 -9 -6.5 -15.5t-16.5 -6.5q-9 0 -15.5 6.5t-6.5 15.5zM415 237q0 10 6.5 16.5t15.5 6.5q10 0 16.5 -6.5t6.5 -16.5q0 -9 -6.5 -15.5t-16.5 -6.5q-9 0 -15.5 6.5t-6.5 15.5zM415 337q0 10 6.5 16.5t15.5 6.5 q10 0 16.5 -6.5t6.5 -16.5q0 -9 -6.5 -15.5t-16.5 -6.5q-9 0 -15.5 6.5t-6.5 15.5z" />
<glyph unicode="P" d="M15 37q0 10 6.5 16.5t15.5 6.5q10 0 16.5 -6.5t6.5 -16.5q0 -9 -6.5 -15.5t-16.5 -6.5q-9 0 -15.5 6.5t-6.5 15.5zM15 137q0 10 6.5 16.5t15.5 6.5q10 0 16.5 -6.5t6.5 -16.5q0 -9 -6.5 -15.5t-16.5 -6.5q-9 0 -15.5 6.5t-6.5 15.5zM15 237q0 10 6.5 16.5t15.5 6.5 q10 0 16.5 -6.5t6.5 -16.5q0 -9 -6.5 -15.5t-16.5 -6.5q-9 0 -15.5 6.5t-6.5 15.5zM15 337q0 10 6.5 16.5t15.5 6.5q10 0 16.5 -6.5t6.5 -16.5q0 -9 -6.5 -15.5t-16.5 -6.5q-9 0 -15.5 6.5t-6.5 15.5zM15 437q0 10 6.5 16.5t15.5 6.5q10 0 16.5 -6.5t6.5 -16.5 q0 -9 -6.5 -15.5t-16.5 -6.5q-9 0 -15.5 6.5t-6.5 15.5zM115 237q0 10 6.5 16.5t15.5 6.5q10 0 16.5 -6.5t6.5 -16.5q0 -9 -6.5 -15.5t-16.5 -6.5q-9 0 -15.5 6.5t-6.5 15.5zM115 437q0 10 6.5 16.5t15.5 6.5q10 0 16.5 -6.5t6.5 -16.5q0 -9 -6.5 -15.5t-16.5 -6.5 q-9 0 -15.5 6.5t-6.5 15.5zM215 237q0 10 6.5 16.5t15.5 6.5q10 0 16.5 -6.5t6.5 -16.5q0 -9 -6.5 -15.5t-16.5 -6.5q-9 0 -15.5 6.5t-6.5 15.5zM215 437q0 10 6.5 16.5t15.5 6.5q10 0 16.5 -6.5t6.5 -16.5q0 -9 -6.5 -15.5t-16.5 -6.5q-9 0 -15.5 6.5t-6.5 15.5zM315 237 q0 10 6.5 16.5t15.5 6.5q10 0 16.5 -6.5t6.5 -16.5q0 -9 -6.5 -15.5t-16.5 -6.5q-9 0 -15.5 6.5t-6.5 15.5zM315 437q0 10 6.5 16.5t15.5 6.5q10 0 16.5 -6.5t6.5 -16.5q0 -9 -6.5 -15.5t-16.5 -6.5q-9 0 -15.5 6.5t-6.5 15.5zM415 337q0 10 6.5 16.5t15.5 6.5 q10 0 16.5 -6.5t6.5 -16.5q0 -9 -6.5 -15.5t-16.5 -6.5q-9 0 -15.5 6.5t-6.5 15.5z" />
<glyph unicode="Q" d="M15 137q0 10 6.5 16.5t15.5 6.5q10 0 16.5 -6.5t6.5 -16.5q0 -9 -6.5 -15.5t-16.5 -6.5q-9 0 -15.5 6.5t-6.5 15.5zM15 237q0 10 6.5 16.5t15.5 6.5q10 0 16.5 -6.5t6.5 -16.5q0 -9 -6.5 -15.5t-16.5 -6.5q-9 0 -15.5 6.5t-6.5 15.5zM15 337q0 10 6.5 16.5t15.5 6.5 q10 0 16.5 -6.5t6.5 -16.5q0 -9 -6.5 -15.5t-16.5 -6.5q-9 0 -15.5 6.5t-6.5 15.5zM115 37q0 10 6.5 16.5t15.5 6.5q10 0 16.5 -6.5t6.5 -16.5q0 -9 -6.5 -15.5t-16.5 -6.5q-9 0 -15.5 6.5t-6.5 15.5zM115 437q0 10 6.5 16.5t15.5 6.5q10 0 16.5 -6.5t6.5 -16.5 q0 -9 -6.5 -15.5t-16.5 -6.5q-9 0 -15.5 6.5t-6.5 15.5zM215 37q0 10 6.5 16.5t15.5 6.5q10 0 16.5 -6.5t6.5 -16.5q0 -9 -6.5 -15.5t-16.5 -6.5q-9 0 -15.5 6.5t-6.5 15.5zM215 -63q0 10 6.5 16.5t15.5 6.5q10 0 16.5 -6.5t6.5 -16.5q0 -9 -6.5 -15.5t-16.5 -6.5 q-9 0 -15.5 6.5t-6.5 15.5zM215 137q0 10 6.5 16.5t15.5 6.5q10 0 16.5 -6.5t6.5 -16.5q0 -9 -6.5 -15.5t-16.5 -6.5q-9 0 -15.5 6.5t-6.5 15.5zM215 437q0 10 6.5 16.5t15.5 6.5q10 0 16.5 -6.5t6.5 -16.5q0 -9 -6.5 -15.5t-16.5 -6.5q-9 0 -15.5 6.5t-6.5 15.5zM315 37 q0 10 6.5 16.5t15.5 6.5q10 0 16.5 -6.5t6.5 -16.5q0 -9 -6.5 -15.5t-16.5 -6.5q-9 0 -15.5 6.5t-6.5 15.5zM315 -163q0 10 6.5 16.5t15.5 6.5q10 0 16.5 -6.5t6.5 -16.5q0 -9 -6.5 -15.5t-16.5 -6.5q-9 0 -15.5 6.5t-6.5 15.5zM315 437q0 10 6.5 16.5t15.5 6.5 q10 0 16.5 -6.5t6.5 -16.5q0 -9 -6.5 -15.5t-16.5 -6.5q-9 0 -15.5 6.5t-6.5 15.5zM415 137q0 10 6.5 16.5t15.5 6.5q10 0 16.5 -6.5t6.5 -16.5q0 -9 -6.5 -15.5t-16.5 -6.5q-9 0 -15.5 6.5t-6.5 15.5zM415 237q0 10 6.5 16.5t15.5 6.5q10 0 16.5 -6.5t6.5 -16.5 q0 -9 -6.5 -15.5t-16.5 -6.5q-9 0 -15.5 6.5t-6.5 15.5zM415 337q0 10 6.5 16.5t15.5 6.5q10 0 16.5 -6.5t6.5 -16.5q0 -9 -6.5 -15.5t-16.5 -6.5q-9 0 -15.5 6.5t-6.5 15.5z" />
<glyph unicode="R" d="M15 37q0 10 6.5 16.5t15.5 6.5q10 0 16.5 -6.5t6.5 -16.5q0 -9 -6.5 -15.5t-16.5 -6.5q-9 0 -15.5 6.5t-6.5 15.5zM15 137q0 10 6.5 16.5t15.5 6.5q10 0 16.5 -6.5t6.5 -16.5q0 -9 -6.5 -15.5t-16.5 -6.5q-9 0 -15.5 6.5t-6.5 15.5zM15 237q0 10 6.5 16.5t15.5 6.5 q10 0 16.5 -6.5t6.5 -16.5q0 -9 -6.5 -15.5t-16.5 -6.5q-9 0 -15.5 6.5t-6.5 15.5zM15 337q0 10 6.5 16.5t15.5 6.5q10 0 16.5 -6.5t6.5 -16.5q0 -9 -6.5 -15.5t-16.5 -6.5q-9 0 -15.5 6.5t-6.5 15.5zM15 437q0 10 6.5 16.5t15.5 6.5q10 0 16.5 -6.5t6.5 -16.5 q0 -9 -6.5 -15.5t-16.5 -6.5q-9 0 -15.5 6.5t-6.5 15.5zM115 237q0 10 6.5 16.5t15.5 6.5q10 0 16.5 -6.5t6.5 -16.5q0 -9 -6.5 -15.5t-16.5 -6.5q-9 0 -15.5 6.5t-6.5 15.5zM115 437q0 10 6.5 16.5t15.5 6.5q10 0 16.5 -6.5t6.5 -16.5q0 -9 -6.5 -15.5t-16.5 -6.5 q-9 0 -15.5 6.5t-6.5 15.5zM215 237q0 10 6.5 16.5t15.5 6.5q10 0 16.5 -6.5t6.5 -16.5q0 -9 -6.5 -15.5t-16.5 -6.5q-9 0 -15.5 6.5t-6.5 15.5zM215 437q0 10 6.5 16.5t15.5 6.5q10 0 16.5 -6.5t6.5 -16.5q0 -9 -6.5 -15.5t-16.5 -6.5q-9 0 -15.5 6.5t-6.5 15.5zM315 137 q0 10 6.5 16.5t15.5 6.5q10 0 16.5 -6.5t6.5 -16.5q0 -9 -6.5 -15.5t-16.5 -6.5q-9 0 -15.5 6.5t-6.5 15.5zM315 237q0 10 6.5 16.5t15.5 6.5q10 0 16.5 -6.5t6.5 -16.5q0 -9 -6.5 -15.5t-16.5 -6.5q-9 0 -15.5 6.5t-6.5 15.5zM315 437q0 10 6.5 16.5t15.5 6.5 q10 0 16.5 -6.5t6.5 -16.5q0 -9 -6.5 -15.5t-16.5 -6.5q-9 0 -15.5 6.5t-6.5 15.5zM415 37q0 10 6.5 16.5t15.5 6.5q10 0 16.5 -6.5t6.5 -16.5q0 -9 -6.5 -15.5t-16.5 -6.5q-9 0 -15.5 6.5t-6.5 15.5zM415 337q0 10 6.5 16.5t15.5 6.5q10 0 16.5 -6.5t6.5 -16.5 q0 -9 -6.5 -15.5t-16.5 -6.5q-9 0 -15.5 6.5t-6.5 15.5z" />
<glyph unicode="S" d="M15 37q0 10 6.5 16.5t15.5 6.5q10 0 16.5 -6.5t6.5 -16.5q0 -9 -6.5 -15.5t-16.5 -6.5q-9 0 -15.5 6.5t-6.5 15.5zM15 337q0 10 6.5 16.5t15.5 6.5q10 0 16.5 -6.5t6.5 -16.5q0 -9 -6.5 -15.5t-16.5 -6.5q-9 0 -15.5 6.5t-6.5 15.5zM115 37q0 10 6.5 16.5t15.5 6.5 q10 0 16.5 -6.5t6.5 -16.5q0 -9 -6.5 -15.5t-16.5 -6.5q-9 0 -15.5 6.5t-6.5 15.5zM115 237q0 10 6.5 16.5t15.5 6.5q10 0 16.5 -6.5t6.5 -16.5q0 -9 -6.5 -15.5t-16.5 -6.5q-9 0 -15.5 6.5t-6.5 15.5zM115 437q0 10 6.5 16.5t15.5 6.5q10 0 16.5 -6.5t6.5 -16.5 q0 -9 -6.5 -15.5t-16.5 -6.5q-9 0 -15.5 6.5t-6.5 15.5zM215 37q0 10 6.5 16.5t15.5 6.5q10 0 16.5 -6.5t6.5 -16.5q0 -9 -6.5 -15.5t-16.5 -6.5q-9 0 -15.5 6.5t-6.5 15.5zM215 237q0 10 6.5 16.5t15.5 6.5q10 0 16.5 -6.5t6.5 -16.5q0 -9 -6.5 -15.5t-16.5 -6.5 q-9 0 -15.5 6.5t-6.5 15.5zM215 437q0 10 6.5 16.5t15.5 6.5q10 0 16.5 -6.5t6.5 -16.5q0 -9 -6.5 -15.5t-16.5 -6.5q-9 0 -15.5 6.5t-6.5 15.5zM315 37q0 10 6.5 16.5t15.5 6.5q10 0 16.5 -6.5t6.5 -16.5q0 -9 -6.5 -15.5t-16.5 -6.5q-9 0 -15.5 6.5t-6.5 15.5zM315 237 q0 10 6.5 16.5t15.5 6.5q10 0 16.5 -6.5t6.5 -16.5q0 -9 -6.5 -15.5t-16.5 -6.5q-9 0 -15.5 6.5t-6.5 15.5zM315 437q0 10 6.5 16.5t15.5 6.5q10 0 16.5 -6.5t6.5 -16.5q0 -9 -6.5 -15.5t-16.5 -6.5q-9 0 -15.5 6.5t-6.5 15.5zM415 137q0 10 6.5 16.5t15.5 6.5 q10 0 16.5 -6.5t6.5 -16.5q0 -9 -6.5 -15.5t-16.5 -6.5q-9 0 -15.5 6.5t-6.5 15.5zM415 437q0 10 6.5 16.5t15.5 6.5q10 0 16.5 -6.5t6.5 -16.5q0 -9 -6.5 -15.5t-16.5 -6.5q-9 0 -15.5 6.5t-6.5 15.5z" />
<glyph unicode="T" d="M15 437q0 10 6.5 16.5t15.5 6.5q10 0 16.5 -6.5t6.5 -16.5q0 -9 -6.5 -15.5t-16.5 -6.5q-9 0 -15.5 6.5t-6.5 15.5zM115 437q0 10 6.5 16.5t15.5 6.5q10 0 16.5 -6.5t6.5 -16.5q0 -9 -6.5 -15.5t-16.5 -6.5q-9 0 -15.5 6.5t-6.5 15.5zM215 37q0 10 6.5 16.5t15.5 6.5 q10 0 16.5 -6.5t6.5 -16.5q0 -9 -6.5 -15.5t-16.5 -6.5q-9 0 -15.5 6.5t-6.5 15.5zM215 137q0 10 6.5 16.5t15.5 6.5q10 0 16.5 -6.5t6.5 -16.5q0 -9 -6.5 -15.5t-16.5 -6.5q-9 0 -15.5 6.5t-6.5 15.5zM215 237q0 10 6.5 16.5t15.5 6.5q10 0 16.5 -6.5t6.5 -16.5 q0 -9 -6.5 -15.5t-16.5 -6.5q-9 0 -15.5 6.5t-6.5 15.5zM215 337q0 10 6.5 16.5t15.5 6.5q10 0 16.5 -6.5t6.5 -16.5q0 -9 -6.5 -15.5t-16.5 -6.5q-9 0 -15.5 6.5t-6.5 15.5zM215 437q0 10 6.5 16.5t15.5 6.5q10 0 16.5 -6.5t6.5 -16.5q0 -9 -6.5 -15.5t-16.5 -6.5 q-9 0 -15.5 6.5t-6.5 15.5zM315 437q0 10 6.5 16.5t15.5 6.5q10 0 16.5 -6.5t6.5 -16.5q0 -9 -6.5 -15.5t-16.5 -6.5q-9 0 -15.5 6.5t-6.5 15.5zM415 437q0 10 6.5 16.5t15.5 6.5q10 0 16.5 -6.5t6.5 -16.5q0 -9 -6.5 -15.5t-16.5 -6.5q-9 0 -15.5 6.5t-6.5 15.5z" />
<glyph unicode="U" d="M15 137q0 10 6.5 16.5t15.5 6.5q10 0 16.5 -6.5t6.5 -16.5q0 -9 -6.5 -15.5t-16.5 -6.5q-9 0 -15.5 6.5t-6.5 15.5zM15 237q0 10 6.5 16.5t15.5 6.5q10 0 16.5 -6.5t6.5 -16.5q0 -9 -6.5 -15.5t-16.5 -6.5q-9 0 -15.5 6.5t-6.5 15.5zM15 337q0 10 6.5 16.5t15.5 6.5 q10 0 16.5 -6.5t6.5 -16.5q0 -9 -6.5 -15.5t-16.5 -6.5q-9 0 -15.5 6.5t-6.5 15.5zM15 437q0 10 6.5 16.5t15.5 6.5q10 0 16.5 -6.5t6.5 -16.5q0 -9 -6.5 -15.5t-16.5 -6.5q-9 0 -15.5 6.5t-6.5 15.5zM115 37q0 10 6.5 16.5t15.5 6.5q10 0 16.5 -6.5t6.5 -16.5 q0 -9 -6.5 -15.5t-16.5 -6.5q-9 0 -15.5 6.5t-6.5 15.5zM215 37q0 10 6.5 16.5t15.5 6.5q10 0 16.5 -6.5t6.5 -16.5q0 -9 -6.5 -15.5t-16.5 -6.5q-9 0 -15.5 6.5t-6.5 15.5zM315 37q0 10 6.5 16.5t15.5 6.5q10 0 16.5 -6.5t6.5 -16.5q0 -9 -6.5 -15.5t-16.5 -6.5 q-9 0 -15.5 6.5t-6.5 15.5zM415 137q0 10 6.5 16.5t15.5 6.5q10 0 16.5 -6.5t6.5 -16.5q0 -9 -6.5 -15.5t-16.5 -6.5q-9 0 -15.5 6.5t-6.5 15.5zM415 237q0 10 6.5 16.5t15.5 6.5q10 0 16.5 -6.5t6.5 -16.5q0 -9 -6.5 -15.5t-16.5 -6.5q-9 0 -15.5 6.5t-6.5 15.5zM415 337 q0 10 6.5 16.5t15.5 6.5q10 0 16.5 -6.5t6.5 -16.5q0 -9 -6.5 -15.5t-16.5 -6.5q-9 0 -15.5 6.5t-6.5 15.5zM415 437q0 10 6.5 16.5t15.5 6.5q10 0 16.5 -6.5t6.5 -16.5q0 -9 -6.5 -15.5t-16.5 -6.5q-9 0 -15.5 6.5t-6.5 15.5z" />
<glyph unicode="V" d="M15 237q0 10 6.5 16.5t15.5 6.5q10 0 16.5 -6.5t6.5 -16.5q0 -9 -6.5 -15.5t-16.5 -6.5q-9 0 -15.5 6.5t-6.5 15.5zM15 337q0 10 6.5 16.5t15.5 6.5q10 0 16.5 -6.5t6.5 -16.5q0 -9 -6.5 -15.5t-16.5 -6.5q-9 0 -15.5 6.5t-6.5 15.5zM15 437q0 10 6.5 16.5t15.5 6.5 q10 0 16.5 -6.5t6.5 -16.5q0 -9 -6.5 -15.5t-16.5 -6.5q-9 0 -15.5 6.5t-6.5 15.5zM115 137q0 10 6.5 16.5t15.5 6.5q10 0 16.5 -6.5t6.5 -16.5q0 -9 -6.5 -15.5t-16.5 -6.5q-9 0 -15.5 6.5t-6.5 15.5zM215 37q0 10 6.5 16.5t15.5 6.5q10 0 16.5 -6.5t6.5 -16.5 q0 -9 -6.5 -15.5t-16.5 -6.5q-9 0 -15.5 6.5t-6.5 15.5zM315 137q0 10 6.5 16.5t15.5 6.5q10 0 16.5 -6.5t6.5 -16.5q0 -9 -6.5 -15.5t-16.5 -6.5q-9 0 -15.5 6.5t-6.5 15.5zM415 237q0 10 6.5 16.5t15.5 6.5q10 0 16.5 -6.5t6.5 -16.5q0 -9 -6.5 -15.5t-16.5 -6.5 q-9 0 -15.5 6.5t-6.5 15.5zM415 337q0 10 6.5 16.5t15.5 6.5q10 0 16.5 -6.5t6.5 -16.5q0 -9 -6.5 -15.5t-16.5 -6.5q-9 0 -15.5 6.5t-6.5 15.5zM415 437q0 10 6.5 16.5t15.5 6.5q10 0 16.5 -6.5t6.5 -16.5q0 -9 -6.5 -15.5t-16.5 -6.5q-9 0 -15.5 6.5t-6.5 15.5z" />
<glyph unicode="W" d="M15 137q0 10 6.5 16.5t15.5 6.5q10 0 16.5 -6.5t6.5 -16.5q0 -9 -6.5 -15.5t-16.5 -6.5q-9 0 -15.5 6.5t-6.5 15.5zM15 237q0 10 6.5 16.5t15.5 6.5q10 0 16.5 -6.5t6.5 -16.5q0 -9 -6.5 -15.5t-16.5 -6.5q-9 0 -15.5 6.5t-6.5 15.5zM15 337q0 10 6.5 16.5t15.5 6.5 q10 0 16.5 -6.5t6.5 -16.5q0 -9 -6.5 -15.5t-16.5 -6.5q-9 0 -15.5 6.5t-6.5 15.5zM15 437q0 10 6.5 16.5t15.5 6.5q10 0 16.5 -6.5t6.5 -16.5q0 -9 -6.5 -15.5t-16.5 -6.5q-9 0 -15.5 6.5t-6.5 15.5zM115 37q0 10 6.5 16.5t15.5 6.5q10 0 16.5 -6.5t6.5 -16.5 q0 -9 -6.5 -15.5t-16.5 -6.5q-9 0 -15.5 6.5t-6.5 15.5zM215 137q0 10 6.5 16.5t15.5 6.5q10 0 16.5 -6.5t6.5 -16.5q0 -9 -6.5 -15.5t-16.5 -6.5q-9 0 -15.5 6.5t-6.5 15.5zM215 237q0 10 6.5 16.5t15.5 6.5q10 0 16.5 -6.5t6.5 -16.5q0 -9 -6.5 -15.5t-16.5 -6.5 q-9 0 -15.5 6.5t-6.5 15.5zM215 337q0 10 6.5 16.5t15.5 6.5q10 0 16.5 -6.5t6.5 -16.5q0 -9 -6.5 -15.5t-16.5 -6.5q-9 0 -15.5 6.5t-6.5 15.5zM315 37q0 10 6.5 16.5t15.5 6.5q10 0 16.5 -6.5t6.5 -16.5q0 -9 -6.5 -15.5t-16.5 -6.5q-9 0 -15.5 6.5t-6.5 15.5zM415 137 q0 10 6.5 16.5t15.5 6.5q10 0 16.5 -6.5t6.5 -16.5q0 -9 -6.5 -15.5t-16.5 -6.5q-9 0 -15.5 6.5t-6.5 15.5zM415 237q0 10 6.5 16.5t15.5 6.5q10 0 16.5 -6.5t6.5 -16.5q0 -9 -6.5 -15.5t-16.5 -6.5q-9 0 -15.5 6.5t-6.5 15.5zM415 337q0 10 6.5 16.5t15.5 6.5 q10 0 16.5 -6.5t6.5 -16.5q0 -9 -6.5 -15.5t-16.5 -6.5q-9 0 -15.5 6.5t-6.5 15.5zM415 437q0 10 6.5 16.5t15.5 6.5q10 0 16.5 -6.5t6.5 -16.5q0 -9 -6.5 -15.5t-16.5 -6.5q-9 0 -15.5 6.5t-6.5 15.5z" />
<glyph unicode="X" d="M15 37q0 10 6.5 16.5t15.5 6.5q10 0 16.5 -6.5t6.5 -16.5q0 -9 -6.5 -15.5t-16.5 -6.5q-9 0 -15.5 6.5t-6.5 15.5zM15 137q0 10 6.5 16.5t15.5 6.5q10 0 16.5 -6.5t6.5 -16.5q0 -9 -6.5 -15.5t-16.5 -6.5q-9 0 -15.5 6.5t-6.5 15.5zM15 337q0 10 6.5 16.5t15.5 6.5 q10 0 16.5 -6.5t6.5 -16.5q0 -9 -6.5 -15.5t-16.5 -6.5q-9 0 -15.5 6.5t-6.5 15.5zM15 437q0 10 6.5 16.5t15.5 6.5q10 0 16.5 -6.5t6.5 -16.5q0 -9 -6.5 -15.5t-16.5 -6.5q-9 0 -15.5 6.5t-6.5 15.5zM115 237q0 10 6.5 16.5t15.5 6.5q10 0 16.5 -6.5t6.5 -16.5 q0 -9 -6.5 -15.5t-16.5 -6.5q-9 0 -15.5 6.5t-6.5 15.5zM215 237q0 10 6.5 16.5t15.5 6.5q10 0 16.5 -6.5t6.5 -16.5q0 -9 -6.5 -15.5t-16.5 -6.5q-9 0 -15.5 6.5t-6.5 15.5zM315 237q0 10 6.5 16.5t15.5 6.5q10 0 16.5 -6.5t6.5 -16.5q0 -9 -6.5 -15.5t-16.5 -6.5 q-9 0 -15.5 6.5t-6.5 15.5zM415 37q0 10 6.5 16.5t15.5 6.5q10 0 16.5 -6.5t6.5 -16.5q0 -9 -6.5 -15.5t-16.5 -6.5q-9 0 -15.5 6.5t-6.5 15.5zM415 137q0 10 6.5 16.5t15.5 6.5q10 0 16.5 -6.5t6.5 -16.5q0 -9 -6.5 -15.5t-16.5 -6.5q-9 0 -15.5 6.5t-6.5 15.5zM415 337 q0 10 6.5 16.5t15.5 6.5q10 0 16.5 -6.5t6.5 -16.5q0 -9 -6.5 -15.5t-16.5 -6.5q-9 0 -15.5 6.5t-6.5 15.5zM415 437q0 10 6.5 16.5t15.5 6.5q10 0 16.5 -6.5t6.5 -16.5q0 -9 -6.5 -15.5t-16.5 -6.5q-9 0 -15.5 6.5t-6.5 15.5z" />
<glyph unicode="Y" d="M15 337q0 10 6.5 16.5t15.5 6.5q10 0 16.5 -6.5t6.5 -16.5q0 -9 -6.5 -15.5t-16.5 -6.5q-9 0 -15.5 6.5t-6.5 15.5zM15 437q0 10 6.5 16.5t15.5 6.5q10 0 16.5 -6.5t6.5 -16.5q0 -9 -6.5 -15.5t-16.5 -6.5q-9 0 -15.5 6.5t-6.5 15.5zM115 237q0 10 6.5 16.5t15.5 6.5 q10 0 16.5 -6.5t6.5 -16.5q0 -9 -6.5 -15.5t-16.5 -6.5q-9 0 -15.5 6.5t-6.5 15.5zM215 37q0 10 6.5 16.5t15.5 6.5q10 0 16.5 -6.5t6.5 -16.5q0 -9 -6.5 -15.5t-16.5 -6.5q-9 0 -15.5 6.5t-6.5 15.5zM215 137q0 10 6.5 16.5t15.5 6.5q10 0 16.5 -6.5t6.5 -16.5 q0 -9 -6.5 -15.5t-16.5 -6.5q-9 0 -15.5 6.5t-6.5 15.5zM315 237q0 10 6.5 16.5t15.5 6.5q10 0 16.5 -6.5t6.5 -16.5q0 -9 -6.5 -15.5t-16.5 -6.5q-9 0 -15.5 6.5t-6.5 15.5zM415 337q0 10 6.5 16.5t15.5 6.5q10 0 16.5 -6.5t6.5 -16.5q0 -9 -6.5 -15.5t-16.5 -6.5 q-9 0 -15.5 6.5t-6.5 15.5zM415 437q0 10 6.5 16.5t15.5 6.5q10 0 16.5 -6.5t6.5 -16.5q0 -9 -6.5 -15.5t-16.5 -6.5q-9 0 -15.5 6.5t-6.5 15.5z" />
<glyph unicode="Z" d="M15 37q0 10 6.5 16.5t15.5 6.5q10 0 16.5 -6.5t6.5 -16.5q0 -9 -6.5 -15.5t-16.5 -6.5q-9 0 -15.5 6.5t-6.5 15.5zM15 437q0 10 6.5 16.5t15.5 6.5q10 0 16.5 -6.5t6.5 -16.5q0 -9 -6.5 -15.5t-16.5 -6.5q-9 0 -15.5 6.5t-6.5 15.5zM115 37q0 10 6.5 16.5t15.5 6.5 q10 0 16.5 -6.5t6.5 -16.5q0 -9 -6.5 -15.5t-16.5 -6.5q-9 0 -15.5 6.5t-6.5 15.5zM115 137q0 10 6.5 16.5t15.5 6.5q10 0 16.5 -6.5t6.5 -16.5q0 -9 -6.5 -15.5t-16.5 -6.5q-9 0 -15.5 6.5t-6.5 15.5zM115 437q0 10 6.5 16.5t15.5 6.5q10 0 16.5 -6.5t6.5 -16.5 q0 -9 -6.5 -15.5t-16.5 -6.5q-9 0 -15.5 6.5t-6.5 15.5zM215 37q0 10 6.5 16.5t15.5 6.5q10 0 16.5 -6.5t6.5 -16.5q0 -9 -6.5 -15.5t-16.5 -6.5q-9 0 -15.5 6.5t-6.5 15.5zM215 237q0 10 6.5 16.5t15.5 6.5q10 0 16.5 -6.5t6.5 -16.5q0 -9 -6.5 -15.5t-16.5 -6.5 q-9 0 -15.5 6.5t-6.5 15.5zM215 437q0 10 6.5 16.5t15.5 6.5q10 0 16.5 -6.5t6.5 -16.5q0 -9 -6.5 -15.5t-16.5 -6.5q-9 0 -15.5 6.5t-6.5 15.5zM315 37q0 10 6.5 16.5t15.5 6.5q10 0 16.5 -6.5t6.5 -16.5q0 -9 -6.5 -15.5t-16.5 -6.5q-9 0 -15.5 6.5t-6.5 15.5zM315 337 q0 10 6.5 16.5t15.5 6.5q10 0 16.5 -6.5t6.5 -16.5q0 -9 -6.5 -15.5t-16.5 -6.5q-9 0 -15.5 6.5t-6.5 15.5zM315 437q0 10 6.5 16.5t15.5 6.5q10 0 16.5 -6.5t6.5 -16.5q0 -9 -6.5 -15.5t-16.5 -6.5q-9 0 -15.5 6.5t-6.5 15.5zM415 37q0 10 6.5 16.5t15.5 6.5 q10 0 16.5 -6.5t6.5 -16.5q0 -9 -6.5 -15.5t-16.5 -6.5q-9 0 -15.5 6.5t-6.5 15.5zM415 437q0 10 6.5 16.5t15.5 6.5q10 0 16.5 -6.5t6.5 -16.5q0 -9 -6.5 -15.5t-16.5 -6.5q-9 0 -15.5 6.5t-6.5 15.5z" />
<glyph unicode="[" d="M215 37q0 10 6.5 16.5t15.5 6.5q10 0 16.5 -6.5t6.5 -16.5q0 -9 -6.5 -15.5t-16.5 -6.5q-9 0 -15.5 6.5t-6.5 15.5zM215 -63q0 10 6.5 16.5t15.5 6.5q10 0 16.5 -6.5t6.5 -16.5q0 -9 -6.5 -15.5t-16.5 -6.5q-9 0 -15.5 6.5t-6.5 15.5zM215 137q0 10 6.5 16.5t15.5 6.5 q10 0 16.5 -6.5t6.5 -16.5q0 -9 -6.5 -15.5t-16.5 -6.5q-9 0 -15.5 6.5t-6.5 15.5zM215 237q0 10 6.5 16.5t15.5 6.5q10 0 16.5 -6.5t6.5 -16.5q0 -9 -6.5 -15.5t-16.5 -6.5q-9 0 -15.5 6.5t-6.5 15.5zM215 337q0 10 6.5 16.5t15.5 6.5q10 0 16.5 -6.5t6.5 -16.5 q0 -9 -6.5 -15.5t-16.5 -6.5q-9 0 -15.5 6.5t-6.5 15.5zM215 437q0 10 6.5 16.5t15.5 6.5q10 0 16.5 -6.5t6.5 -16.5q0 -9 -6.5 -15.5t-16.5 -6.5q-9 0 -15.5 6.5t-6.5 15.5zM215 537q0 10 6.5 16.5t15.5 6.5q10 0 16.5 -6.5t6.5 -16.5q0 -9 -6.5 -15.5t-16.5 -6.5 q-9 0 -15.5 6.5t-6.5 15.5zM315 -63q0 10 6.5 16.5t15.5 6.5q10 0 16.5 -6.5t6.5 -16.5q0 -9 -6.5 -15.5t-16.5 -6.5q-9 0 -15.5 6.5t-6.5 15.5zM315 537q0 10 6.5 16.5t15.5 6.5q10 0 16.5 -6.5t6.5 -16.5q0 -9 -6.5 -15.5t-16.5 -6.5q-9 0 -15.5 6.5t-6.5 15.5z" />
<glyph unicode="\" d="M115 437q0 10 6.5 16.5t15.5 6.5q10 0 16.5 -6.5t6.5 -16.5q0 -9 -6.5 -15.5t-16.5 -6.5q-9 0 -15.5 6.5t-6.5 15.5zM115 537q0 10 6.5 16.5t15.5 6.5q10 0 16.5 -6.5t6.5 -16.5q0 -9 -6.5 -15.5t-16.5 -6.5q-9 0 -15.5 6.5t-6.5 15.5zM215 237q0 10 6.5 16.5t15.5 6.5 q10 0 16.5 -6.5t6.5 -16.5q0 -9 -6.5 -15.5t-16.5 -6.5q-9 0 -15.5 6.5t-6.5 15.5zM215 337q0 10 6.5 16.5t15.5 6.5q10 0 16.5 -6.5t6.5 -16.5q0 -9 -6.5 -15.5t-16.5 -6.5q-9 0 -15.5 6.5t-6.5 15.5zM315 137q0 10 6.5 16.5t15.5 6.5q10 0 16.5 -6.5t6.5 -16.5 q0 -9 -6.5 -15.5t-16.5 -6.5q-9 0 -15.5 6.5t-6.5 15.5zM415 37q0 10 6.5 16.5t15.5 6.5q10 0 16.5 -6.5t6.5 -16.5q0 -9 -6.5 -15.5t-16.5 -6.5q-9 0 -15.5 6.5t-6.5 15.5zM415 -63q0 10 6.5 16.5t15.5 6.5q10 0 16.5 -6.5t6.5 -16.5q0 -9 -6.5 -15.5t-16.5 -6.5 q-9 0 -15.5 6.5t-6.5 15.5z" />
<glyph unicode="]" d="M215 -63q0 10 6.5 16.5t15.5 6.5q10 0 16.5 -6.5t6.5 -16.5q0 -9 -6.5 -15.5t-16.5 -6.5q-9 0 -15.5 6.5t-6.5 15.5zM215 537q0 10 6.5 16.5t15.5 6.5q10 0 16.5 -6.5t6.5 -16.5q0 -9 -6.5 -15.5t-16.5 -6.5q-9 0 -15.5 6.5t-6.5 15.5zM315 37q0 10 6.5 16.5t15.5 6.5 q10 0 16.5 -6.5t6.5 -16.5q0 -9 -6.5 -15.5t-16.5 -6.5q-9 0 -15.5 6.5t-6.5 15.5zM315 -63q0 10 6.5 16.5t15.5 6.5q10 0 16.5 -6.5t6.5 -16.5q0 -9 -6.5 -15.5t-16.5 -6.5q-9 0 -15.5 6.5t-6.5 15.5zM315 137q0 10 6.5 16.5t15.5 6.5q10 0 16.5 -6.5t6.5 -16.5 q0 -9 -6.5 -15.5t-16.5 -6.5q-9 0 -15.5 6.5t-6.5 15.5zM315 237q0 10 6.5 16.5t15.5 6.5q10 0 16.5 -6.5t6.5 -16.5q0 -9 -6.5 -15.5t-16.5 -6.5q-9 0 -15.5 6.5t-6.5 15.5zM315 337q0 10 6.5 16.5t15.5 6.5q10 0 16.5 -6.5t6.5 -16.5q0 -9 -6.5 -15.5t-16.5 -6.5 q-9 0 -15.5 6.5t-6.5 15.5zM315 437q0 10 6.5 16.5t15.5 6.5q10 0 16.5 -6.5t6.5 -16.5q0 -9 -6.5 -15.5t-16.5 -6.5q-9 0 -15.5 6.5t-6.5 15.5zM315 537q0 10 6.5 16.5t15.5 6.5q10 0 16.5 -6.5t6.5 -16.5q0 -9 -6.5 -15.5t-16.5 -6.5q-9 0 -15.5 6.5t-6.5 15.5z" />
<glyph unicode="^" d="M115 637q0 10 6.5 16.5t15.5 6.5q10 0 16.5 -6.5t6.5 -16.5q0 -9 -6.5 -15.5t-16.5 -6.5q-9 0 -15.5 6.5t-6.5 15.5zM215 737q0 10 6.5 16.5t15.5 6.5q10 0 16.5 -6.5t6.5 -16.5q0 -9 -6.5 -15.5t-16.5 -6.5q-9 0 -15.5 6.5t-6.5 15.5zM315 637q0 10 6.5 16.5t15.5 6.5 q10 0 16.5 -6.5t6.5 -16.5q0 -9 -6.5 -15.5t-16.5 -6.5q-9 0 -15.5 6.5t-6.5 15.5z" />
<glyph unicode="_" d="M15 37q0 10 6.5 16.5t15.5 6.5q10 0 16.5 -6.5t6.5 -16.5q0 -9 -6.5 -15.5t-16.5 -6.5q-9 0 -15.5 6.5t-6.5 15.5zM115 37q0 10 6.5 16.5t15.5 6.5q10 0 16.5 -6.5t6.5 -16.5q0 -9 -6.5 -15.5t-16.5 -6.5q-9 0 -15.5 6.5t-6.5 15.5zM215 37q0 10 6.5 16.5t15.5 6.5 q10 0 16.5 -6.5t6.5 -16.5q0 -9 -6.5 -15.5t-16.5 -6.5q-9 0 -15.5 6.5t-6.5 15.5zM315 37q0 10 6.5 16.5t15.5 6.5q10 0 16.5 -6.5t6.5 -16.5q0 -9 -6.5 -15.5t-16.5 -6.5q-9 0 -15.5 6.5t-6.5 15.5zM415 37q0 10 6.5 16.5t15.5 6.5q10 0 16.5 -6.5t6.5 -16.5 q0 -9 -6.5 -15.5t-16.5 -6.5q-9 0 -15.5 6.5t-6.5 15.5z" />
<glyph unicode="`" d="M15 737q0 10 6.5 16.5t15.5 6.5q10 0 16.5 -6.5t6.5 -16.5q0 -9 -6.5 -15.5t-16.5 -6.5q-9 0 -15.5 6.5t-6.5 15.5zM115 637q0 10 6.5 16.5t15.5 6.5q10 0 16.5 -6.5t6.5 -16.5q0 -9 -6.5 -15.5t-16.5 -6.5q-9 0 -15.5 6.5t-6.5 15.5zM215 637q0 10 6.5 16.5t15.5 6.5 q10 0 16.5 -6.5t6.5 -16.5q0 -9 -6.5 -15.5t-16.5 -6.5q-9 0 -15.5 6.5t-6.5 15.5z" />
<glyph unicode="a" d="M15 137q0 10 6.5 16.5t15.5 6.5q10 0 16.5 -6.5t6.5 -16.5q0 -9 -6.5 -15.5t-16.5 -6.5q-9 0 -15.5 6.5t-6.5 15.5zM115 37q0 10 6.5 16.5t15.5 6.5q10 0 16.5 -6.5t6.5 -16.5q0 -9 -6.5 -15.5t-16.5 -6.5q-9 0 -15.5 6.5t-6.5 15.5zM115 237q0 10 6.5 16.5t15.5 6.5 q10 0 16.5 -6.5t6.5 -16.5q0 -9 -6.5 -15.5t-16.5 -6.5q-9 0 -15.5 6.5t-6.5 15.5zM115 437q0 10 6.5 16.5t15.5 6.5q10 0 16.5 -6.5t6.5 -16.5q0 -9 -6.5 -15.5t-16.5 -6.5q-9 0 -15.5 6.5t-6.5 15.5zM215 37q0 10 6.5 16.5t15.5 6.5q10 0 16.5 -6.5t6.5 -16.5 q0 -9 -6.5 -15.5t-16.5 -6.5q-9 0 -15.5 6.5t-6.5 15.5zM215 237q0 10 6.5 16.5t15.5 6.5q10 0 16.5 -6.5t6.5 -16.5q0 -9 -6.5 -15.5t-16.5 -6.5q-9 0 -15.5 6.5t-6.5 15.5zM215 437q0 10 6.5 16.5t15.5 6.5q10 0 16.5 -6.5t6.5 -16.5q0 -9 -6.5 -15.5t-16.5 -6.5 q-9 0 -15.5 6.5t-6.5 15.5zM315 37q0 10 6.5 16.5t15.5 6.5q10 0 16.5 -6.5t6.5 -16.5q0 -9 -6.5 -15.5t-16.5 -6.5q-9 0 -15.5 6.5t-6.5 15.5zM315 237q0 10 6.5 16.5t15.5 6.5q10 0 16.5 -6.5t6.5 -16.5q0 -9 -6.5 -15.5t-16.5 -6.5q-9 0 -15.5 6.5t-6.5 15.5zM315 437 q0 10 6.5 16.5t15.5 6.5q10 0 16.5 -6.5t6.5 -16.5q0 -9 -6.5 -15.5t-16.5 -6.5q-9 0 -15.5 6.5t-6.5 15.5zM415 37q0 10 6.5 16.5t15.5 6.5q10 0 16.5 -6.5t6.5 -16.5q0 -9 -6.5 -15.5t-16.5 -6.5q-9 0 -15.5 6.5t-6.5 15.5zM415 137q0 10 6.5 16.5t15.5 6.5 q10 0 16.5 -6.5t6.5 -16.5q0 -9 -6.5 -15.5t-16.5 -6.5q-9 0 -15.5 6.5t-6.5 15.5zM415 237q0 10 6.5 16.5t15.5 6.5q10 0 16.5 -6.5t6.5 -16.5q0 -9 -6.5 -15.5t-16.5 -6.5q-9 0 -15.5 6.5t-6.5 15.5zM415 337q0 10 6.5 16.5t15.5 6.5q10 0 16.5 -6.5t6.5 -16.5 q0 -9 -6.5 -15.5t-16.5 -6.5q-9 0 -15.5 6.5t-6.5 15.5z" />
<glyph unicode="b" d="M15 37q0 10 6.5 16.5t15.5 6.5q10 0 16.5 -6.5t6.5 -16.5q0 -9 -6.5 -15.5t-16.5 -6.5q-9 0 -15.5 6.5t-6.5 15.5zM15 137q0 10 6.5 16.5t15.5 6.5q10 0 16.5 -6.5t6.5 -16.5q0 -9 -6.5 -15.5t-16.5 -6.5q-9 0 -15.5 6.5t-6.5 15.5zM15 237q0 10 6.5 16.5t15.5 6.5 q10 0 16.5 -6.5t6.5 -16.5q0 -9 -6.5 -15.5t-16.5 -6.5q-9 0 -15.5 6.5t-6.5 15.5zM15 337q0 10 6.5 16.5t15.5 6.5q10 0 16.5 -6.5t6.5 -16.5q0 -9 -6.5 -15.5t-16.5 -6.5q-9 0 -15.5 6.5t-6.5 15.5zM15 437q0 10 6.5 16.5t15.5 6.5q10 0 16.5 -6.5t6.5 -16.5 q0 -9 -6.5 -15.5t-16.5 -6.5q-9 0 -15.5 6.5t-6.5 15.5zM115 37q0 10 6.5 16.5t15.5 6.5q10 0 16.5 -6.5t6.5 -16.5q0 -9 -6.5 -15.5t-16.5 -6.5q-9 0 -15.5 6.5t-6.5 15.5zM115 237q0 10 6.5 16.5t15.5 6.5q10 0 16.5 -6.5t6.5 -16.5q0 -9 -6.5 -15.5t-16.5 -6.5 q-9 0 -15.5 6.5t-6.5 15.5zM115 437q0 10 6.5 16.5t15.5 6.5q10 0 16.5 -6.5t6.5 -16.5q0 -9 -6.5 -15.5t-16.5 -6.5q-9 0 -15.5 6.5t-6.5 15.5zM215 37q0 10 6.5 16.5t15.5 6.5q10 0 16.5 -6.5t6.5 -16.5q0 -9 -6.5 -15.5t-16.5 -6.5q-9 0 -15.5 6.5t-6.5 15.5zM215 237 q0 10 6.5 16.5t15.5 6.5q10 0 16.5 -6.5t6.5 -16.5q0 -9 -6.5 -15.5t-16.5 -6.5q-9 0 -15.5 6.5t-6.5 15.5zM215 437q0 10 6.5 16.5t15.5 6.5q10 0 16.5 -6.5t6.5 -16.5q0 -9 -6.5 -15.5t-16.5 -6.5q-9 0 -15.5 6.5t-6.5 15.5zM315 37q0 10 6.5 16.5t15.5 6.5 q10 0 16.5 -6.5t6.5 -16.5q0 -9 -6.5 -15.5t-16.5 -6.5q-9 0 -15.5 6.5t-6.5 15.5zM315 237q0 10 6.5 16.5t15.5 6.5q10 0 16.5 -6.5t6.5 -16.5q0 -9 -6.5 -15.5t-16.5 -6.5q-9 0 -15.5 6.5t-6.5 15.5zM315 437q0 10 6.5 16.5t15.5 6.5q10 0 16.5 -6.5t6.5 -16.5 q0 -9 -6.5 -15.5t-16.5 -6.5q-9 0 -15.5 6.5t-6.5 15.5zM415 137q0 10 6.5 16.5t15.5 6.5q10 0 16.5 -6.5t6.5 -16.5q0 -9 -6.5 -15.5t-16.5 -6.5q-9 0 -15.5 6.5t-6.5 15.5zM415 337q0 10 6.5 16.5t15.5 6.5q10 0 16.5 -6.5t6.5 -16.5q0 -9 -6.5 -15.5t-16.5 -6.5 q-9 0 -15.5 6.5t-6.5 15.5z" />
<glyph unicode="c" d="M15 137q0 10 6.5 16.5t15.5 6.5q10 0 16.5 -6.5t6.5 -16.5q0 -9 -6.5 -15.5t-16.5 -6.5q-9 0 -15.5 6.5t-6.5 15.5zM15 237q0 10 6.5 16.5t15.5 6.5q10 0 16.5 -6.5t6.5 -16.5q0 -9 -6.5 -15.5t-16.5 -6.5q-9 0 -15.5 6.5t-6.5 15.5zM15 337q0 10 6.5 16.5t15.5 6.5 q10 0 16.5 -6.5t6.5 -16.5q0 -9 -6.5 -15.5t-16.5 -6.5q-9 0 -15.5 6.5t-6.5 15.5zM115 37q0 10 6.5 16.5t15.5 6.5q10 0 16.5 -6.5t6.5 -16.5q0 -9 -6.5 -15.5t-16.5 -6.5q-9 0 -15.5 6.5t-6.5 15.5zM115 437q0 10 6.5 16.5t15.5 6.5q10 0 16.5 -6.5t6.5 -16.5 q0 -9 -6.5 -15.5t-16.5 -6.5q-9 0 -15.5 6.5t-6.5 15.5zM215 37q0 10 6.5 16.5t15.5 6.5q10 0 16.5 -6.5t6.5 -16.5q0 -9 -6.5 -15.5t-16.5 -6.5q-9 0 -15.5 6.5t-6.5 15.5zM215 437q0 10 6.5 16.5t15.5 6.5q10 0 16.5 -6.5t6.5 -16.5q0 -9 -6.5 -15.5t-16.5 -6.5 q-9 0 -15.5 6.5t-6.5 15.5zM315 37q0 10 6.5 16.5t15.5 6.5q10 0 16.5 -6.5t6.5 -16.5q0 -9 -6.5 -15.5t-16.5 -6.5q-9 0 -15.5 6.5t-6.5 15.5zM315 437q0 10 6.5 16.5t15.5 6.5q10 0 16.5 -6.5t6.5 -16.5q0 -9 -6.5 -15.5t-16.5 -6.5q-9 0 -15.5 6.5t-6.5 15.5zM415 137 q0 10 6.5 16.5t15.5 6.5q10 0 16.5 -6.5t6.5 -16.5q0 -9 -6.5 -15.5t-16.5 -6.5q-9 0 -15.5 6.5t-6.5 15.5zM415 337q0 10 6.5 16.5t15.5 6.5q10 0 16.5 -6.5t6.5 -16.5q0 -9 -6.5 -15.5t-16.5 -6.5q-9 0 -15.5 6.5t-6.5 15.5z" />
<glyph unicode="d" d="M15 37q0 10 6.5 16.5t15.5 6.5q10 0 16.5 -6.5t6.5 -16.5q0 -9 -6.5 -15.5t-16.5 -6.5q-9 0 -15.5 6.5t-6.5 15.5zM15 137q0 10 6.5 16.5t15.5 6.5q10 0 16.5 -6.5t6.5 -16.5q0 -9 -6.5 -15.5t-16.5 -6.5q-9 0 -15.5 6.5t-6.5 15.5zM15 237q0 10 6.5 16.5t15.5 6.5 q10 0 16.5 -6.5t6.5 -16.5q0 -9 -6.5 -15.5t-16.5 -6.5q-9 0 -15.5 6.5t-6.5 15.5zM15 337q0 10 6.5 16.5t15.5 6.5q10 0 16.5 -6.5t6.5 -16.5q0 -9 -6.5 -15.5t-16.5 -6.5q-9 0 -15.5 6.5t-6.5 15.5zM15 437q0 10 6.5 16.5t15.5 6.5q10 0 16.5 -6.5t6.5 -16.5 q0 -9 -6.5 -15.5t-16.5 -6.5q-9 0 -15.5 6.5t-6.5 15.5zM115 37q0 10 6.5 16.5t15.5 6.5q10 0 16.5 -6.5t6.5 -16.5q0 -9 -6.5 -15.5t-16.5 -6.5q-9 0 -15.5 6.5t-6.5 15.5zM115 437q0 10 6.5 16.5t15.5 6.5q10 0 16.5 -6.5t6.5 -16.5q0 -9 -6.5 -15.5t-16.5 -6.5 q-9 0 -15.5 6.5t-6.5 15.5zM215 37q0 10 6.5 16.5t15.5 6.5q10 0 16.5 -6.5t6.5 -16.5q0 -9 -6.5 -15.5t-16.5 -6.5q-9 0 -15.5 6.5t-6.5 15.5zM215 437q0 10 6.5 16.5t15.5 6.5q10 0 16.5 -6.5t6.5 -16.5q0 -9 -6.5 -15.5t-16.5 -6.5q-9 0 -15.5 6.5t-6.5 15.5zM315 37 q0 10 6.5 16.5t15.5 6.5q10 0 16.5 -6.5t6.5 -16.5q0 -9 -6.5 -15.5t-16.5 -6.5q-9 0 -15.5 6.5t-6.5 15.5zM315 437q0 10 6.5 16.5t15.5 6.5q10 0 16.5 -6.5t6.5 -16.5q0 -9 -6.5 -15.5t-16.5 -6.5q-9 0 -15.5 6.5t-6.5 15.5zM415 137q0 10 6.5 16.5t15.5 6.5 q10 0 16.5 -6.5t6.5 -16.5q0 -9 -6.5 -15.5t-16.5 -6.5q-9 0 -15.5 6.5t-6.5 15.5zM415 237q0 10 6.5 16.5t15.5 6.5q10 0 16.5 -6.5t6.5 -16.5q0 -9 -6.5 -15.5t-16.5 -6.5q-9 0 -15.5 6.5t-6.5 15.5zM415 337q0 10 6.5 16.5t15.5 6.5q10 0 16.5 -6.5t6.5 -16.5 q0 -9 -6.5 -15.5t-16.5 -6.5q-9 0 -15.5 6.5t-6.5 15.5z" />
<glyph unicode="e" d="M15 137q0 10 6.5 16.5t15.5 6.5q10 0 16.5 -6.5t6.5 -16.5q0 -9 -6.5 -15.5t-16.5 -6.5q-9 0 -15.5 6.5t-6.5 15.5zM15 237q0 10 6.5 16.5t15.5 6.5q10 0 16.5 -6.5t6.5 -16.5q0 -9 -6.5 -15.5t-16.5 -6.5q-9 0 -15.5 6.5t-6.5 15.5zM15 337q0 10 6.5 16.5t15.5 6.5 q10 0 16.5 -6.5t6.5 -16.5q0 -9 -6.5 -15.5t-16.5 -6.5q-9 0 -15.5 6.5t-6.5 15.5zM115 37q0 10 6.5 16.5t15.5 6.5q10 0 16.5 -6.5t6.5 -16.5q0 -9 -6.5 -15.5t-16.5 -6.5q-9 0 -15.5 6.5t-6.5 15.5zM115 237q0 10 6.5 16.5t15.5 6.5q10 0 16.5 -6.5t6.5 -16.5 q0 -9 -6.5 -15.5t-16.5 -6.5q-9 0 -15.5 6.5t-6.5 15.5zM115 437q0 10 6.5 16.5t15.5 6.5q10 0 16.5 -6.5t6.5 -16.5q0 -9 -6.5 -15.5t-16.5 -6.5q-9 0 -15.5 6.5t-6.5 15.5zM215 37q0 10 6.5 16.5t15.5 6.5q10 0 16.5 -6.5t6.5 -16.5q0 -9 -6.5 -15.5t-16.5 -6.5 q-9 0 -15.5 6.5t-6.5 15.5zM215 237q0 10 6.5 16.5t15.5 6.5q10 0 16.5 -6.5t6.5 -16.5q0 -9 -6.5 -15.5t-16.5 -6.5q-9 0 -15.5 6.5t-6.5 15.5zM215 437q0 10 6.5 16.5t15.5 6.5q10 0 16.5 -6.5t6.5 -16.5q0 -9 -6.5 -15.5t-16.5 -6.5q-9 0 -15.5 6.5t-6.5 15.5zM315 37 q0 10 6.5 16.5t15.5 6.5q10 0 16.5 -6.5t6.5 -16.5q0 -9 -6.5 -15.5t-16.5 -6.5q-9 0 -15.5 6.5t-6.5 15.5zM315 237q0 10 6.5 16.5t15.5 6.5q10 0 16.5 -6.5t6.5 -16.5q0 -9 -6.5 -15.5t-16.5 -6.5q-9 0 -15.5 6.5t-6.5 15.5zM315 437q0 10 6.5 16.5t15.5 6.5 q10 0 16.5 -6.5t6.5 -16.5q0 -9 -6.5 -15.5t-16.5 -6.5q-9 0 -15.5 6.5t-6.5 15.5zM415 37q0 10 6.5 16.5t15.5 6.5q10 0 16.5 -6.5t6.5 -16.5q0 -9 -6.5 -15.5t-16.5 -6.5q-9 0 -15.5 6.5t-6.5 15.5zM415 237q0 10 6.5 16.5t15.5 6.5q10 0 16.5 -6.5t6.5 -16.5 q0 -9 -6.5 -15.5t-16.5 -6.5q-9 0 -15.5 6.5t-6.5 15.5zM415 337q0 10 6.5 16.5t15.5 6.5q10 0 16.5 -6.5t6.5 -16.5q0 -9 -6.5 -15.5t-16.5 -6.5q-9 0 -15.5 6.5t-6.5 15.5z" />
<glyph unicode="f" d="M15 37q0 10 6.5 16.5t15.5 6.5q10 0 16.5 -6.5t6.5 -16.5q0 -9 -6.5 -15.5t-16.5 -6.5q-9 0 -15.5 6.5t-6.5 15.5zM15 137q0 10 6.5 16.5t15.5 6.5q10 0 16.5 -6.5t6.5 -16.5q0 -9 -6.5 -15.5t-16.5 -6.5q-9 0 -15.5 6.5t-6.5 15.5zM15 237q0 10 6.5 16.5t15.5 6.5 q10 0 16.5 -6.5t6.5 -16.5q0 -9 -6.5 -15.5t-16.5 -6.5q-9 0 -15.5 6.5t-6.5 15.5zM15 337q0 10 6.5 16.5t15.5 6.5q10 0 16.5 -6.5t6.5 -16.5q0 -9 -6.5 -15.5t-16.5 -6.5q-9 0 -15.5 6.5t-6.5 15.5zM15 437q0 10 6.5 16.5t15.5 6.5q10 0 16.5 -6.5t6.5 -16.5 q0 -9 -6.5 -15.5t-16.5 -6.5q-9 0 -15.5 6.5t-6.5 15.5zM115 237q0 10 6.5 16.5t15.5 6.5q10 0 16.5 -6.5t6.5 -16.5q0 -9 -6.5 -15.5t-16.5 -6.5q-9 0 -15.5 6.5t-6.5 15.5zM115 437q0 10 6.5 16.5t15.5 6.5q10 0 16.5 -6.5t6.5 -16.5q0 -9 -6.5 -15.5t-16.5 -6.5 q-9 0 -15.5 6.5t-6.5 15.5zM215 237q0 10 6.5 16.5t15.5 6.5q10 0 16.5 -6.5t6.5 -16.5q0 -9 -6.5 -15.5t-16.5 -6.5q-9 0 -15.5 6.5t-6.5 15.5zM215 437q0 10 6.5 16.5t15.5 6.5q10 0 16.5 -6.5t6.5 -16.5q0 -9 -6.5 -15.5t-16.5 -6.5q-9 0 -15.5 6.5t-6.5 15.5zM315 237 q0 10 6.5 16.5t15.5 6.5q10 0 16.5 -6.5t6.5 -16.5q0 -9 -6.5 -15.5t-16.5 -6.5q-9 0 -15.5 6.5t-6.5 15.5zM315 437q0 10 6.5 16.5t15.5 6.5q10 0 16.5 -6.5t6.5 -16.5q0 -9 -6.5 -15.5t-16.5 -6.5q-9 0 -15.5 6.5t-6.5 15.5zM415 437q0 10 6.5 16.5t15.5 6.5 q10 0 16.5 -6.5t6.5 -16.5q0 -9 -6.5 -15.5t-16.5 -6.5q-9 0 -15.5 6.5t-6.5 15.5z" />
<glyph unicode="g" d="M15 137q0 10 6.5 16.5t15.5 6.5q10 0 16.5 -6.5t6.5 -16.5q0 -9 -6.5 -15.5t-16.5 -6.5q-9 0 -15.5 6.5t-6.5 15.5zM15 237q0 10 6.5 16.5t15.5 6.5q10 0 16.5 -6.5t6.5 -16.5q0 -9 -6.5 -15.5t-16.5 -6.5q-9 0 -15.5 6.5t-6.5 15.5zM15 337q0 10 6.5 16.5t15.5 6.5 q10 0 16.5 -6.5t6.5 -16.5q0 -9 -6.5 -15.5t-16.5 -6.5q-9 0 -15.5 6.5t-6.5 15.5zM115 37q0 10 6.5 16.5t15.5 6.5q10 0 16.5 -6.5t6.5 -16.5q0 -9 -6.5 -15.5t-16.5 -6.5q-9 0 -15.5 6.5t-6.5 15.5zM115 437q0 10 6.5 16.5t15.5 6.5q10 0 16.5 -6.5t6.5 -16.5 q0 -9 -6.5 -15.5t-16.5 -6.5q-9 0 -15.5 6.5t-6.5 15.5zM215 37q0 10 6.5 16.5t15.5 6.5q10 0 16.5 -6.5t6.5 -16.5q0 -9 -6.5 -15.5t-16.5 -6.5q-9 0 -15.5 6.5t-6.5 15.5zM215 437q0 10 6.5 16.5t15.5 6.5q10 0 16.5 -6.5t6.5 -16.5q0 -9 -6.5 -15.5t-16.5 -6.5 q-9 0 -15.5 6.5t-6.5 15.5zM315 37q0 10 6.5 16.5t15.5 6.5q10 0 16.5 -6.5t6.5 -16.5q0 -9 -6.5 -15.5t-16.5 -6.5q-9 0 -15.5 6.5t-6.5 15.5zM315 237q0 10 6.5 16.5t15.5 6.5q10 0 16.5 -6.5t6.5 -16.5q0 -9 -6.5 -15.5t-16.5 -6.5q-9 0 -15.5 6.5t-6.5 15.5zM315 437 q0 10 6.5 16.5t15.5 6.5q10 0 16.5 -6.5t6.5 -16.5q0 -9 -6.5 -15.5t-16.5 -6.5q-9 0 -15.5 6.5t-6.5 15.5zM415 37q0 10 6.5 16.5t15.5 6.5q10 0 16.5 -6.5t6.5 -16.5q0 -9 -6.5 -15.5t-16.5 -6.5q-9 0 -15.5 6.5t-6.5 15.5zM415 137q0 10 6.5 16.5t15.5 6.5 q10 0 16.5 -6.5t6.5 -16.5q0 -9 -6.5 -15.5t-16.5 -6.5q-9 0 -15.5 6.5t-6.5 15.5zM415 237q0 10 6.5 16.5t15.5 6.5q10 0 16.5 -6.5t6.5 -16.5q0 -9 -6.5 -15.5t-16.5 -6.5q-9 0 -15.5 6.5t-6.5 15.5zM415 437q0 10 6.5 16.5t15.5 6.5q10 0 16.5 -6.5t6.5 -16.5 q0 -9 -6.5 -15.5t-16.5 -6.5q-9 0 -15.5 6.5t-6.5 15.5z" />
<glyph unicode="h" d="M15 37q0 10 6.5 16.5t15.5 6.5q10 0 16.5 -6.5t6.5 -16.5q0 -9 -6.5 -15.5t-16.5 -6.5q-9 0 -15.5 6.5t-6.5 15.5zM15 137q0 10 6.5 16.5t15.5 6.5q10 0 16.5 -6.5t6.5 -16.5q0 -9 -6.5 -15.5t-16.5 -6.5q-9 0 -15.5 6.5t-6.5 15.5zM15 237q0 10 6.5 16.5t15.5 6.5 q10 0 16.5 -6.5t6.5 -16.5q0 -9 -6.5 -15.5t-16.5 -6.5q-9 0 -15.5 6.5t-6.5 15.5zM15 337q0 10 6.5 16.5t15.5 6.5q10 0 16.5 -6.5t6.5 -16.5q0 -9 -6.5 -15.5t-16.5 -6.5q-9 0 -15.5 6.5t-6.5 15.5zM15 437q0 10 6.5 16.5t15.5 6.5q10 0 16.5 -6.5t6.5 -16.5 q0 -9 -6.5 -15.5t-16.5 -6.5q-9 0 -15.5 6.5t-6.5 15.5zM115 237q0 10 6.5 16.5t15.5 6.5q10 0 16.5 -6.5t6.5 -16.5q0 -9 -6.5 -15.5t-16.5 -6.5q-9 0 -15.5 6.5t-6.5 15.5zM215 237q0 10 6.5 16.5t15.5 6.5q10 0 16.5 -6.5t6.5 -16.5q0 -9 -6.5 -15.5t-16.5 -6.5 q-9 0 -15.5 6.5t-6.5 15.5zM315 237q0 10 6.5 16.5t15.5 6.5q10 0 16.5 -6.5t6.5 -16.5q0 -9 -6.5 -15.5t-16.5 -6.5q-9 0 -15.5 6.5t-6.5 15.5zM415 37q0 10 6.5 16.5t15.5 6.5q10 0 16.5 -6.5t6.5 -16.5q0 -9 -6.5 -15.5t-16.5 -6.5q-9 0 -15.5 6.5t-6.5 15.5zM415 137 q0 10 6.5 16.5t15.5 6.5q10 0 16.5 -6.5t6.5 -16.5q0 -9 -6.5 -15.5t-16.5 -6.5q-9 0 -15.5 6.5t-6.5 15.5zM415 237q0 10 6.5 16.5t15.5 6.5q10 0 16.5 -6.5t6.5 -16.5q0 -9 -6.5 -15.5t-16.5 -6.5q-9 0 -15.5 6.5t-6.5 15.5zM415 337q0 10 6.5 16.5t15.5 6.5 q10 0 16.5 -6.5t6.5 -16.5q0 -9 -6.5 -15.5t-16.5 -6.5q-9 0 -15.5 6.5t-6.5 15.5zM415 437q0 10 6.5 16.5t15.5 6.5q10 0 16.5 -6.5t6.5 -16.5q0 -9 -6.5 -15.5t-16.5 -6.5q-9 0 -15.5 6.5t-6.5 15.5z" />
<glyph unicode="i" d="M15 37q0 10 6.5 16.5t15.5 6.5q10 0 16.5 -6.5t6.5 -16.5q0 -9 -6.5 -15.5t-16.5 -6.5q-9 0 -15.5 6.5t-6.5 15.5zM15 437q0 10 6.5 16.5t15.5 6.5q10 0 16.5 -6.5t6.5 -16.5q0 -9 -6.5 -15.5t-16.5 -6.5q-9 0 -15.5 6.5t-6.5 15.5zM115 37q0 10 6.5 16.5t15.5 6.5 q10 0 16.5 -6.5t6.5 -16.5q0 -9 -6.5 -15.5t-16.5 -6.5q-9 0 -15.5 6.5t-6.5 15.5zM115 437q0 10 6.5 16.5t15.5 6.5q10 0 16.5 -6.5t6.5 -16.5q0 -9 -6.5 -15.5t-16.5 -6.5q-9 0 -15.5 6.5t-6.5 15.5zM215 37q0 10 6.5 16.5t15.5 6.5q10 0 16.5 -6.5t6.5 -16.5 q0 -9 -6.5 -15.5t-16.5 -6.5q-9 0 -15.5 6.5t-6.5 15.5zM215 137q0 10 6.5 16.5t15.5 6.5q10 0 16.5 -6.5t6.5 -16.5q0 -9 -6.5 -15.5t-16.5 -6.5q-9 0 -15.5 6.5t-6.5 15.5zM215 237q0 10 6.5 16.5t15.5 6.5q10 0 16.5 -6.5t6.5 -16.5q0 -9 -6.5 -15.5t-16.5 -6.5 q-9 0 -15.5 6.5t-6.5 15.5zM215 337q0 10 6.5 16.5t15.5 6.5q10 0 16.5 -6.5t6.5 -16.5q0 -9 -6.5 -15.5t-16.5 -6.5q-9 0 -15.5 6.5t-6.5 15.5zM215 437q0 10 6.5 16.5t15.5 6.5q10 0 16.5 -6.5t6.5 -16.5q0 -9 -6.5 -15.5t-16.5 -6.5q-9 0 -15.5 6.5t-6.5 15.5zM215 637 q0 10 6.5 16.5t15.5 6.5q10 0 16.5 -6.5t6.5 -16.5q0 -9 -6.5 -15.5t-16.5 -6.5q-9 0 -15.5 6.5t-6.5 15.5zM315 37q0 10 6.5 16.5t15.5 6.5q10 0 16.5 -6.5t6.5 -16.5q0 -9 -6.5 -15.5t-16.5 -6.5q-9 0 -15.5 6.5t-6.5 15.5zM415 37q0 10 6.5 16.5t15.5 6.5q10 0 16.5 -6.5 t6.5 -16.5q0 -9 -6.5 -15.5t-16.5 -6.5q-9 0 -15.5 6.5t-6.5 15.5z" />
<glyph unicode="j" d="M15 137q0 10 6.5 16.5t15.5 6.5q10 0 16.5 -6.5t6.5 -16.5q0 -9 -6.5 -15.5t-16.5 -6.5q-9 0 -15.5 6.5t-6.5 15.5zM15 437q0 10 6.5 16.5t15.5 6.5q10 0 16.5 -6.5t6.5 -16.5q0 -9 -6.5 -15.5t-16.5 -6.5q-9 0 -15.5 6.5t-6.5 15.5zM115 37q0 10 6.5 16.5t15.5 6.5 q10 0 16.5 -6.5t6.5 -16.5q0 -9 -6.5 -15.5t-16.5 -6.5q-9 0 -15.5 6.5t-6.5 15.5zM115 437q0 10 6.5 16.5t15.5 6.5q10 0 16.5 -6.5t6.5 -16.5q0 -9 -6.5 -15.5t-16.5 -6.5q-9 0 -15.5 6.5t-6.5 15.5zM215 37q0 10 6.5 16.5t15.5 6.5q10 0 16.5 -6.5t6.5 -16.5 q0 -9 -6.5 -15.5t-16.5 -6.5q-9 0 -15.5 6.5t-6.5 15.5zM215 437q0 10 6.5 16.5t15.5 6.5q10 0 16.5 -6.5t6.5 -16.5q0 -9 -6.5 -15.5t-16.5 -6.5q-9 0 -15.5 6.5t-6.5 15.5zM315 137q0 10 6.5 16.5t15.5 6.5q10 0 16.5 -6.5t6.5 -16.5q0 -9 -6.5 -15.5t-16.5 -6.5 q-9 0 -15.5 6.5t-6.5 15.5zM315 237q0 10 6.5 16.5t15.5 6.5q10 0 16.5 -6.5t6.5 -16.5q0 -9 -6.5 -15.5t-16.5 -6.5q-9 0 -15.5 6.5t-6.5 15.5zM315 337q0 10 6.5 16.5t15.5 6.5q10 0 16.5 -6.5t6.5 -16.5q0 -9 -6.5 -15.5t-16.5 -6.5q-9 0 -15.5 6.5t-6.5 15.5zM315 437 q0 10 6.5 16.5t15.5 6.5q10 0 16.5 -6.5t6.5 -16.5q0 -9 -6.5 -15.5t-16.5 -6.5q-9 0 -15.5 6.5t-6.5 15.5z" />
<glyph unicode="k" d="M15 37q0 10 6.5 16.5t15.5 6.5q10 0 16.5 -6.5t6.5 -16.5q0 -9 -6.5 -15.5t-16.5 -6.5q-9 0 -15.5 6.5t-6.5 15.5zM15 137q0 10 6.5 16.5t15.5 6.5q10 0 16.5 -6.5t6.5 -16.5q0 -9 -6.5 -15.5t-16.5 -6.5q-9 0 -15.5 6.5t-6.5 15.5zM15 237q0 10 6.5 16.5t15.5 6.5 q10 0 16.5 -6.5t6.5 -16.5q0 -9 -6.5 -15.5t-16.5 -6.5q-9 0 -15.5 6.5t-6.5 15.5zM15 337q0 10 6.5 16.5t15.5 6.5q10 0 16.5 -6.5t6.5 -16.5q0 -9 -6.5 -15.5t-16.5 -6.5q-9 0 -15.5 6.5t-6.5 15.5zM15 437q0 10 6.5 16.5t15.5 6.5q10 0 16.5 -6.5t6.5 -16.5 q0 -9 -6.5 -15.5t-16.5 -6.5q-9 0 -15.5 6.5t-6.5 15.5zM115 237q0 10 6.5 16.5t15.5 6.5q10 0 16.5 -6.5t6.5 -16.5q0 -9 -6.5 -15.5t-16.5 -6.5q-9 0 -15.5 6.5t-6.5 15.5zM215 237q0 10 6.5 16.5t15.5 6.5q10 0 16.5 -6.5t6.5 -16.5q0 -9 -6.5 -15.5t-16.5 -6.5 q-9 0 -15.5 6.5t-6.5 15.5zM315 237q0 10 6.5 16.5t15.5 6.5q10 0 16.5 -6.5t6.5 -16.5q0 -9 -6.5 -15.5t-16.5 -6.5q-9 0 -15.5 6.5t-6.5 15.5zM415 37q0 10 6.5 16.5t15.5 6.5q10 0 16.5 -6.5t6.5 -16.5q0 -9 -6.5 -15.5t-16.5 -6.5q-9 0 -15.5 6.5t-6.5 15.5zM415 137 q0 10 6.5 16.5t15.5 6.5q10 0 16.5 -6.5t6.5 -16.5q0 -9 -6.5 -15.5t-16.5 -6.5q-9 0 -15.5 6.5t-6.5 15.5zM415 337q0 10 6.5 16.5t15.5 6.5q10 0 16.5 -6.5t6.5 -16.5q0 -9 -6.5 -15.5t-16.5 -6.5q-9 0 -15.5 6.5t-6.5 15.5zM415 437q0 10 6.5 16.5t15.5 6.5 q10 0 16.5 -6.5t6.5 -16.5q0 -9 -6.5 -15.5t-16.5 -6.5q-9 0 -15.5 6.5t-6.5 15.5z" />
<glyph unicode="l" d="M15 37q0 10 6.5 16.5t15.5 6.5q10 0 16.5 -6.5t6.5 -16.5q0 -9 -6.5 -15.5t-16.5 -6.5q-9 0 -15.5 6.5t-6.5 15.5zM15 137q0 10 6.5 16.5t15.5 6.5q10 0 16.5 -6.5t6.5 -16.5q0 -9 -6.5 -15.5t-16.5 -6.5q-9 0 -15.5 6.5t-6.5 15.5zM15 237q0 10 6.5 16.5t15.5 6.5 q10 0 16.5 -6.5t6.5 -16.5q0 -9 -6.5 -15.5t-16.5 -6.5q-9 0 -15.5 6.5t-6.5 15.5zM15 337q0 10 6.5 16.5t15.5 6.5q10 0 16.5 -6.5t6.5 -16.5q0 -9 -6.5 -15.5t-16.5 -6.5q-9 0 -15.5 6.5t-6.5 15.5zM15 437q0 10 6.5 16.5t15.5 6.5q10 0 16.5 -6.5t6.5 -16.5 q0 -9 -6.5 -15.5t-16.5 -6.5q-9 0 -15.5 6.5t-6.5 15.5zM115 37q0 10 6.5 16.5t15.5 6.5q10 0 16.5 -6.5t6.5 -16.5q0 -9 -6.5 -15.5t-16.5 -6.5q-9 0 -15.5 6.5t-6.5 15.5zM215 37q0 10 6.5 16.5t15.5 6.5q10 0 16.5 -6.5t6.5 -16.5q0 -9 -6.5 -15.5t-16.5 -6.5 q-9 0 -15.5 6.5t-6.5 15.5zM315 37q0 10 6.5 16.5t15.5 6.5q10 0 16.5 -6.5t6.5 -16.5q0 -9 -6.5 -15.5t-16.5 -6.5q-9 0 -15.5 6.5t-6.5 15.5zM415 37q0 10 6.5 16.5t15.5 6.5q10 0 16.5 -6.5t6.5 -16.5q0 -9 -6.5 -15.5t-16.5 -6.5q-9 0 -15.5 6.5t-6.5 15.5z" />
<glyph unicode="m" d="M15 37q0 10 6.5 16.5t15.5 6.5q10 0 16.5 -6.5t6.5 -16.5q0 -9 -6.5 -15.5t-16.5 -6.5q-9 0 -15.5 6.5t-6.5 15.5zM15 137q0 10 6.5 16.5t15.5 6.5q10 0 16.5 -6.5t6.5 -16.5q0 -9 -6.5 -15.5t-16.5 -6.5q-9 0 -15.5 6.5t-6.5 15.5zM15 237q0 10 6.5 16.5t15.5 6.5 q10 0 16.5 -6.5t6.5 -16.5q0 -9 -6.5 -15.5t-16.5 -6.5q-9 0 -15.5 6.5t-6.5 15.5zM15 337q0 10 6.5 16.5t15.5 6.5q10 0 16.5 -6.5t6.5 -16.5q0 -9 -6.5 -15.5t-16.5 -6.5q-9 0 -15.5 6.5t-6.5 15.5zM15 437q0 10 6.5 16.5t15.5 6.5q10 0 16.5 -6.5t6.5 -16.5 q0 -9 -6.5 -15.5t-16.5 -6.5q-9 0 -15.5 6.5t-6.5 15.5zM115 337q0 10 6.5 16.5t15.5 6.5q10 0 16.5 -6.5t6.5 -16.5q0 -9 -6.5 -15.5t-16.5 -6.5q-9 0 -15.5 6.5t-6.5 15.5zM215 37q0 10 6.5 16.5t15.5 6.5q10 0 16.5 -6.5t6.5 -16.5q0 -9 -6.5 -15.5t-16.5 -6.5 q-9 0 -15.5 6.5t-6.5 15.5zM215 137q0 10 6.5 16.5t15.5 6.5q10 0 16.5 -6.5t6.5 -16.5q0 -9 -6.5 -15.5t-16.5 -6.5q-9 0 -15.5 6.5t-6.5 15.5zM215 237q0 10 6.5 16.5t15.5 6.5q10 0 16.5 -6.5t6.5 -16.5q0 -9 -6.5 -15.5t-16.5 -6.5q-9 0 -15.5 6.5t-6.5 15.5zM215 337 q0 10 6.5 16.5t15.5 6.5q10 0 16.5 -6.5t6.5 -16.5q0 -9 -6.5 -15.5t-16.5 -6.5q-9 0 -15.5 6.5t-6.5 15.5zM215 437q0 10 6.5 16.5t15.5 6.5q10 0 16.5 -6.5t6.5 -16.5q0 -9 -6.5 -15.5t-16.5 -6.5q-9 0 -15.5 6.5t-6.5 15.5zM315 337q0 10 6.5 16.5t15.5 6.5 q10 0 16.5 -6.5t6.5 -16.5q0 -9 -6.5 -15.5t-16.5 -6.5q-9 0 -15.5 6.5t-6.5 15.5zM415 37q0 10 6.5 16.5t15.5 6.5q10 0 16.5 -6.5t6.5 -16.5q0 -9 -6.5 -15.5t-16.5 -6.5q-9 0 -15.5 6.5t-6.5 15.5zM415 137q0 10 6.5 16.5t15.5 6.5q10 0 16.5 -6.5t6.5 -16.5 q0 -9 -6.5 -15.5t-16.5 -6.5q-9 0 -15.5 6.5t-6.5 15.5zM415 237q0 10 6.5 16.5t15.5 6.5q10 0 16.5 -6.5t6.5 -16.5q0 -9 -6.5 -15.5t-16.5 -6.5q-9 0 -15.5 6.5t-6.5 15.5zM415 337q0 10 6.5 16.5t15.5 6.5q10 0 16.5 -6.5t6.5 -16.5q0 -9 -6.5 -15.5t-16.5 -6.5 q-9 0 -15.5 6.5t-6.5 15.5zM415 437q0 10 6.5 16.5t15.5 6.5q10 0 16.5 -6.5t6.5 -16.5q0 -9 -6.5 -15.5t-16.5 -6.5q-9 0 -15.5 6.5t-6.5 15.5z" />
<glyph unicode="n" d="M15 37q0 10 6.5 16.5t15.5 6.5q10 0 16.5 -6.5t6.5 -16.5q0 -9 -6.5 -15.5t-16.5 -6.5q-9 0 -15.5 6.5t-6.5 15.5zM15 137q0 10 6.5 16.5t15.5 6.5q10 0 16.5 -6.5t6.5 -16.5q0 -9 -6.5 -15.5t-16.5 -6.5q-9 0 -15.5 6.5t-6.5 15.5zM15 237q0 10 6.5 16.5t15.5 6.5 q10 0 16.5 -6.5t6.5 -16.5q0 -9 -6.5 -15.5t-16.5 -6.5q-9 0 -15.5 6.5t-6.5 15.5zM15 337q0 10 6.5 16.5t15.5 6.5q10 0 16.5 -6.5t6.5 -16.5q0 -9 -6.5 -15.5t-16.5 -6.5q-9 0 -15.5 6.5t-6.5 15.5zM15 437q0 10 6.5 16.5t15.5 6.5q10 0 16.5 -6.5t6.5 -16.5 q0 -9 -6.5 -15.5t-16.5 -6.5q-9 0 -15.5 6.5t-6.5 15.5zM115 337q0 10 6.5 16.5t15.5 6.5q10 0 16.5 -6.5t6.5 -16.5q0 -9 -6.5 -15.5t-16.5 -6.5q-9 0 -15.5 6.5t-6.5 15.5zM215 437q0 10 6.5 16.5t15.5 6.5q10 0 16.5 -6.5t6.5 -16.5q0 -9 -6.5 -15.5t-16.5 -6.5 q-9 0 -15.5 6.5t-6.5 15.5zM315 437q0 10 6.5 16.5t15.5 6.5q10 0 16.5 -6.5t6.5 -16.5q0 -9 -6.5 -15.5t-16.5 -6.5q-9 0 -15.5 6.5t-6.5 15.5zM415 37q0 10 6.5 16.5t15.5 6.5q10 0 16.5 -6.5t6.5 -16.5q0 -9 -6.5 -15.5t-16.5 -6.5q-9 0 -15.5 6.5t-6.5 15.5zM415 137 q0 10 6.5 16.5t15.5 6.5q10 0 16.5 -6.5t6.5 -16.5q0 -9 -6.5 -15.5t-16.5 -6.5q-9 0 -15.5 6.5t-6.5 15.5zM415 237q0 10 6.5 16.5t15.5 6.5q10 0 16.5 -6.5t6.5 -16.5q0 -9 -6.5 -15.5t-16.5 -6.5q-9 0 -15.5 6.5t-6.5 15.5zM415 337q0 10 6.5 16.5t15.5 6.5 q10 0 16.5 -6.5t6.5 -16.5q0 -9 -6.5 -15.5t-16.5 -6.5q-9 0 -15.5 6.5t-6.5 15.5z" />
<glyph unicode="o" d="M15 137q0 10 6.5 16.5t15.5 6.5q10 0 16.5 -6.5t6.5 -16.5q0 -9 -6.5 -15.5t-16.5 -6.5q-9 0 -15.5 6.5t-6.5 15.5zM15 237q0 10 6.5 16.5t15.5 6.5q10 0 16.5 -6.5t6.5 -16.5q0 -9 -6.5 -15.5t-16.5 -6.5q-9 0 -15.5 6.5t-6.5 15.5zM15 337q0 10 6.5 16.5t15.5 6.5 q10 0 16.5 -6.5t6.5 -16.5q0 -9 -6.5 -15.5t-16.5 -6.5q-9 0 -15.5 6.5t-6.5 15.5zM115 37q0 10 6.5 16.5t15.5 6.5q10 0 16.5 -6.5t6.5 -16.5q0 -9 -6.5 -15.5t-16.5 -6.5q-9 0 -15.5 6.5t-6.5 15.5zM115 437q0 10 6.5 16.5t15.5 6.5q10 0 16.5 -6.5t6.5 -16.5 q0 -9 -6.5 -15.5t-16.5 -6.5q-9 0 -15.5 6.5t-6.5 15.5zM215 37q0 10 6.5 16.5t15.5 6.5q10 0 16.5 -6.5t6.5 -16.5q0 -9 -6.5 -15.5t-16.5 -6.5q-9 0 -15.5 6.5t-6.5 15.5zM215 437q0 10 6.5 16.5t15.5 6.5q10 0 16.5 -6.5t6.5 -16.5q0 -9 -6.5 -15.5t-16.5 -6.5 q-9 0 -15.5 6.5t-6.5 15.5zM315 37q0 10 6.5 16.5t15.5 6.5q10 0 16.5 -6.5t6.5 -16.5q0 -9 -6.5 -15.5t-16.5 -6.5q-9 0 -15.5 6.5t-6.5 15.5zM315 437q0 10 6.5 16.5t15.5 6.5q10 0 16.5 -6.5t6.5 -16.5q0 -9 -6.5 -15.5t-16.5 -6.5q-9 0 -15.5 6.5t-6.5 15.5zM415 137 q0 10 6.5 16.5t15.5 6.5q10 0 16.5 -6.5t6.5 -16.5q0 -9 -6.5 -15.5t-16.5 -6.5q-9 0 -15.5 6.5t-6.5 15.5zM415 237q0 10 6.5 16.5t15.5 6.5q10 0 16.5 -6.5t6.5 -16.5q0 -9 -6.5 -15.5t-16.5 -6.5q-9 0 -15.5 6.5t-6.5 15.5zM415 337q0 10 6.5 16.5t15.5 6.5 q10 0 16.5 -6.5t6.5 -16.5q0 -9 -6.5 -15.5t-16.5 -6.5q-9 0 -15.5 6.5t-6.5 15.5z" />
<glyph unicode="p" d="M15 37q0 10 6.5 16.5t15.5 6.5q10 0 16.5 -6.5t6.5 -16.5q0 -9 -6.5 -15.5t-16.5 -6.5q-9 0 -15.5 6.5t-6.5 15.5zM15 137q0 10 6.5 16.5t15.5 6.5q10 0 16.5 -6.5t6.5 -16.5q0 -9 -6.5 -15.5t-16.5 -6.5q-9 0 -15.5 6.5t-6.5 15.5zM15 237q0 10 6.5 16.5t15.5 6.5 q10 0 16.5 -6.5t6.5 -16.5q0 -9 -6.5 -15.5t-16.5 -6.5q-9 0 -15.5 6.5t-6.5 15.5zM15 337q0 10 6.5 16.5t15.5 6.5q10 0 16.5 -6.5t6.5 -16.5q0 -9 -6.5 -15.5t-16.5 -6.5q-9 0 -15.5 6.5t-6.5 15.5zM15 437q0 10 6.5 16.5t15.5 6.5q10 0 16.5 -6.5t6.5 -16.5 q0 -9 -6.5 -15.5t-16.5 -6.5q-9 0 -15.5 6.5t-6.5 15.5zM115 237q0 10 6.5 16.5t15.5 6.5q10 0 16.5 -6.5t6.5 -16.5q0 -9 -6.5 -15.5t-16.5 -6.5q-9 0 -15.5 6.5t-6.5 15.5zM115 437q0 10 6.5 16.5t15.5 6.5q10 0 16.5 -6.5t6.5 -16.5q0 -9 -6.5 -15.5t-16.5 -6.5 q-9 0 -15.5 6.5t-6.5 15.5zM215 237q0 10 6.5 16.5t15.5 6.5q10 0 16.5 -6.5t6.5 -16.5q0 -9 -6.5 -15.5t-16.5 -6.5q-9 0 -15.5 6.5t-6.5 15.5zM215 437q0 10 6.5 16.5t15.5 6.5q10 0 16.5 -6.5t6.5 -16.5q0 -9 -6.5 -15.5t-16.5 -6.5q-9 0 -15.5 6.5t-6.5 15.5zM315 237 q0 10 6.5 16.5t15.5 6.5q10 0 16.5 -6.5t6.5 -16.5q0 -9 -6.5 -15.5t-16.5 -6.5q-9 0 -15.5 6.5t-6.5 15.5zM315 437q0 10 6.5 16.5t15.5 6.5q10 0 16.5 -6.5t6.5 -16.5q0 -9 -6.5 -15.5t-16.5 -6.5q-9 0 -15.5 6.5t-6.5 15.5zM415 337q0 10 6.5 16.5t15.5 6.5 q10 0 16.5 -6.5t6.5 -16.5q0 -9 -6.5 -15.5t-16.5 -6.5q-9 0 -15.5 6.5t-6.5 15.5z" />
<glyph unicode="q" d="M15 137q0 10 6.5 16.5t15.5 6.5q10 0 16.5 -6.5t6.5 -16.5q0 -9 -6.5 -15.5t-16.5 -6.5q-9 0 -15.5 6.5t-6.5 15.5zM15 237q0 10 6.5 16.5t15.5 6.5q10 0 16.5 -6.5t6.5 -16.5q0 -9 -6.5 -15.5t-16.5 -6.5q-9 0 -15.5 6.5t-6.5 15.5zM15 337q0 10 6.5 16.5t15.5 6.5 q10 0 16.5 -6.5t6.5 -16.5q0 -9 -6.5 -15.5t-16.5 -6.5q-9 0 -15.5 6.5t-6.5 15.5zM115 37q0 10 6.5 16.5t15.5 6.5q10 0 16.5 -6.5t6.5 -16.5q0 -9 -6.5 -15.5t-16.5 -6.5q-9 0 -15.5 6.5t-6.5 15.5zM115 437q0 10 6.5 16.5t15.5 6.5q10 0 16.5 -6.5t6.5 -16.5 q0 -9 -6.5 -15.5t-16.5 -6.5q-9 0 -15.5 6.5t-6.5 15.5zM215 37q0 10 6.5 16.5t15.5 6.5q10 0 16.5 -6.5t6.5 -16.5q0 -9 -6.5 -15.5t-16.5 -6.5q-9 0 -15.5 6.5t-6.5 15.5zM215 -63q0 10 6.5 16.5t15.5 6.5q10 0 16.5 -6.5t6.5 -16.5q0 -9 -6.5 -15.5t-16.5 -6.5 q-9 0 -15.5 6.5t-6.5 15.5zM215 137q0 10 6.5 16.5t15.5 6.5q10 0 16.5 -6.5t6.5 -16.5q0 -9 -6.5 -15.5t-16.5 -6.5q-9 0 -15.5 6.5t-6.5 15.5zM215 437q0 10 6.5 16.5t15.5 6.5q10 0 16.5 -6.5t6.5 -16.5q0 -9 -6.5 -15.5t-16.5 -6.5q-9 0 -15.5 6.5t-6.5 15.5zM315 37 q0 10 6.5 16.5t15.5 6.5q10 0 16.5 -6.5t6.5 -16.5q0 -9 -6.5 -15.5t-16.5 -6.5q-9 0 -15.5 6.5t-6.5 15.5zM315 -163q0 10 6.5 16.5t15.5 6.5q10 0 16.5 -6.5t6.5 -16.5q0 -9 -6.5 -15.5t-16.5 -6.5q-9 0 -15.5 6.5t-6.5 15.5zM315 437q0 10 6.5 16.5t15.5 6.5 q10 0 16.5 -6.5t6.5 -16.5q0 -9 -6.5 -15.5t-16.5 -6.5q-9 0 -15.5 6.5t-6.5 15.5zM415 137q0 10 6.5 16.5t15.5 6.5q10 0 16.5 -6.5t6.5 -16.5q0 -9 -6.5 -15.5t-16.5 -6.5q-9 0 -15.5 6.5t-6.5 15.5zM415 237q0 10 6.5 16.5t15.5 6.5q10 0 16.5 -6.5t6.5 -16.5 q0 -9 -6.5 -15.5t-16.5 -6.5q-9 0 -15.5 6.5t-6.5 15.5zM415 337q0 10 6.5 16.5t15.5 6.5q10 0 16.5 -6.5t6.5 -16.5q0 -9 -6.5 -15.5t-16.5 -6.5q-9 0 -15.5 6.5t-6.5 15.5z" />
<glyph unicode="r" d="M15 37q0 10 6.5 16.5t15.5 6.5q10 0 16.5 -6.5t6.5 -16.5q0 -9 -6.5 -15.5t-16.5 -6.5q-9 0 -15.5 6.5t-6.5 15.5zM15 437q0 10 6.5 16.5t15.5 6.5q10 0 16.5 -6.5t6.5 -16.5q0 -9 -6.5 -15.5t-16.5 -6.5q-9 0 -15.5 6.5t-6.5 15.5zM115 37q0 10 6.5 16.5t15.5 6.5 q10 0 16.5 -6.5t6.5 -16.5q0 -9 -6.5 -15.5t-16.5 -6.5q-9 0 -15.5 6.5t-6.5 15.5zM115 137q0 10 6.5 16.5t15.5 6.5q10 0 16.5 -6.5t6.5 -16.5q0 -9 -6.5 -15.5t-16.5 -6.5q-9 0 -15.5 6.5t-6.5 15.5zM115 237q0 10 6.5 16.5t15.5 6.5q10 0 16.5 -6.5t6.5 -16.5 q0 -9 -6.5 -15.5t-16.5 -6.5q-9 0 -15.5 6.5t-6.5 15.5zM115 337q0 10 6.5 16.5t15.5 6.5q10 0 16.5 -6.5t6.5 -16.5q0 -9 -6.5 -15.5t-16.5 -6.5q-9 0 -15.5 6.5t-6.5 15.5zM115 437q0 10 6.5 16.5t15.5 6.5q10 0 16.5 -6.5t6.5 -16.5q0 -9 -6.5 -15.5t-16.5 -6.5 q-9 0 -15.5 6.5t-6.5 15.5zM215 37q0 10 6.5 16.5t15.5 6.5q10 0 16.5 -6.5t6.5 -16.5q0 -9 -6.5 -15.5t-16.5 -6.5q-9 0 -15.5 6.5t-6.5 15.5zM215 337q0 10 6.5 16.5t15.5 6.5q10 0 16.5 -6.5t6.5 -16.5q0 -9 -6.5 -15.5t-16.5 -6.5q-9 0 -15.5 6.5t-6.5 15.5zM315 37 q0 10 6.5 16.5t15.5 6.5q10 0 16.5 -6.5t6.5 -16.5q0 -9 -6.5 -15.5t-16.5 -6.5q-9 0 -15.5 6.5t-6.5 15.5zM315 437q0 10 6.5 16.5t15.5 6.5q10 0 16.5 -6.5t6.5 -16.5q0 -9 -6.5 -15.5t-16.5 -6.5q-9 0 -15.5 6.5t-6.5 15.5zM415 437q0 10 6.5 16.5t15.5 6.5 q10 0 16.5 -6.5t6.5 -16.5q0 -9 -6.5 -15.5t-16.5 -6.5q-9 0 -15.5 6.5t-6.5 15.5z" />
<glyph unicode="s" d="M15 37q0 10 6.5 16.5t15.5 6.5q10 0 16.5 -6.5t6.5 -16.5q0 -9 -6.5 -15.5t-16.5 -6.5q-9 0 -15.5 6.5t-6.5 15.5zM15 337q0 10 6.5 16.5t15.5 6.5q10 0 16.5 -6.5t6.5 -16.5q0 -9 -6.5 -15.5t-16.5 -6.5q-9 0 -15.5 6.5t-6.5 15.5zM115 37q0 10 6.5 16.5t15.5 6.5 q10 0 16.5 -6.5t6.5 -16.5q0 -9 -6.5 -15.5t-16.5 -6.5q-9 0 -15.5 6.5t-6.5 15.5zM115 237q0 10 6.5 16.5t15.5 6.5q10 0 16.5 -6.5t6.5 -16.5q0 -9 -6.5 -15.5t-16.5 -6.5q-9 0 -15.5 6.5t-6.5 15.5zM115 437q0 10 6.5 16.5t15.5 6.5q10 0 16.5 -6.5t6.5 -16.5 q0 -9 -6.5 -15.5t-16.5 -6.5q-9 0 -15.5 6.5t-6.5 15.5zM215 37q0 10 6.5 16.5t15.5 6.5q10 0 16.5 -6.5t6.5 -16.5q0 -9 -6.5 -15.5t-16.5 -6.5q-9 0 -15.5 6.5t-6.5 15.5zM215 237q0 10 6.5 16.5t15.5 6.5q10 0 16.5 -6.5t6.5 -16.5q0 -9 -6.5 -15.5t-16.5 -6.5 q-9 0 -15.5 6.5t-6.5 15.5zM215 437q0 10 6.5 16.5t15.5 6.5q10 0 16.5 -6.5t6.5 -16.5q0 -9 -6.5 -15.5t-16.5 -6.5q-9 0 -15.5 6.5t-6.5 15.5zM315 37q0 10 6.5 16.5t15.5 6.5q10 0 16.5 -6.5t6.5 -16.5q0 -9 -6.5 -15.5t-16.5 -6.5q-9 0 -15.5 6.5t-6.5 15.5zM315 237 q0 10 6.5 16.5t15.5 6.5q10 0 16.5 -6.5t6.5 -16.5q0 -9 -6.5 -15.5t-16.5 -6.5q-9 0 -15.5 6.5t-6.5 15.5zM315 437q0 10 6.5 16.5t15.5 6.5q10 0 16.5 -6.5t6.5 -16.5q0 -9 -6.5 -15.5t-16.5 -6.5q-9 0 -15.5 6.5t-6.5 15.5zM415 137q0 10 6.5 16.5t15.5 6.5 q10 0 16.5 -6.5t6.5 -16.5q0 -9 -6.5 -15.5t-16.5 -6.5q-9 0 -15.5 6.5t-6.5 15.5zM415 437q0 10 6.5 16.5t15.5 6.5q10 0 16.5 -6.5t6.5 -16.5q0 -9 -6.5 -15.5t-16.5 -6.5q-9 0 -15.5 6.5t-6.5 15.5z" />
<glyph unicode="t" d="M15 437q0 10 6.5 16.5t15.5 6.5q10 0 16.5 -6.5t6.5 -16.5q0 -9 -6.5 -15.5t-16.5 -6.5q-9 0 -15.5 6.5t-6.5 15.5zM115 437q0 10 6.5 16.5t15.5 6.5q10 0 16.5 -6.5t6.5 -16.5q0 -9 -6.5 -15.5t-16.5 -6.5q-9 0 -15.5 6.5t-6.5 15.5zM215 37q0 10 6.5 16.5t15.5 6.5 q10 0 16.5 -6.5t6.5 -16.5q0 -9 -6.5 -15.5t-16.5 -6.5q-9 0 -15.5 6.5t-6.5 15.5zM215 137q0 10 6.5 16.5t15.5 6.5q10 0 16.5 -6.5t6.5 -16.5q0 -9 -6.5 -15.5t-16.5 -6.5q-9 0 -15.5 6.5t-6.5 15.5zM215 237q0 10 6.5 16.5t15.5 6.5q10 0 16.5 -6.5t6.5 -16.5 q0 -9 -6.5 -15.5t-16.5 -6.5q-9 0 -15.5 6.5t-6.5 15.5zM215 337q0 10 6.5 16.5t15.5 6.5q10 0 16.5 -6.5t6.5 -16.5q0 -9 -6.5 -15.5t-16.5 -6.5q-9 0 -15.5 6.5t-6.5 15.5zM215 437q0 10 6.5 16.5t15.5 6.5q10 0 16.5 -6.5t6.5 -16.5q0 -9 -6.5 -15.5t-16.5 -6.5 q-9 0 -15.5 6.5t-6.5 15.5zM315 437q0 10 6.5 16.5t15.5 6.5q10 0 16.5 -6.5t6.5 -16.5q0 -9 -6.5 -15.5t-16.5 -6.5q-9 0 -15.5 6.5t-6.5 15.5zM415 437q0 10 6.5 16.5t15.5 6.5q10 0 16.5 -6.5t6.5 -16.5q0 -9 -6.5 -15.5t-16.5 -6.5q-9 0 -15.5 6.5t-6.5 15.5z" />
<glyph unicode="u" d="M15 137q0 10 6.5 16.5t15.5 6.5q10 0 16.5 -6.5t6.5 -16.5q0 -9 -6.5 -15.5t-16.5 -6.5q-9 0 -15.5 6.5t-6.5 15.5zM15 237q0 10 6.5 16.5t15.5 6.5q10 0 16.5 -6.5t6.5 -16.5q0 -9 -6.5 -15.5t-16.5 -6.5q-9 0 -15.5 6.5t-6.5 15.5zM15 337q0 10 6.5 16.5t15.5 6.5 q10 0 16.5 -6.5t6.5 -16.5q0 -9 -6.5 -15.5t-16.5 -6.5q-9 0 -15.5 6.5t-6.5 15.5zM15 437q0 10 6.5 16.5t15.5 6.5q10 0 16.5 -6.5t6.5 -16.5q0 -9 -6.5 -15.5t-16.5 -6.5q-9 0 -15.5 6.5t-6.5 15.5zM115 37q0 10 6.5 16.5t15.5 6.5q10 0 16.5 -6.5t6.5 -16.5 q0 -9 -6.5 -15.5t-16.5 -6.5q-9 0 -15.5 6.5t-6.5 15.5zM215 37q0 10 6.5 16.5t15.5 6.5q10 0 16.5 -6.5t6.5 -16.5q0 -9 -6.5 -15.5t-16.5 -6.5q-9 0 -15.5 6.5t-6.5 15.5zM315 137q0 10 6.5 16.5t15.5 6.5q10 0 16.5 -6.5t6.5 -16.5q0 -9 -6.5 -15.5t-16.5 -6.5 q-9 0 -15.5 6.5t-6.5 15.5zM415 37q0 10 6.5 16.5t15.5 6.5q10 0 16.5 -6.5t6.5 -16.5q0 -9 -6.5 -15.5t-16.5 -6.5q-9 0 -15.5 6.5t-6.5 15.5zM415 137q0 10 6.5 16.5t15.5 6.5q10 0 16.5 -6.5t6.5 -16.5q0 -9 -6.5 -15.5t-16.5 -6.5q-9 0 -15.5 6.5t-6.5 15.5zM415 237 q0 10 6.5 16.5t15.5 6.5q10 0 16.5 -6.5t6.5 -16.5q0 -9 -6.5 -15.5t-16.5 -6.5q-9 0 -15.5 6.5t-6.5 15.5zM415 337q0 10 6.5 16.5t15.5 6.5q10 0 16.5 -6.5t6.5 -16.5q0 -9 -6.5 -15.5t-16.5 -6.5q-9 0 -15.5 6.5t-6.5 15.5zM415 437q0 10 6.5 16.5t15.5 6.5 q10 0 16.5 -6.5t6.5 -16.5q0 -9 -6.5 -15.5t-16.5 -6.5q-9 0 -15.5 6.5t-6.5 15.5z" />
<glyph unicode="v" d="M15 337q0 10 6.5 16.5t15.5 6.5q10 0 16.5 -6.5t6.5 -16.5q0 -9 -6.5 -15.5t-16.5 -6.5q-9 0 -15.5 6.5t-6.5 15.5zM15 437q0 10 6.5 16.5t15.5 6.5q10 0 16.5 -6.5t6.5 -16.5q0 -9 -6.5 -15.5t-16.5 -6.5q-9 0 -15.5 6.5t-6.5 15.5zM115 137q0 10 6.5 16.5t15.5 6.5 q10 0 16.5 -6.5t6.5 -16.5q0 -9 -6.5 -15.5t-16.5 -6.5q-9 0 -15.5 6.5t-6.5 15.5zM115 237q0 10 6.5 16.5t15.5 6.5q10 0 16.5 -6.5t6.5 -16.5q0 -9 -6.5 -15.5t-16.5 -6.5q-9 0 -15.5 6.5t-6.5 15.5zM215 37q0 10 6.5 16.5t15.5 6.5q10 0 16.5 -6.5t6.5 -16.5 q0 -9 -6.5 -15.5t-16.5 -6.5q-9 0 -15.5 6.5t-6.5 15.5zM315 137q0 10 6.5 16.5t15.5 6.5q10 0 16.5 -6.5t6.5 -16.5q0 -9 -6.5 -15.5t-16.5 -6.5q-9 0 -15.5 6.5t-6.5 15.5zM315 237q0 10 6.5 16.5t15.5 6.5q10 0 16.5 -6.5t6.5 -16.5q0 -9 -6.5 -15.5t-16.5 -6.5 q-9 0 -15.5 6.5t-6.5 15.5zM415 337q0 10 6.5 16.5t15.5 6.5q10 0 16.5 -6.5t6.5 -16.5q0 -9 -6.5 -15.5t-16.5 -6.5q-9 0 -15.5 6.5t-6.5 15.5zM415 437q0 10 6.5 16.5t15.5 6.5q10 0 16.5 -6.5t6.5 -16.5q0 -9 -6.5 -15.5t-16.5 -6.5q-9 0 -15.5 6.5t-6.5 15.5z" />
<glyph unicode="w" d="M15 237q0 10 6.5 16.5t15.5 6.5q10 0 16.5 -6.5t6.5 -16.5q0 -9 -6.5 -15.5t-16.5 -6.5q-9 0 -15.5 6.5t-6.5 15.5zM15 337q0 10 6.5 16.5t15.5 6.5q10 0 16.5 -6.5t6.5 -16.5q0 -9 -6.5 -15.5t-16.5 -6.5q-9 0 -15.5 6.5t-6.5 15.5zM15 437q0 10 6.5 16.5t15.5 6.5 q10 0 16.5 -6.5t6.5 -16.5q0 -9 -6.5 -15.5t-16.5 -6.5q-9 0 -15.5 6.5t-6.5 15.5zM115 37q0 10 6.5 16.5t15.5 6.5q10 0 16.5 -6.5t6.5 -16.5q0 -9 -6.5 -15.5t-16.5 -6.5q-9 0 -15.5 6.5t-6.5 15.5zM115 137q0 10 6.5 16.5t15.5 6.5q10 0 16.5 -6.5t6.5 -16.5 q0 -9 -6.5 -15.5t-16.5 -6.5q-9 0 -15.5 6.5t-6.5 15.5zM215 237q0 10 6.5 16.5t15.5 6.5q10 0 16.5 -6.5t6.5 -16.5q0 -9 -6.5 -15.5t-16.5 -6.5q-9 0 -15.5 6.5t-6.5 15.5zM215 337q0 10 6.5 16.5t15.5 6.5q10 0 16.5 -6.5t6.5 -16.5q0 -9 -6.5 -15.5t-16.5 -6.5 q-9 0 -15.5 6.5t-6.5 15.5zM315 37q0 10 6.5 16.5t15.5 6.5q10 0 16.5 -6.5t6.5 -16.5q0 -9 -6.5 -15.5t-16.5 -6.5q-9 0 -15.5 6.5t-6.5 15.5zM315 137q0 10 6.5 16.5t15.5 6.5q10 0 16.5 -6.5t6.5 -16.5q0 -9 -6.5 -15.5t-16.5 -6.5q-9 0 -15.5 6.5t-6.5 15.5zM415 237 q0 10 6.5 16.5t15.5 6.5q10 0 16.5 -6.5t6.5 -16.5q0 -9 -6.5 -15.5t-16.5 -6.5q-9 0 -15.5 6.5t-6.5 15.5zM415 337q0 10 6.5 16.5t15.5 6.5q10 0 16.5 -6.5t6.5 -16.5q0 -9 -6.5 -15.5t-16.5 -6.5q-9 0 -15.5 6.5t-6.5 15.5zM415 437q0 10 6.5 16.5t15.5 6.5 q10 0 16.5 -6.5t6.5 -16.5q0 -9 -6.5 -15.5t-16.5 -6.5q-9 0 -15.5 6.5t-6.5 15.5z" />
<glyph unicode="x" d="M15 37q0 10 6.5 16.5t15.5 6.5q10 0 16.5 -6.5t6.5 -16.5q0 -9 -6.5 -15.5t-16.5 -6.5q-9 0 -15.5 6.5t-6.5 15.5zM15 137q0 10 6.5 16.5t15.5 6.5q10 0 16.5 -6.5t6.5 -16.5q0 -9 -6.5 -15.5t-16.5 -6.5q-9 0 -15.5 6.5t-6.5 15.5zM15 337q0 10 6.5 16.5t15.5 6.5 q10 0 16.5 -6.5t6.5 -16.5q0 -9 -6.5 -15.5t-16.5 -6.5q-9 0 -15.5 6.5t-6.5 15.5zM15 437q0 10 6.5 16.5t15.5 6.5q10 0 16.5 -6.5t6.5 -16.5q0 -9 -6.5 -15.5t-16.5 -6.5q-9 0 -15.5 6.5t-6.5 15.5zM115 237q0 10 6.5 16.5t15.5 6.5q10 0 16.5 -6.5t6.5 -16.5 q0 -9 -6.5 -15.5t-16.5 -6.5q-9 0 -15.5 6.5t-6.5 15.5zM215 237q0 10 6.5 16.5t15.5 6.5q10 0 16.5 -6.5t6.5 -16.5q0 -9 -6.5 -15.5t-16.5 -6.5q-9 0 -15.5 6.5t-6.5 15.5zM315 237q0 10 6.5 16.5t15.5 6.5q10 0 16.5 -6.5t6.5 -16.5q0 -9 -6.5 -15.5t-16.5 -6.5 q-9 0 -15.5 6.5t-6.5 15.5zM415 37q0 10 6.5 16.5t15.5 6.5q10 0 16.5 -6.5t6.5 -16.5q0 -9 -6.5 -15.5t-16.5 -6.5q-9 0 -15.5 6.5t-6.5 15.5zM415 137q0 10 6.5 16.5t15.5 6.5q10 0 16.5 -6.5t6.5 -16.5q0 -9 -6.5 -15.5t-16.5 -6.5q-9 0 -15.5 6.5t-6.5 15.5zM415 337 q0 10 6.5 16.5t15.5 6.5q10 0 16.5 -6.5t6.5 -16.5q0 -9 -6.5 -15.5t-16.5 -6.5q-9 0 -15.5 6.5t-6.5 15.5zM415 437q0 10 6.5 16.5t15.5 6.5q10 0 16.5 -6.5t6.5 -16.5q0 -9 -6.5 -15.5t-16.5 -6.5q-9 0 -15.5 6.5t-6.5 15.5z" />
<glyph unicode="y" d="M15 337q0 10 6.5 16.5t15.5 6.5q10 0 16.5 -6.5t6.5 -16.5q0 -9 -6.5 -15.5t-16.5 -6.5q-9 0 -15.5 6.5t-6.5 15.5zM15 437q0 10 6.5 16.5t15.5 6.5q10 0 16.5 -6.5t6.5 -16.5q0 -9 -6.5 -15.5t-16.5 -6.5q-9 0 -15.5 6.5t-6.5 15.5zM115 237q0 10 6.5 16.5t15.5 6.5 q10 0 16.5 -6.5t6.5 -16.5q0 -9 -6.5 -15.5t-16.5 -6.5q-9 0 -15.5 6.5t-6.5 15.5zM215 37q0 10 6.5 16.5t15.5 6.5q10 0 16.5 -6.5t6.5 -16.5q0 -9 -6.5 -15.5t-16.5 -6.5q-9 0 -15.5 6.5t-6.5 15.5zM215 137q0 10 6.5 16.5t15.5 6.5q10 0 16.5 -6.5t6.5 -16.5 q0 -9 -6.5 -15.5t-16.5 -6.5q-9 0 -15.5 6.5t-6.5 15.5zM315 237q0 10 6.5 16.5t15.5 6.5q10 0 16.5 -6.5t6.5 -16.5q0 -9 -6.5 -15.5t-16.5 -6.5q-9 0 -15.5 6.5t-6.5 15.5zM415 337q0 10 6.5 16.5t15.5 6.5q10 0 16.5 -6.5t6.5 -16.5q0 -9 -6.5 -15.5t-16.5 -6.5 q-9 0 -15.5 6.5t-6.5 15.5zM415 437q0 10 6.5 16.5t15.5 6.5q10 0 16.5 -6.5t6.5 -16.5q0 -9 -6.5 -15.5t-16.5 -6.5q-9 0 -15.5 6.5t-6.5 15.5z" />
<glyph unicode="z" d="M15 37q0 10 6.5 16.5t15.5 6.5q10 0 16.5 -6.5t6.5 -16.5q0 -9 -6.5 -15.5t-16.5 -6.5q-9 0 -15.5 6.5t-6.5 15.5zM15 437q0 10 6.5 16.5t15.5 6.5q10 0 16.5 -6.5t6.5 -16.5q0 -9 -6.5 -15.5t-16.5 -6.5q-9 0 -15.5 6.5t-6.5 15.5zM115 37q0 10 6.5 16.5t15.5 6.5 q10 0 16.5 -6.5t6.5 -16.5q0 -9 -6.5 -15.5t-16.5 -6.5q-9 0 -15.5 6.5t-6.5 15.5zM115 137q0 10 6.5 16.5t15.5 6.5q10 0 16.5 -6.5t6.5 -16.5q0 -9 -6.5 -15.5t-16.5 -6.5q-9 0 -15.5 6.5t-6.5 15.5zM115 437q0 10 6.5 16.5t15.5 6.5q10 0 16.5 -6.5t6.5 -16.5 q0 -9 -6.5 -15.5t-16.5 -6.5q-9 0 -15.5 6.5t-6.5 15.5zM215 37q0 10 6.5 16.5t15.5 6.5q10 0 16.5 -6.5t6.5 -16.5q0 -9 -6.5 -15.5t-16.5 -6.5q-9 0 -15.5 6.5t-6.5 15.5zM215 237q0 10 6.5 16.5t15.5 6.5q10 0 16.5 -6.5t6.5 -16.5q0 -9 -6.5 -15.5t-16.5 -6.5 q-9 0 -15.5 6.5t-6.5 15.5zM215 437q0 10 6.5 16.5t15.5 6.5q10 0 16.5 -6.5t6.5 -16.5q0 -9 -6.5 -15.5t-16.5 -6.5q-9 0 -15.5 6.5t-6.5 15.5zM315 37q0 10 6.5 16.5t15.5 6.5q10 0 16.5 -6.5t6.5 -16.5q0 -9 -6.5 -15.5t-16.5 -6.5q-9 0 -15.5 6.5t-6.5 15.5zM315 337 q0 10 6.5 16.5t15.5 6.5q10 0 16.5 -6.5t6.5 -16.5q0 -9 -6.5 -15.5t-16.5 -6.5q-9 0 -15.5 6.5t-6.5 15.5zM315 437q0 10 6.5 16.5t15.5 6.5q10 0 16.5 -6.5t6.5 -16.5q0 -9 -6.5 -15.5t-16.5 -6.5q-9 0 -15.5 6.5t-6.5 15.5zM415 37q0 10 6.5 16.5t15.5 6.5 q10 0 16.5 -6.5t6.5 -16.5q0 -9 -6.5 -15.5t-16.5 -6.5q-9 0 -15.5 6.5t-6.5 15.5zM415 437q0 10 6.5 16.5t15.5 6.5q10 0 16.5 -6.5t6.5 -16.5q0 -9 -6.5 -15.5t-16.5 -6.5q-9 0 -15.5 6.5t-6.5 15.5z" />
<glyph unicode="{" d="M115 237q0 10 6.5 16.5t15.5 6.5q10 0 16.5 -6.5t6.5 -16.5q0 -9 -6.5 -15.5t-16.5 -6.5q-9 0 -15.5 6.5t-6.5 15.5zM215 37q0 10 6.5 16.5t15.5 6.5q10 0 16.5 -6.5t6.5 -16.5q0 -9 -6.5 -15.5t-16.5 -6.5q-9 0 -15.5 6.5t-6.5 15.5zM215 137q0 10 6.5 16.5t15.5 6.5 q10 0 16.5 -6.5t6.5 -16.5q0 -9 -6.5 -15.5t-16.5 -6.5q-9 0 -15.5 6.5t-6.5 15.5zM215 337q0 10 6.5 16.5t15.5 6.5q10 0 16.5 -6.5t6.5 -16.5q0 -9 -6.5 -15.5t-16.5 -6.5q-9 0 -15.5 6.5t-6.5 15.5zM215 437q0 10 6.5 16.5t15.5 6.5q10 0 16.5 -6.5t6.5 -16.5 q0 -9 -6.5 -15.5t-16.5 -6.5q-9 0 -15.5 6.5t-6.5 15.5zM315 -63q0 10 6.5 16.5t15.5 6.5q10 0 16.5 -6.5t6.5 -16.5q0 -9 -6.5 -15.5t-16.5 -6.5q-9 0 -15.5 6.5t-6.5 15.5zM315 537q0 10 6.5 16.5t15.5 6.5q10 0 16.5 -6.5t6.5 -16.5q0 -9 -6.5 -15.5t-16.5 -6.5 q-9 0 -15.5 6.5t-6.5 15.5z" />
<glyph unicode="|" d="M215 37q0 10 6.5 16.5t15.5 6.5q10 0 16.5 -6.5t6.5 -16.5q0 -9 -6.5 -15.5t-16.5 -6.5q-9 0 -15.5 6.5t-6.5 15.5zM215 -63q0 10 6.5 16.5t15.5 6.5q10 0 16.5 -6.5t6.5 -16.5q0 -9 -6.5 -15.5t-16.5 -6.5q-9 0 -15.5 6.5t-6.5 15.5zM215 137q0 10 6.5 16.5t15.5 6.5 q10 0 16.5 -6.5t6.5 -16.5q0 -9 -6.5 -15.5t-16.5 -6.5q-9 0 -15.5 6.5t-6.5 15.5zM215 237q0 10 6.5 16.5t15.5 6.5q10 0 16.5 -6.5t6.5 -16.5q0 -9 -6.5 -15.5t-16.5 -6.5q-9 0 -15.5 6.5t-6.5 15.5zM215 337q0 10 6.5 16.5t15.5 6.5q10 0 16.5 -6.5t6.5 -16.5 q0 -9 -6.5 -15.5t-16.5 -6.5q-9 0 -15.5 6.5t-6.5 15.5zM215 437q0 10 6.5 16.5t15.5 6.5q10 0 16.5 -6.5t6.5 -16.5q0 -9 -6.5 -15.5t-16.5 -6.5q-9 0 -15.5 6.5t-6.5 15.5zM215 537q0 10 6.5 16.5t15.5 6.5q10 0 16.5 -6.5t6.5 -16.5q0 -9 -6.5 -15.5t-16.5 -6.5 q-9 0 -15.5 6.5t-6.5 15.5z" />
<glyph unicode="}" d="M115 -63q0 10 6.5 16.5t15.5 6.5q10 0 16.5 -6.5t6.5 -16.5q0 -9 -6.5 -15.5t-16.5 -6.5q-9 0 -15.5 6.5t-6.5 15.5zM115 537q0 10 6.5 16.5t15.5 6.5q10 0 16.5 -6.5t6.5 -16.5q0 -9 -6.5 -15.5t-16.5 -6.5q-9 0 -15.5 6.5t-6.5 15.5zM215 37q0 10 6.5 16.5t15.5 6.5 q10 0 16.5 -6.5t6.5 -16.5q0 -9 -6.5 -15.5t-16.5 -6.5q-9 0 -15.5 6.5t-6.5 15.5zM215 137q0 10 6.5 16.5t15.5 6.5q10 0 16.5 -6.5t6.5 -16.5q0 -9 -6.5 -15.5t-16.5 -6.5q-9 0 -15.5 6.5t-6.5 15.5zM215 337q0 10 6.5 16.5t15.5 6.5q10 0 16.5 -6.5t6.5 -16.5 q0 -9 -6.5 -15.5t-16.5 -6.5q-9 0 -15.5 6.5t-6.5 15.5zM215 437q0 10 6.5 16.5t15.5 6.5q10 0 16.5 -6.5t6.5 -16.5q0 -9 -6.5 -15.5t-16.5 -6.5q-9 0 -15.5 6.5t-6.5 15.5zM315 237q0 10 6.5 16.5t15.5 6.5q10 0 16.5 -6.5t6.5 -16.5q0 -9 -6.5 -15.5t-16.5 -6.5 q-9 0 -15.5 6.5t-6.5 15.5z" />
<glyph unicode="~" d="M15 337q0 10 6.5 16.5t15.5 6.5q10 0 16.5 -6.5t6.5 -16.5q0 -9 -6.5 -15.5t-16.5 -6.5q-9 0 -15.5 6.5t-6.5 15.5zM115 437q0 10 6.5 16.5t15.5 6.5q10 0 16.5 -6.5t6.5 -16.5q0 -9 -6.5 -15.5t-16.5 -6.5q-9 0 -15.5 6.5t-6.5 15.5zM215 337q0 10 6.5 16.5t15.5 6.5 q10 0 16.5 -6.5t6.5 -16.5q0 -9 -6.5 -15.5t-16.5 -6.5q-9 0 -15.5 6.5t-6.5 15.5zM315 237q0 10 6.5 16.5t15.5 6.5q10 0 16.5 -6.5t6.5 -16.5q0 -9 -6.5 -15.5t-16.5 -6.5q-9 0 -15.5 6.5t-6.5 15.5zM415 337q0 10 6.5 16.5t15.5 6.5q10 0 16.5 -6.5t6.5 -16.5 q0 -9 -6.5 -15.5t-16.5 -6.5q-9 0 -15.5 6.5t-6.5 15.5z" />
<glyph unicode="&#xa0;" />
<glyph unicode="&#xa2;" d="M15 137q0 10 6.5 16.5t15.5 6.5q10 0 16.5 -6.5t6.5 -16.5q0 -9 -6.5 -15.5t-16.5 -6.5q-9 0 -15.5 6.5t-6.5 15.5zM15 237q0 10 6.5 16.5t15.5 6.5q10 0 16.5 -6.5t6.5 -16.5q0 -9 -6.5 -15.5t-16.5 -6.5q-9 0 -15.5 6.5t-6.5 15.5zM15 337q0 10 6.5 16.5t15.5 6.5 q10 0 16.5 -6.5t6.5 -16.5q0 -9 -6.5 -15.5t-16.5 -6.5q-9 0 -15.5 6.5t-6.5 15.5zM115 37q0 10 6.5 16.5t15.5 6.5q10 0 16.5 -6.5t6.5 -16.5q0 -9 -6.5 -15.5t-16.5 -6.5q-9 0 -15.5 6.5t-6.5 15.5zM115 437q0 10 6.5 16.5t15.5 6.5q10 0 16.5 -6.5t6.5 -16.5 q0 -9 -6.5 -15.5t-16.5 -6.5q-9 0 -15.5 6.5t-6.5 15.5zM215 37q0 10 6.5 16.5t15.5 6.5q10 0 16.5 -6.5t6.5 -16.5q0 -9 -6.5 -15.5t-16.5 -6.5q-9 0 -15.5 6.5t-6.5 15.5zM215 -63q0 10 6.5 16.5t15.5 6.5q10 0 16.5 -6.5t6.5 -16.5q0 -9 -6.5 -15.5t-16.5 -6.5 q-9 0 -15.5 6.5t-6.5 15.5zM215 137q0 10 6.5 16.5t15.5 6.5q10 0 16.5 -6.5t6.5 -16.5q0 -9 -6.5 -15.5t-16.5 -6.5q-9 0 -15.5 6.5t-6.5 15.5zM215 237q0 10 6.5 16.5t15.5 6.5q10 0 16.5 -6.5t6.5 -16.5q0 -9 -6.5 -15.5t-16.5 -6.5q-9 0 -15.5 6.5t-6.5 15.5zM215 337 q0 10 6.5 16.5t15.5 6.5q10 0 16.5 -6.5t6.5 -16.5q0 -9 -6.5 -15.5t-16.5 -6.5q-9 0 -15.5 6.5t-6.5 15.5zM215 437q0 10 6.5 16.5t15.5 6.5q10 0 16.5 -6.5t6.5 -16.5q0 -9 -6.5 -15.5t-16.5 -6.5q-9 0 -15.5 6.5t-6.5 15.5zM215 537q0 10 6.5 16.5t15.5 6.5 q10 0 16.5 -6.5t6.5 -16.5q0 -9 -6.5 -15.5t-16.5 -6.5q-9 0 -15.5 6.5t-6.5 15.5zM315 37q0 10 6.5 16.5t15.5 6.5q10 0 16.5 -6.5t6.5 -16.5q0 -9 -6.5 -15.5t-16.5 -6.5q-9 0 -15.5 6.5t-6.5 15.5zM315 437q0 10 6.5 16.5t15.5 6.5q10 0 16.5 -6.5t6.5 -16.5 q0 -9 -6.5 -15.5t-16.5 -6.5q-9 0 -15.5 6.5t-6.5 15.5zM415 137q0 10 6.5 16.5t15.5 6.5q10 0 16.5 -6.5t6.5 -16.5q0 -9 -6.5 -15.5t-16.5 -6.5q-9 0 -15.5 6.5t-6.5 15.5zM415 337q0 10 6.5 16.5t15.5 6.5q10 0 16.5 -6.5t6.5 -16.5q0 -9 -6.5 -15.5t-16.5 -6.5 q-9 0 -15.5 6.5t-6.5 15.5z" />
<glyph unicode="&#xa3;" d="M15 37q0 10 6.5 16.5t15.5 6.5q10 0 16.5 -6.5t6.5 -16.5q0 -9 -6.5 -15.5t-16.5 -6.5q-9 0 -15.5 6.5t-6.5 15.5zM15 237q0 10 6.5 16.5t15.5 6.5q10 0 16.5 -6.5t6.5 -16.5q0 -9 -6.5 -15.5t-16.5 -6.5q-9 0 -15.5 6.5t-6.5 15.5zM115 37q0 10 6.5 16.5t15.5 6.5 q10 0 16.5 -6.5t6.5 -16.5q0 -9 -6.5 -15.5t-16.5 -6.5q-9 0 -15.5 6.5t-6.5 15.5zM115 137q0 10 6.5 16.5t15.5 6.5q10 0 16.5 -6.5t6.5 -16.5q0 -9 -6.5 -15.5t-16.5 -6.5q-9 0 -15.5 6.5t-6.5 15.5zM115 237q0 10 6.5 16.5t15.5 6.5q10 0 16.5 -6.5t6.5 -16.5 q0 -9 -6.5 -15.5t-16.5 -6.5q-9 0 -15.5 6.5t-6.5 15.5zM115 337q0 10 6.5 16.5t15.5 6.5q10 0 16.5 -6.5t6.5 -16.5q0 -9 -6.5 -15.5t-16.5 -6.5q-9 0 -15.5 6.5t-6.5 15.5zM215 37q0 10 6.5 16.5t15.5 6.5q10 0 16.5 -6.5t6.5 -16.5q0 -9 -6.5 -15.5t-16.5 -6.5 q-9 0 -15.5 6.5t-6.5 15.5zM215 237q0 10 6.5 16.5t15.5 6.5q10 0 16.5 -6.5t6.5 -16.5q0 -9 -6.5 -15.5t-16.5 -6.5q-9 0 -15.5 6.5t-6.5 15.5zM215 437q0 10 6.5 16.5t15.5 6.5q10 0 16.5 -6.5t6.5 -16.5q0 -9 -6.5 -15.5t-16.5 -6.5q-9 0 -15.5 6.5t-6.5 15.5zM315 37 q0 10 6.5 16.5t15.5 6.5q10 0 16.5 -6.5t6.5 -16.5q0 -9 -6.5 -15.5t-16.5 -6.5q-9 0 -15.5 6.5t-6.5 15.5zM315 237q0 10 6.5 16.5t15.5 6.5q10 0 16.5 -6.5t6.5 -16.5q0 -9 -6.5 -15.5t-16.5 -6.5q-9 0 -15.5 6.5t-6.5 15.5zM315 437q0 10 6.5 16.5t15.5 6.5 q10 0 16.5 -6.5t6.5 -16.5q0 -9 -6.5 -15.5t-16.5 -6.5q-9 0 -15.5 6.5t-6.5 15.5zM415 37q0 10 6.5 16.5t15.5 6.5q10 0 16.5 -6.5t6.5 -16.5q0 -9 -6.5 -15.5t-16.5 -6.5q-9 0 -15.5 6.5t-6.5 15.5z" />
<glyph unicode="&#xa5;" d="M15 137q0 10 6.5 16.5t15.5 6.5q10 0 16.5 -6.5t6.5 -16.5q0 -9 -6.5 -15.5t-16.5 -6.5q-9 0 -15.5 6.5t-6.5 15.5zM15 437q0 10 6.5 16.5t15.5 6.5q10 0 16.5 -6.5t6.5 -16.5q0 -9 -6.5 -15.5t-16.5 -6.5q-9 0 -15.5 6.5t-6.5 15.5zM115 137q0 10 6.5 16.5t15.5 6.5 q10 0 16.5 -6.5t6.5 -16.5q0 -9 -6.5 -15.5t-16.5 -6.5q-9 0 -15.5 6.5t-6.5 15.5zM115 337q0 10 6.5 16.5t15.5 6.5q10 0 16.5 -6.5t6.5 -16.5q0 -9 -6.5 -15.5t-16.5 -6.5q-9 0 -15.5 6.5t-6.5 15.5zM215 37q0 10 6.5 16.5t15.5 6.5q10 0 16.5 -6.5t6.5 -16.5 q0 -9 -6.5 -15.5t-16.5 -6.5q-9 0 -15.5 6.5t-6.5 15.5zM215 137q0 10 6.5 16.5t15.5 6.5q10 0 16.5 -6.5t6.5 -16.5q0 -9 -6.5 -15.5t-16.5 -6.5q-9 0 -15.5 6.5t-6.5 15.5zM215 237q0 10 6.5 16.5t15.5 6.5q10 0 16.5 -6.5t6.5 -16.5q0 -9 -6.5 -15.5t-16.5 -6.5 q-9 0 -15.5 6.5t-6.5 15.5zM315 137q0 10 6.5 16.5t15.5 6.5q10 0 16.5 -6.5t6.5 -16.5q0 -9 -6.5 -15.5t-16.5 -6.5q-9 0 -15.5 6.5t-6.5 15.5zM315 337q0 10 6.5 16.5t15.5 6.5q10 0 16.5 -6.5t6.5 -16.5q0 -9 -6.5 -15.5t-16.5 -6.5q-9 0 -15.5 6.5t-6.5 15.5zM415 137 q0 10 6.5 16.5t15.5 6.5q10 0 16.5 -6.5t6.5 -16.5q0 -9 -6.5 -15.5t-16.5 -6.5q-9 0 -15.5 6.5t-6.5 15.5zM415 437q0 10 6.5 16.5t15.5 6.5q10 0 16.5 -6.5t6.5 -16.5q0 -9 -6.5 -15.5t-16.5 -6.5q-9 0 -15.5 6.5t-6.5 15.5z" />
<glyph unicode="&#xa9;" d="M15 137q0 10 6.5 16.5t15.5 6.5q10 0 16.5 -6.5t6.5 -16.5q0 -9 -6.5 -15.5t-16.5 -6.5q-9 0 -15.5 6.5t-6.5 15.5zM15 237q0 10 6.5 16.5t15.5 6.5q10 0 16.5 -6.5t6.5 -16.5q0 -9 -6.5 -15.5t-16.5 -6.5q-9 0 -15.5 6.5t-6.5 15.5zM15 337q0 10 6.5 16.5t15.5 6.5 q10 0 16.5 -6.5t6.5 -16.5q0 -9 -6.5 -15.5t-16.5 -6.5q-9 0 -15.5 6.5t-6.5 15.5zM115 37q0 10 6.5 16.5t15.5 6.5q10 0 16.5 -6.5t6.5 -16.5q0 -9 -6.5 -15.5t-16.5 -6.5q-9 0 -15.5 6.5t-6.5 15.5zM115 237q0 10 6.5 16.5t15.5 6.5q10 0 16.5 -6.5t6.5 -16.5 q0 -9 -6.5 -15.5t-16.5 -6.5q-9 0 -15.5 6.5t-6.5 15.5zM115 437q0 10 6.5 16.5t15.5 6.5q10 0 16.5 -6.5t6.5 -16.5q0 -9 -6.5 -15.5t-16.5 -6.5q-9 0 -15.5 6.5t-6.5 15.5zM215 37q0 10 6.5 16.5t15.5 6.5q10 0 16.5 -6.5t6.5 -16.5q0 -9 -6.5 -15.5t-16.5 -6.5 q-9 0 -15.5 6.5t-6.5 15.5zM215 137q0 10 6.5 16.5t15.5 6.5q10 0 16.5 -6.5t6.5 -16.5q0 -9 -6.5 -15.5t-16.5 -6.5q-9 0 -15.5 6.5t-6.5 15.5zM215 337q0 10 6.5 16.5t15.5 6.5q10 0 16.5 -6.5t6.5 -16.5q0 -9 -6.5 -15.5t-16.5 -6.5q-9 0 -15.5 6.5t-6.5 15.5zM215 437 q0 10 6.5 16.5t15.5 6.5q10 0 16.5 -6.5t6.5 -16.5q0 -9 -6.5 -15.5t-16.5 -6.5q-9 0 -15.5 6.5t-6.5 15.5zM315 37q0 10 6.5 16.5t15.5 6.5q10 0 16.5 -6.5t6.5 -16.5q0 -9 -6.5 -15.5t-16.5 -6.5q-9 0 -15.5 6.5t-6.5 15.5zM315 437q0 10 6.5 16.5t15.5 6.5 q10 0 16.5 -6.5t6.5 -16.5q0 -9 -6.5 -15.5t-16.5 -6.5q-9 0 -15.5 6.5t-6.5 15.5zM415 137q0 10 6.5 16.5t15.5 6.5q10 0 16.5 -6.5t6.5 -16.5q0 -9 -6.5 -15.5t-16.5 -6.5q-9 0 -15.5 6.5t-6.5 15.5zM415 237q0 10 6.5 16.5t15.5 6.5q10 0 16.5 -6.5t6.5 -16.5 q0 -9 -6.5 -15.5t-16.5 -6.5q-9 0 -15.5 6.5t-6.5 15.5zM415 337q0 10 6.5 16.5t15.5 6.5q10 0 16.5 -6.5t6.5 -16.5q0 -9 -6.5 -15.5t-16.5 -6.5q-9 0 -15.5 6.5t-6.5 15.5z" />
<glyph unicode="&#xad;" d="M115 237q0 10 6.5 16.5t15.5 6.5q10 0 16.5 -6.5t6.5 -16.5q0 -9 -6.5 -15.5t-16.5 -6.5q-9 0 -15.5 6.5t-6.5 15.5zM215 237q0 10 6.5 16.5t15.5 6.5q10 0 16.5 -6.5t6.5 -16.5q0 -9 -6.5 -15.5t-16.5 -6.5q-9 0 -15.5 6.5t-6.5 15.5zM315 237q0 10 6.5 16.5t15.5 6.5 q10 0 16.5 -6.5t6.5 -16.5q0 -9 -6.5 -15.5t-16.5 -6.5q-9 0 -15.5 6.5t-6.5 15.5z" />
<glyph unicode="&#xae;" d="M15 237q0 10 6.5 16.5t15.5 6.5q10 0 16.5 -6.5t6.5 -16.5q0 -9 -6.5 -15.5t-16.5 -6.5q-9 0 -15.5 6.5t-6.5 15.5zM15 337q0 10 6.5 16.5t15.5 6.5q10 0 16.5 -6.5t6.5 -16.5q0 -9 -6.5 -15.5t-16.5 -6.5q-9 0 -15.5 6.5t-6.5 15.5zM15 437q0 10 6.5 16.5t15.5 6.5 q10 0 16.5 -6.5t6.5 -16.5q0 -9 -6.5 -15.5t-16.5 -6.5q-9 0 -15.5 6.5t-6.5 15.5zM115 137q0 10 6.5 16.5t15.5 6.5q10 0 16.5 -6.5t6.5 -16.5q0 -9 -6.5 -15.5t-16.5 -6.5q-9 0 -15.5 6.5t-6.5 15.5zM115 537q0 10 6.5 16.5t15.5 6.5q10 0 16.5 -6.5t6.5 -16.5 q0 -9 -6.5 -15.5t-16.5 -6.5q-9 0 -15.5 6.5t-6.5 15.5zM215 137q0 10 6.5 16.5t15.5 6.5q10 0 16.5 -6.5t6.5 -16.5q0 -9 -6.5 -15.5t-16.5 -6.5q-9 0 -15.5 6.5t-6.5 15.5zM215 337q0 10 6.5 16.5t15.5 6.5q10 0 16.5 -6.5t6.5 -16.5q0 -9 -6.5 -15.5t-16.5 -6.5 q-9 0 -15.5 6.5t-6.5 15.5zM215 437q0 10 6.5 16.5t15.5 6.5q10 0 16.5 -6.5t6.5 -16.5q0 -9 -6.5 -15.5t-16.5 -6.5q-9 0 -15.5 6.5t-6.5 15.5zM215 537q0 10 6.5 16.5t15.5 6.5q10 0 16.5 -6.5t6.5 -16.5q0 -9 -6.5 -15.5t-16.5 -6.5q-9 0 -15.5 6.5t-6.5 15.5zM315 137 q0 10 6.5 16.5t15.5 6.5q10 0 16.5 -6.5t6.5 -16.5q0 -9 -6.5 -15.5t-16.5 -6.5q-9 0 -15.5 6.5t-6.5 15.5zM315 237q0 10 6.5 16.5t15.5 6.5q10 0 16.5 -6.5t6.5 -16.5q0 -9 -6.5 -15.5t-16.5 -6.5q-9 0 -15.5 6.5t-6.5 15.5zM315 437q0 10 6.5 16.5t15.5 6.5 q10 0 16.5 -6.5t6.5 -16.5q0 -9 -6.5 -15.5t-16.5 -6.5q-9 0 -15.5 6.5t-6.5 15.5zM315 537q0 10 6.5 16.5t15.5 6.5q10 0 16.5 -6.5t6.5 -16.5q0 -9 -6.5 -15.5t-16.5 -6.5q-9 0 -15.5 6.5t-6.5 15.5zM415 237q0 10 6.5 16.5t15.5 6.5q10 0 16.5 -6.5t6.5 -16.5 q0 -9 -6.5 -15.5t-16.5 -6.5q-9 0 -15.5 6.5t-6.5 15.5zM415 337q0 10 6.5 16.5t15.5 6.5q10 0 16.5 -6.5t6.5 -16.5q0 -9 -6.5 -15.5t-16.5 -6.5q-9 0 -15.5 6.5t-6.5 15.5zM415 437q0 10 6.5 16.5t15.5 6.5q10 0 16.5 -6.5t6.5 -16.5q0 -9 -6.5 -15.5t-16.5 -6.5 q-9 0 -15.5 6.5t-6.5 15.5z" />
<glyph unicode="&#xb4;" d="M115 637q0 10 6.5 16.5t15.5 6.5q10 0 16.5 -6.5t6.5 -16.5q0 -9 -6.5 -15.5t-16.5 -6.5q-9 0 -15.5 6.5t-6.5 15.5zM215 637q0 10 6.5 16.5t15.5 6.5q10 0 16.5 -6.5t6.5 -16.5q0 -9 -6.5 -15.5t-16.5 -6.5q-9 0 -15.5 6.5t-6.5 15.5zM315 737q0 10 6.5 16.5t15.5 6.5 q10 0 16.5 -6.5t6.5 -16.5q0 -9 -6.5 -15.5t-16.5 -6.5q-9 0 -15.5 6.5t-6.5 15.5z" />
<glyph unicode="&#x2000;" horiz-adv-x="380" />
<glyph unicode="&#x2001;" horiz-adv-x="760" />
<glyph unicode="&#x2002;" horiz-adv-x="380" />
<glyph unicode="&#x2003;" horiz-adv-x="760" />
<glyph unicode="&#x2004;" horiz-adv-x="253" />
<glyph unicode="&#x2005;" horiz-adv-x="190" />
<glyph unicode="&#x2006;" horiz-adv-x="126" />
<glyph unicode="&#x2007;" horiz-adv-x="126" />
<glyph unicode="&#x2008;" horiz-adv-x="95" />
<glyph unicode="&#x2009;" horiz-adv-x="152" />
<glyph unicode="&#x200a;" horiz-adv-x="42" />
<glyph unicode="&#x2010;" d="M115 237q0 10 6.5 16.5t15.5 6.5q10 0 16.5 -6.5t6.5 -16.5q0 -9 -6.5 -15.5t-16.5 -6.5q-9 0 -15.5 6.5t-6.5 15.5zM215 237q0 10 6.5 16.5t15.5 6.5q10 0 16.5 -6.5t6.5 -16.5q0 -9 -6.5 -15.5t-16.5 -6.5q-9 0 -15.5 6.5t-6.5 15.5zM315 237q0 10 6.5 16.5t15.5 6.5 q10 0 16.5 -6.5t6.5 -16.5q0 -9 -6.5 -15.5t-16.5 -6.5q-9 0 -15.5 6.5t-6.5 15.5z" />
<glyph unicode="&#x2011;" d="M115 237q0 10 6.5 16.5t15.5 6.5q10 0 16.5 -6.5t6.5 -16.5q0 -9 -6.5 -15.5t-16.5 -6.5q-9 0 -15.5 6.5t-6.5 15.5zM215 237q0 10 6.5 16.5t15.5 6.5q10 0 16.5 -6.5t6.5 -16.5q0 -9 -6.5 -15.5t-16.5 -6.5q-9 0 -15.5 6.5t-6.5 15.5zM315 237q0 10 6.5 16.5t15.5 6.5 q10 0 16.5 -6.5t6.5 -16.5q0 -9 -6.5 -15.5t-16.5 -6.5q-9 0 -15.5 6.5t-6.5 15.5z" />
<glyph unicode="&#x2012;" d="M115 237q0 10 6.5 16.5t15.5 6.5q10 0 16.5 -6.5t6.5 -16.5q0 -9 -6.5 -15.5t-16.5 -6.5q-9 0 -15.5 6.5t-6.5 15.5zM215 237q0 10 6.5 16.5t15.5 6.5q10 0 16.5 -6.5t6.5 -16.5q0 -9 -6.5 -15.5t-16.5 -6.5q-9 0 -15.5 6.5t-6.5 15.5zM315 237q0 10 6.5 16.5t15.5 6.5 q10 0 16.5 -6.5t6.5 -16.5q0 -9 -6.5 -15.5t-16.5 -6.5q-9 0 -15.5 6.5t-6.5 15.5z" />
<glyph unicode="&#x2013;" d="M115 237q0 10 6.5 16.5t15.5 6.5q10 0 16.5 -6.5t6.5 -16.5q0 -9 -6.5 -15.5t-16.5 -6.5q-9 0 -15.5 6.5t-6.5 15.5zM215 237q0 10 6.5 16.5t15.5 6.5q10 0 16.5 -6.5t6.5 -16.5q0 -9 -6.5 -15.5t-16.5 -6.5q-9 0 -15.5 6.5t-6.5 15.5zM315 237q0 10 6.5 16.5t15.5 6.5 q10 0 16.5 -6.5t6.5 -16.5q0 -9 -6.5 -15.5t-16.5 -6.5q-9 0 -15.5 6.5t-6.5 15.5z" />
<glyph unicode="&#x2014;" d="M15 237q0 10 6.5 16.5t15.5 6.5q10 0 16.5 -6.5t6.5 -16.5q0 -9 -6.5 -15.5t-16.5 -6.5q-9 0 -15.5 6.5t-6.5 15.5zM115 237q0 10 6.5 16.5t15.5 6.5q10 0 16.5 -6.5t6.5 -16.5q0 -9 -6.5 -15.5t-16.5 -6.5q-9 0 -15.5 6.5t-6.5 15.5zM215 237q0 10 6.5 16.5t15.5 6.5 q10 0 16.5 -6.5t6.5 -16.5q0 -9 -6.5 -15.5t-16.5 -6.5q-9 0 -15.5 6.5t-6.5 15.5zM315 237q0 10 6.5 16.5t15.5 6.5q10 0 16.5 -6.5t6.5 -16.5q0 -9 -6.5 -15.5t-16.5 -6.5q-9 0 -15.5 6.5t-6.5 15.5zM415 237q0 10 6.5 16.5t15.5 6.5q10 0 16.5 -6.5t6.5 -16.5 q0 -9 -6.5 -15.5t-16.5 -6.5q-9 0 -15.5 6.5t-6.5 15.5z" />
<glyph unicode="&#x2018;" d="M215 337q0 10 6.5 16.5t15.5 6.5q10 0 16.5 -6.5t6.5 -16.5q0 -9 -6.5 -15.5t-16.5 -6.5q-9 0 -15.5 6.5t-6.5 15.5zM215 437q0 10 6.5 16.5t15.5 6.5q10 0 16.5 -6.5t6.5 -16.5q0 -9 -6.5 -15.5t-16.5 -6.5q-9 0 -15.5 6.5t-6.5 15.5zM315 537q0 10 6.5 16.5t15.5 6.5 q10 0 16.5 -6.5t6.5 -16.5q0 -9 -6.5 -15.5t-16.5 -6.5q-9 0 -15.5 6.5t-6.5 15.5z" />
<glyph unicode="&#x2019;" d="M215 337q0 10 6.5 16.5t15.5 6.5q10 0 16.5 -6.5t6.5 -16.5q0 -9 -6.5 -15.5t-16.5 -6.5q-9 0 -15.5 6.5t-6.5 15.5zM315 437q0 10 6.5 16.5t15.5 6.5q10 0 16.5 -6.5t6.5 -16.5q0 -9 -6.5 -15.5t-16.5 -6.5q-9 0 -15.5 6.5t-6.5 15.5zM315 537q0 10 6.5 16.5t15.5 6.5 q10 0 16.5 -6.5t6.5 -16.5q0 -9 -6.5 -15.5t-16.5 -6.5q-9 0 -15.5 6.5t-6.5 15.5z" />
<glyph unicode="&#x201c;" d="M115 337q0 10 6.5 16.5t15.5 6.5q10 0 16.5 -6.5t6.5 -16.5q0 -9 -6.5 -15.5t-16.5 -6.5q-9 0 -15.5 6.5t-6.5 15.5zM115 437q0 10 6.5 16.5t15.5 6.5q10 0 16.5 -6.5t6.5 -16.5q0 -9 -6.5 -15.5t-16.5 -6.5q-9 0 -15.5 6.5t-6.5 15.5zM215 537q0 10 6.5 16.5t15.5 6.5 q10 0 16.5 -6.5t6.5 -16.5q0 -9 -6.5 -15.5t-16.5 -6.5q-9 0 -15.5 6.5t-6.5 15.5zM315 337q0 10 6.5 16.5t15.5 6.5q10 0 16.5 -6.5t6.5 -16.5q0 -9 -6.5 -15.5t-16.5 -6.5q-9 0 -15.5 6.5t-6.5 15.5zM315 437q0 10 6.5 16.5t15.5 6.5q10 0 16.5 -6.5t6.5 -16.5 q0 -9 -6.5 -15.5t-16.5 -6.5q-9 0 -15.5 6.5t-6.5 15.5zM415 537q0 10 6.5 16.5t15.5 6.5q10 0 16.5 -6.5t6.5 -16.5q0 -9 -6.5 -15.5t-16.5 -6.5q-9 0 -15.5 6.5t-6.5 15.5z" />
<glyph unicode="&#x201d;" d="M115 337q0 10 6.5 16.5t15.5 6.5q10 0 16.5 -6.5t6.5 -16.5q0 -9 -6.5 -15.5t-16.5 -6.5q-9 0 -15.5 6.5t-6.5 15.5zM215 437q0 10 6.5 16.5t15.5 6.5q10 0 16.5 -6.5t6.5 -16.5q0 -9 -6.5 -15.5t-16.5 -6.5q-9 0 -15.5 6.5t-6.5 15.5zM215 537q0 10 6.5 16.5t15.5 6.5 q10 0 16.5 -6.5t6.5 -16.5q0 -9 -6.5 -15.5t-16.5 -6.5q-9 0 -15.5 6.5t-6.5 15.5zM315 337q0 10 6.5 16.5t15.5 6.5q10 0 16.5 -6.5t6.5 -16.5q0 -9 -6.5 -15.5t-16.5 -6.5q-9 0 -15.5 6.5t-6.5 15.5zM415 437q0 10 6.5 16.5t15.5 6.5q10 0 16.5 -6.5t6.5 -16.5 q0 -9 -6.5 -15.5t-16.5 -6.5q-9 0 -15.5 6.5t-6.5 15.5zM415 537q0 10 6.5 16.5t15.5 6.5q10 0 16.5 -6.5t6.5 -16.5q0 -9 -6.5 -15.5t-16.5 -6.5q-9 0 -15.5 6.5t-6.5 15.5z" />
<glyph unicode="&#x2022;" d="M15 237q0 10 6.5 16.5t15.5 6.5q10 0 16.5 -6.5t6.5 -16.5q0 -9 -6.5 -15.5t-16.5 -6.5q-9 0 -15.5 6.5t-6.5 15.5zM15 337q0 10 6.5 16.5t15.5 6.5q10 0 16.5 -6.5t6.5 -16.5q0 -9 -6.5 -15.5t-16.5 -6.5q-9 0 -15.5 6.5t-6.5 15.5zM15 437q0 10 6.5 16.5t15.5 6.5 q10 0 16.5 -6.5t6.5 -16.5q0 -9 -6.5 -15.5t-16.5 -6.5q-9 0 -15.5 6.5t-6.5 15.5zM115 237q0 10 6.5 16.5t15.5 6.5q10 0 16.5 -6.5t6.5 -16.5q0 -9 -6.5 -15.5t-16.5 -6.5q-9 0 -15.5 6.5t-6.5 15.5zM115 337q0 10 6.5 16.5t15.5 6.5q10 0 16.5 -6.5t6.5 -16.5 q0 -9 -6.5 -15.5t-16.5 -6.5q-9 0 -15.5 6.5t-6.5 15.5zM115 437q0 10 6.5 16.5t15.5 6.5q10 0 16.5 -6.5t6.5 -16.5q0 -9 -6.5 -15.5t-16.5 -6.5q-9 0 -15.5 6.5t-6.5 15.5zM215 237q0 10 6.5 16.5t15.5 6.5q10 0 16.5 -6.5t6.5 -16.5q0 -9 -6.5 -15.5t-16.5 -6.5 q-9 0 -15.5 6.5t-6.5 15.5zM215 337q0 10 6.5 16.5t15.5 6.5q10 0 16.5 -6.5t6.5 -16.5q0 -9 -6.5 -15.5t-16.5 -6.5q-9 0 -15.5 6.5t-6.5 15.5zM215 437q0 10 6.5 16.5t15.5 6.5q10 0 16.5 -6.5t6.5 -16.5q0 -9 -6.5 -15.5t-16.5 -6.5q-9 0 -15.5 6.5t-6.5 15.5z" />
<glyph unicode="&#x2026;" d="M15 37q0 10 6.5 16.5t15.5 6.5q10 0 16.5 -6.5t6.5 -16.5q0 -9 -6.5 -15.5t-16.5 -6.5q-9 0 -15.5 6.5t-6.5 15.5zM15 137q0 10 6.5 16.5t15.5 6.5q10 0 16.5 -6.5t6.5 -16.5q0 -9 -6.5 -15.5t-16.5 -6.5q-9 0 -15.5 6.5t-6.5 15.5zM215 37q0 10 6.5 16.5t15.5 6.5 q10 0 16.5 -6.5t6.5 -16.5q0 -9 -6.5 -15.5t-16.5 -6.5q-9 0 -15.5 6.5t-6.5 15.5zM215 137q0 10 6.5 16.5t15.5 6.5q10 0 16.5 -6.5t6.5 -16.5q0 -9 -6.5 -15.5t-16.5 -6.5q-9 0 -15.5 6.5t-6.5 15.5zM415 37q0 10 6.5 16.5t15.5 6.5q10 0 16.5 -6.5t6.5 -16.5 q0 -9 -6.5 -15.5t-16.5 -6.5q-9 0 -15.5 6.5t-6.5 15.5zM415 137q0 10 6.5 16.5t15.5 6.5q10 0 16.5 -6.5t6.5 -16.5q0 -9 -6.5 -15.5t-16.5 -6.5q-9 0 -15.5 6.5t-6.5 15.5z" />
<glyph unicode="&#x202f;" horiz-adv-x="152" />
<glyph unicode="&#x205f;" horiz-adv-x="190" />
<glyph unicode="&#x20ac;" d="M15 237q0 10 6.5 16.5t15.5 6.5q10 0 16.5 -6.5t6.5 -16.5q0 -9 -6.5 -15.5t-16.5 -6.5q-9 0 -15.5 6.5t-6.5 15.5zM115 137q0 10 6.5 16.5t15.5 6.5q10 0 16.5 -6.5t6.5 -16.5q0 -9 -6.5 -15.5t-16.5 -6.5q-9 0 -15.5 6.5t-6.5 15.5zM115 237q0 10 6.5 16.5t15.5 6.5 q10 0 16.5 -6.5t6.5 -16.5q0 -9 -6.5 -15.5t-16.5 -6.5q-9 0 -15.5 6.5t-6.5 15.5zM115 337q0 10 6.5 16.5t15.5 6.5q10 0 16.5 -6.5t6.5 -16.5q0 -9 -6.5 -15.5t-16.5 -6.5q-9 0 -15.5 6.5t-6.5 15.5zM215 37q0 10 6.5 16.5t15.5 6.5q10 0 16.5 -6.5t6.5 -16.5 q0 -9 -6.5 -15.5t-16.5 -6.5q-9 0 -15.5 6.5t-6.5 15.5zM215 237q0 10 6.5 16.5t15.5 6.5q10 0 16.5 -6.5t6.5 -16.5q0 -9 -6.5 -15.5t-16.5 -6.5q-9 0 -15.5 6.5t-6.5 15.5zM215 437q0 10 6.5 16.5t15.5 6.5q10 0 16.5 -6.5t6.5 -16.5q0 -9 -6.5 -15.5t-16.5 -6.5 q-9 0 -15.5 6.5t-6.5 15.5zM315 37q0 10 6.5 16.5t15.5 6.5q10 0 16.5 -6.5t6.5 -16.5q0 -9 -6.5 -15.5t-16.5 -6.5q-9 0 -15.5 6.5t-6.5 15.5zM315 237q0 10 6.5 16.5t15.5 6.5q10 0 16.5 -6.5t6.5 -16.5q0 -9 -6.5 -15.5t-16.5 -6.5q-9 0 -15.5 6.5t-6.5 15.5zM315 437 q0 10 6.5 16.5t15.5 6.5q10 0 16.5 -6.5t6.5 -16.5q0 -9 -6.5 -15.5t-16.5 -6.5q-9 0 -15.5 6.5t-6.5 15.5zM415 37q0 10 6.5 16.5t15.5 6.5q10 0 16.5 -6.5t6.5 -16.5q0 -9 -6.5 -15.5t-16.5 -6.5q-9 0 -15.5 6.5t-6.5 15.5zM415 437q0 10 6.5 16.5t15.5 6.5 q10 0 16.5 -6.5t6.5 -16.5q0 -9 -6.5 -15.5t-16.5 -6.5q-9 0 -15.5 6.5t-6.5 15.5z" />
<glyph unicode="&#x2122;" d="M15 537q0 10 6.5 16.5t15.5 6.5q10 0 16.5 -6.5t6.5 -16.5q0 -9 -6.5 -15.5t-16.5 -6.5q-9 0 -15.5 6.5t-6.5 15.5zM115 337q0 10 6.5 16.5t15.5 6.5q10 0 16.5 -6.5t6.5 -16.5q0 -9 -6.5 -15.5t-16.5 -6.5q-9 0 -15.5 6.5t-6.5 15.5zM115 437q0 10 6.5 16.5t15.5 6.5 q10 0 16.5 -6.5t6.5 -16.5q0 -9 -6.5 -15.5t-16.5 -6.5q-9 0 -15.5 6.5t-6.5 15.5zM115 537q0 10 6.5 16.5t15.5 6.5q10 0 16.5 -6.5t6.5 -16.5q0 -9 -6.5 -15.5t-16.5 -6.5q-9 0 -15.5 6.5t-6.5 15.5zM215 537q0 10 6.5 16.5t15.5 6.5q10 0 16.5 -6.5t6.5 -16.5 q0 -9 -6.5 -15.5t-16.5 -6.5q-9 0 -15.5 6.5t-6.5 15.5zM315 337q0 10 6.5 16.5t15.5 6.5q10 0 16.5 -6.5t6.5 -16.5q0 -9 -6.5 -15.5t-16.5 -6.5q-9 0 -15.5 6.5t-6.5 15.5zM315 437q0 10 6.5 16.5t15.5 6.5q10 0 16.5 -6.5t6.5 -16.5q0 -9 -6.5 -15.5t-16.5 -6.5 q-9 0 -15.5 6.5t-6.5 15.5zM315 537q0 10 6.5 16.5t15.5 6.5q10 0 16.5 -6.5t6.5 -16.5q0 -9 -6.5 -15.5t-16.5 -6.5q-9 0 -15.5 6.5t-6.5 15.5zM415 437q0 10 6.5 16.5t15.5 6.5q10 0 16.5 -6.5t6.5 -16.5q0 -9 -6.5 -15.5t-16.5 -6.5q-9 0 -15.5 6.5t-6.5 15.5zM515 337 q0 10 6.5 16.5t15.5 6.5q10 0 16.5 -6.5t6.5 -16.5q0 -9 -6.5 -15.5t-16.5 -6.5q-9 0 -15.5 6.5t-6.5 15.5zM515 437q0 10 6.5 16.5t15.5 6.5q10 0 16.5 -6.5t6.5 -16.5q0 -9 -6.5 -15.5t-16.5 -6.5q-9 0 -15.5 6.5t-6.5 15.5zM515 537q0 10 6.5 16.5t15.5 6.5 q10 0 16.5 -6.5t6.5 -16.5q0 -9 -6.5 -15.5t-16.5 -6.5q-9 0 -15.5 6.5t-6.5 15.5z" />
<glyph unicode="&#xe000;" horiz-adv-x="460" d="M0 460h460v-460h-460v460z" />
<glyph unicode="&#xfb01;" horiz-adv-x="1200" d="M615 37q0 10 6.5 16.5t15.5 6.5q10 0 16.5 -6.5t6.5 -16.5q0 -9 -6.5 -15.5t-16.5 -6.5q-9 0 -15.5 6.5t-6.5 15.5zM615 437q0 10 6.5 16.5t15.5 6.5q10 0 16.5 -6.5t6.5 -16.5q0 -9 -6.5 -15.5t-16.5 -6.5q-9 0 -15.5 6.5t-6.5 15.5zM715 37q0 10 6.5 16.5t15.5 6.5 q10 0 16.5 -6.5t6.5 -16.5q0 -9 -6.5 -15.5t-16.5 -6.5q-9 0 -15.5 6.5t-6.5 15.5zM715 437q0 10 6.5 16.5t15.5 6.5q10 0 16.5 -6.5t6.5 -16.5q0 -9 -6.5 -15.5t-16.5 -6.5q-9 0 -15.5 6.5t-6.5 15.5zM815 37q0 10 6.5 16.5t15.5 6.5q10 0 16.5 -6.5t6.5 -16.5 q0 -9 -6.5 -15.5t-16.5 -6.5q-9 0 -15.5 6.5t-6.5 15.5zM815 137q0 10 6.5 16.5t15.5 6.5q10 0 16.5 -6.5t6.5 -16.5q0 -9 -6.5 -15.5t-16.5 -6.5q-9 0 -15.5 6.5t-6.5 15.5zM815 237q0 10 6.5 16.5t15.5 6.5q10 0 16.5 -6.5t6.5 -16.5q0 -9 -6.5 -15.5t-16.5 -6.5 q-9 0 -15.5 6.5t-6.5 15.5zM815 337q0 10 6.5 16.5t15.5 6.5q10 0 16.5 -6.5t6.5 -16.5q0 -9 -6.5 -15.5t-16.5 -6.5q-9 0 -15.5 6.5t-6.5 15.5zM815 437q0 10 6.5 16.5t15.5 6.5q10 0 16.5 -6.5t6.5 -16.5q0 -9 -6.5 -15.5t-16.5 -6.5q-9 0 -15.5 6.5t-6.5 15.5zM815 637 q0 10 6.5 16.5t15.5 6.5q10 0 16.5 -6.5t6.5 -16.5q0 -9 -6.5 -15.5t-16.5 -6.5q-9 0 -15.5 6.5t-6.5 15.5zM915 37q0 10 6.5 16.5t15.5 6.5q10 0 16.5 -6.5t6.5 -16.5q0 -9 -6.5 -15.5t-16.5 -6.5q-9 0 -15.5 6.5t-6.5 15.5zM1015 37q0 10 6.5 16.5t15.5 6.5 q10 0 16.5 -6.5t6.5 -16.5q0 -9 -6.5 -15.5t-16.5 -6.5q-9 0 -15.5 6.5t-6.5 15.5zM15 37q0 10 6.5 16.5t15.5 6.5q10 0 16.5 -6.5t6.5 -16.5q0 -9 -6.5 -15.5t-16.5 -6.5q-9 0 -15.5 6.5t-6.5 15.5zM15 137q0 10 6.5 16.5t15.5 6.5q10 0 16.5 -6.5t6.5 -16.5 q0 -9 -6.5 -15.5t-16.5 -6.5q-9 0 -15.5 6.5t-6.5 15.5zM15 237q0 10 6.5 16.5t15.5 6.5q10 0 16.5 -6.5t6.5 -16.5q0 -9 -6.5 -15.5t-16.5 -6.5q-9 0 -15.5 6.5t-6.5 15.5zM15 337q0 10 6.5 16.5t15.5 6.5q10 0 16.5 -6.5t6.5 -16.5q0 -9 -6.5 -15.5t-16.5 -6.5 q-9 0 -15.5 6.5t-6.5 15.5zM15 437q0 10 6.5 16.5t15.5 6.5q10 0 16.5 -6.5t6.5 -16.5q0 -9 -6.5 -15.5t-16.5 -6.5q-9 0 -15.5 6.5t-6.5 15.5zM115 237q0 10 6.5 16.5t15.5 6.5q10 0 16.5 -6.5t6.5 -16.5q0 -9 -6.5 -15.5t-16.5 -6.5q-9 0 -15.5 6.5t-6.5 15.5zM115 437 q0 10 6.5 16.5t15.5 6.5q10 0 16.5 -6.5t6.5 -16.5q0 -9 -6.5 -15.5t-16.5 -6.5q-9 0 -15.5 6.5t-6.5 15.5zM215 237q0 10 6.5 16.5t15.5 6.5q10 0 16.5 -6.5t6.5 -16.5q0 -9 -6.5 -15.5t-16.5 -6.5q-9 0 -15.5 6.5t-6.5 15.5zM215 437q0 10 6.5 16.5t15.5 6.5 q10 0 16.5 -6.5t6.5 -16.5q0 -9 -6.5 -15.5t-16.5 -6.5q-9 0 -15.5 6.5t-6.5 15.5zM315 237q0 10 6.5 16.5t15.5 6.5q10 0 16.5 -6.5t6.5 -16.5q0 -9 -6.5 -15.5t-16.5 -6.5q-9 0 -15.5 6.5t-6.5 15.5zM315 437q0 10 6.5 16.5t15.5 6.5q10 0 16.5 -6.5t6.5 -16.5 q0 -9 -6.5 -15.5t-16.5 -6.5q-9 0 -15.5 6.5t-6.5 15.5zM415 437q0 10 6.5 16.5t15.5 6.5q10 0 16.5 -6.5t6.5 -16.5q0 -9 -6.5 -15.5t-16.5 -6.5q-9 0 -15.5 6.5t-6.5 15.5z" />
<glyph unicode="&#xfb02;" horiz-adv-x="1200" d="M615 37q0 10 6.5 16.5t15.5 6.5q10 0 16.5 -6.5t6.5 -16.5q0 -9 -6.5 -15.5t-16.5 -6.5q-9 0 -15.5 6.5t-6.5 15.5zM615 137q0 10 6.5 16.5t15.5 6.5q10 0 16.5 -6.5t6.5 -16.5q0 -9 -6.5 -15.5t-16.5 -6.5q-9 0 -15.5 6.5t-6.5 15.5zM615 237q0 10 6.5 16.5t15.5 6.5 q10 0 16.5 -6.5t6.5 -16.5q0 -9 -6.5 -15.5t-16.5 -6.5q-9 0 -15.5 6.5t-6.5 15.5zM615 337q0 10 6.5 16.5t15.5 6.5q10 0 16.5 -6.5t6.5 -16.5q0 -9 -6.5 -15.5t-16.5 -6.5q-9 0 -15.5 6.5t-6.5 15.5zM615 437q0 10 6.5 16.5t15.5 6.5q10 0 16.5 -6.5t6.5 -16.5 q0 -9 -6.5 -15.5t-16.5 -6.5q-9 0 -15.5 6.5t-6.5 15.5zM715 37q0 10 6.5 16.5t15.5 6.5q10 0 16.5 -6.5t6.5 -16.5q0 -9 -6.5 -15.5t-16.5 -6.5q-9 0 -15.5 6.5t-6.5 15.5zM815 37q0 10 6.5 16.5t15.5 6.5q10 0 16.5 -6.5t6.5 -16.5q0 -9 -6.5 -15.5t-16.5 -6.5 q-9 0 -15.5 6.5t-6.5 15.5zM915 37q0 10 6.5 16.5t15.5 6.5q10 0 16.5 -6.5t6.5 -16.5q0 -9 -6.5 -15.5t-16.5 -6.5q-9 0 -15.5 6.5t-6.5 15.5zM1015 37q0 10 6.5 16.5t15.5 6.5q10 0 16.5 -6.5t6.5 -16.5q0 -9 -6.5 -15.5t-16.5 -6.5q-9 0 -15.5 6.5t-6.5 15.5zM15 37 q0 10 6.5 16.5t15.5 6.5q10 0 16.5 -6.5t6.5 -16.5q0 -9 -6.5 -15.5t-16.5 -6.5q-9 0 -15.5 6.5t-6.5 15.5zM15 137q0 10 6.5 16.5t15.5 6.5q10 0 16.5 -6.5t6.5 -16.5q0 -9 -6.5 -15.5t-16.5 -6.5q-9 0 -15.5 6.5t-6.5 15.5zM15 237q0 10 6.5 16.5t15.5 6.5q10 0 16.5 -6.5 t6.5 -16.5q0 -9 -6.5 -15.5t-16.5 -6.5q-9 0 -15.5 6.5t-6.5 15.5zM15 337q0 10 6.5 16.5t15.5 6.5q10 0 16.5 -6.5t6.5 -16.5q0 -9 -6.5 -15.5t-16.5 -6.5q-9 0 -15.5 6.5t-6.5 15.5zM15 437q0 10 6.5 16.5t15.5 6.5q10 0 16.5 -6.5t6.5 -16.5q0 -9 -6.5 -15.5t-16.5 -6.5 q-9 0 -15.5 6.5t-6.5 15.5zM115 237q0 10 6.5 16.5t15.5 6.5q10 0 16.5 -6.5t6.5 -16.5q0 -9 -6.5 -15.5t-16.5 -6.5q-9 0 -15.5 6.5t-6.5 15.5zM115 437q0 10 6.5 16.5t15.5 6.5q10 0 16.5 -6.5t6.5 -16.5q0 -9 -6.5 -15.5t-16.5 -6.5q-9 0 -15.5 6.5t-6.5 15.5zM215 237 q0 10 6.5 16.5t15.5 6.5q10 0 16.5 -6.5t6.5 -16.5q0 -9 -6.5 -15.5t-16.5 -6.5q-9 0 -15.5 6.5t-6.5 15.5zM215 437q0 10 6.5 16.5t15.5 6.5q10 0 16.5 -6.5t6.5 -16.5q0 -9 -6.5 -15.5t-16.5 -6.5q-9 0 -15.5 6.5t-6.5 15.5zM315 237q0 10 6.5 16.5t15.5 6.5 q10 0 16.5 -6.5t6.5 -16.5q0 -9 -6.5 -15.5t-16.5 -6.5q-9 0 -15.5 6.5t-6.5 15.5zM315 437q0 10 6.5 16.5t15.5 6.5q10 0 16.5 -6.5t6.5 -16.5q0 -9 -6.5 -15.5t-16.5 -6.5q-9 0 -15.5 6.5t-6.5 15.5zM415 437q0 10 6.5 16.5t15.5 6.5q10 0 16.5 -6.5t6.5 -16.5 q0 -9 -6.5 -15.5t-16.5 -6.5q-9 0 -15.5 6.5t-6.5 15.5z" />
<glyph unicode="&#xfb03;" horiz-adv-x="1800" d="M1215 37q0 10 6.5 16.5t15.5 6.5q10 0 16.5 -6.5t6.5 -16.5q0 -9 -6.5 -15.5t-16.5 -6.5q-9 0 -15.5 6.5t-6.5 15.5zM1215 437q0 10 6.5 16.5t15.5 6.5q10 0 16.5 -6.5t6.5 -16.5q0 -9 -6.5 -15.5t-16.5 -6.5q-9 0 -15.5 6.5t-6.5 15.5zM1315 37q0 10 6.5 16.5t15.5 6.5 q10 0 16.5 -6.5t6.5 -16.5q0 -9 -6.5 -15.5t-16.5 -6.5q-9 0 -15.5 6.5t-6.5 15.5zM1315 437q0 10 6.5 16.5t15.5 6.5q10 0 16.5 -6.5t6.5 -16.5q0 -9 -6.5 -15.5t-16.5 -6.5q-9 0 -15.5 6.5t-6.5 15.5zM1415 37q0 10 6.5 16.5t15.5 6.5q10 0 16.5 -6.5t6.5 -16.5 q0 -9 -6.5 -15.5t-16.5 -6.5q-9 0 -15.5 6.5t-6.5 15.5zM1415 137q0 10 6.5 16.5t15.5 6.5q10 0 16.5 -6.5t6.5 -16.5q0 -9 -6.5 -15.5t-16.5 -6.5q-9 0 -15.5 6.5t-6.5 15.5zM1415 237q0 10 6.5 16.5t15.5 6.5q10 0 16.5 -6.5t6.5 -16.5q0 -9 -6.5 -15.5t-16.5 -6.5 q-9 0 -15.5 6.5t-6.5 15.5zM1415 337q0 10 6.5 16.5t15.5 6.5q10 0 16.5 -6.5t6.5 -16.5q0 -9 -6.5 -15.5t-16.5 -6.5q-9 0 -15.5 6.5t-6.5 15.5zM1415 437q0 10 6.5 16.5t15.5 6.5q10 0 16.5 -6.5t6.5 -16.5q0 -9 -6.5 -15.5t-16.5 -6.5q-9 0 -15.5 6.5t-6.5 15.5z M1415 637q0 10 6.5 16.5t15.5 6.5q10 0 16.5 -6.5t6.5 -16.5q0 -9 -6.5 -15.5t-16.5 -6.5q-9 0 -15.5 6.5t-6.5 15.5zM1515 37q0 10 6.5 16.5t15.5 6.5q10 0 16.5 -6.5t6.5 -16.5q0 -9 -6.5 -15.5t-16.5 -6.5q-9 0 -15.5 6.5t-6.5 15.5zM1615 37q0 10 6.5 16.5t15.5 6.5 q10 0 16.5 -6.5t6.5 -16.5q0 -9 -6.5 -15.5t-16.5 -6.5q-9 0 -15.5 6.5t-6.5 15.5zM615 37q0 10 6.5 16.5t15.5 6.5q10 0 16.5 -6.5t6.5 -16.5q0 -9 -6.5 -15.5t-16.5 -6.5q-9 0 -15.5 6.5t-6.5 15.5zM615 137q0 10 6.5 16.5t15.5 6.5q10 0 16.5 -6.5t6.5 -16.5 q0 -9 -6.5 -15.5t-16.5 -6.5q-9 0 -15.5 6.5t-6.5 15.5zM615 237q0 10 6.5 16.5t15.5 6.5q10 0 16.5 -6.5t6.5 -16.5q0 -9 -6.5 -15.5t-16.5 -6.5q-9 0 -15.5 6.5t-6.5 15.5zM615 337q0 10 6.5 16.5t15.5 6.5q10 0 16.5 -6.5t6.5 -16.5q0 -9 -6.5 -15.5t-16.5 -6.5 q-9 0 -15.5 6.5t-6.5 15.5zM615 437q0 10 6.5 16.5t15.5 6.5q10 0 16.5 -6.5t6.5 -16.5q0 -9 -6.5 -15.5t-16.5 -6.5q-9 0 -15.5 6.5t-6.5 15.5zM715 237q0 10 6.5 16.5t15.5 6.5q10 0 16.5 -6.5t6.5 -16.5q0 -9 -6.5 -15.5t-16.5 -6.5q-9 0 -15.5 6.5t-6.5 15.5zM715 437 q0 10 6.5 16.5t15.5 6.5q10 0 16.5 -6.5t6.5 -16.5q0 -9 -6.5 -15.5t-16.5 -6.5q-9 0 -15.5 6.5t-6.5 15.5zM815 237q0 10 6.5 16.5t15.5 6.5q10 0 16.5 -6.5t6.5 -16.5q0 -9 -6.5 -15.5t-16.5 -6.5q-9 0 -15.5 6.5t-6.5 15.5zM815 437q0 10 6.5 16.5t15.5 6.5 q10 0 16.5 -6.5t6.5 -16.5q0 -9 -6.5 -15.5t-16.5 -6.5q-9 0 -15.5 6.5t-6.5 15.5zM915 237q0 10 6.5 16.5t15.5 6.5q10 0 16.5 -6.5t6.5 -16.5q0 -9 -6.5 -15.5t-16.5 -6.5q-9 0 -15.5 6.5t-6.5 15.5zM915 437q0 10 6.5 16.5t15.5 6.5q10 0 16.5 -6.5t6.5 -16.5 q0 -9 -6.5 -15.5t-16.5 -6.5q-9 0 -15.5 6.5t-6.5 15.5zM1015 437q0 10 6.5 16.5t15.5 6.5q10 0 16.5 -6.5t6.5 -16.5q0 -9 -6.5 -15.5t-16.5 -6.5q-9 0 -15.5 6.5t-6.5 15.5zM15 37q0 10 6.5 16.5t15.5 6.5q10 0 16.5 -6.5t6.5 -16.5q0 -9 -6.5 -15.5t-16.5 -6.5 q-9 0 -15.5 6.5t-6.5 15.5zM15 137q0 10 6.5 16.5t15.5 6.5q10 0 16.5 -6.5t6.5 -16.5q0 -9 -6.5 -15.5t-16.5 -6.5q-9 0 -15.5 6.5t-6.5 15.5zM15 237q0 10 6.5 16.5t15.5 6.5q10 0 16.5 -6.5t6.5 -16.5q0 -9 -6.5 -15.5t-16.5 -6.5q-9 0 -15.5 6.5t-6.5 15.5zM15 337 q0 10 6.5 16.5t15.5 6.5q10 0 16.5 -6.5t6.5 -16.5q0 -9 -6.5 -15.5t-16.5 -6.5q-9 0 -15.5 6.5t-6.5 15.5zM15 437q0 10 6.5 16.5t15.5 6.5q10 0 16.5 -6.5t6.5 -16.5q0 -9 -6.5 -15.5t-16.5 -6.5q-9 0 -15.5 6.5t-6.5 15.5zM115 237q0 10 6.5 16.5t15.5 6.5 q10 0 16.5 -6.5t6.5 -16.5q0 -9 -6.5 -15.5t-16.5 -6.5q-9 0 -15.5 6.5t-6.5 15.5zM115 437q0 10 6.5 16.5t15.5 6.5q10 0 16.5 -6.5t6.5 -16.5q0 -9 -6.5 -15.5t-16.5 -6.5q-9 0 -15.5 6.5t-6.5 15.5zM215 237q0 10 6.5 16.5t15.5 6.5q10 0 16.5 -6.5t6.5 -16.5 q0 -9 -6.5 -15.5t-16.5 -6.5q-9 0 -15.5 6.5t-6.5 15.5zM215 437q0 10 6.5 16.5t15.5 6.5q10 0 16.5 -6.5t6.5 -16.5q0 -9 -6.5 -15.5t-16.5 -6.5q-9 0 -15.5 6.5t-6.5 15.5zM315 237q0 10 6.5 16.5t15.5 6.5q10 0 16.5 -6.5t6.5 -16.5q0 -9 -6.5 -15.5t-16.5 -6.5 q-9 0 -15.5 6.5t-6.5 15.5zM315 437q0 10 6.5 16.5t15.5 6.5q10 0 16.5 -6.5t6.5 -16.5q0 -9 -6.5 -15.5t-16.5 -6.5q-9 0 -15.5 6.5t-6.5 15.5zM415 437q0 10 6.5 16.5t15.5 6.5q10 0 16.5 -6.5t6.5 -16.5q0 -9 -6.5 -15.5t-16.5 -6.5q-9 0 -15.5 6.5t-6.5 15.5z" />
<glyph unicode="&#xfb04;" horiz-adv-x="1800" d="M1215 37q0 10 6.5 16.5t15.5 6.5q10 0 16.5 -6.5t6.5 -16.5q0 -9 -6.5 -15.5t-16.5 -6.5q-9 0 -15.5 6.5t-6.5 15.5zM1215 137q0 10 6.5 16.5t15.5 6.5q10 0 16.5 -6.5t6.5 -16.5q0 -9 -6.5 -15.5t-16.5 -6.5q-9 0 -15.5 6.5t-6.5 15.5zM1215 237q0 10 6.5 16.5t15.5 6.5 q10 0 16.5 -6.5t6.5 -16.5q0 -9 -6.5 -15.5t-16.5 -6.5q-9 0 -15.5 6.5t-6.5 15.5zM1215 337q0 10 6.5 16.5t15.5 6.5q10 0 16.5 -6.5t6.5 -16.5q0 -9 -6.5 -15.5t-16.5 -6.5q-9 0 -15.5 6.5t-6.5 15.5zM1215 437q0 10 6.5 16.5t15.5 6.5q10 0 16.5 -6.5t6.5 -16.5 q0 -9 -6.5 -15.5t-16.5 -6.5q-9 0 -15.5 6.5t-6.5 15.5zM1315 37q0 10 6.5 16.5t15.5 6.5q10 0 16.5 -6.5t6.5 -16.5q0 -9 -6.5 -15.5t-16.5 -6.5q-9 0 -15.5 6.5t-6.5 15.5zM1415 37q0 10 6.5 16.5t15.5 6.5q10 0 16.5 -6.5t6.5 -16.5q0 -9 -6.5 -15.5t-16.5 -6.5 q-9 0 -15.5 6.5t-6.5 15.5zM1515 37q0 10 6.5 16.5t15.5 6.5q10 0 16.5 -6.5t6.5 -16.5q0 -9 -6.5 -15.5t-16.5 -6.5q-9 0 -15.5 6.5t-6.5 15.5zM1615 37q0 10 6.5 16.5t15.5 6.5q10 0 16.5 -6.5t6.5 -16.5q0 -9 -6.5 -15.5t-16.5 -6.5q-9 0 -15.5 6.5t-6.5 15.5zM615 37 q0 10 6.5 16.5t15.5 6.5q10 0 16.5 -6.5t6.5 -16.5q0 -9 -6.5 -15.5t-16.5 -6.5q-9 0 -15.5 6.5t-6.5 15.5zM615 137q0 10 6.5 16.5t15.5 6.5q10 0 16.5 -6.5t6.5 -16.5q0 -9 -6.5 -15.5t-16.5 -6.5q-9 0 -15.5 6.5t-6.5 15.5zM615 237q0 10 6.5 16.5t15.5 6.5 q10 0 16.5 -6.5t6.5 -16.5q0 -9 -6.5 -15.5t-16.5 -6.5q-9 0 -15.5 6.5t-6.5 15.5zM615 337q0 10 6.5 16.5t15.5 6.5q10 0 16.5 -6.5t6.5 -16.5q0 -9 -6.5 -15.5t-16.5 -6.5q-9 0 -15.5 6.5t-6.5 15.5zM615 437q0 10 6.5 16.5t15.5 6.5q10 0 16.5 -6.5t6.5 -16.5 q0 -9 -6.5 -15.5t-16.5 -6.5q-9 0 -15.5 6.5t-6.5 15.5zM715 237q0 10 6.5 16.5t15.5 6.5q10 0 16.5 -6.5t6.5 -16.5q0 -9 -6.5 -15.5t-16.5 -6.5q-9 0 -15.5 6.5t-6.5 15.5zM715 437q0 10 6.5 16.5t15.5 6.5q10 0 16.5 -6.5t6.5 -16.5q0 -9 -6.5 -15.5t-16.5 -6.5 q-9 0 -15.5 6.5t-6.5 15.5zM815 237q0 10 6.5 16.5t15.5 6.5q10 0 16.5 -6.5t6.5 -16.5q0 -9 -6.5 -15.5t-16.5 -6.5q-9 0 -15.5 6.5t-6.5 15.5zM815 437q0 10 6.5 16.5t15.5 6.5q10 0 16.5 -6.5t6.5 -16.5q0 -9 -6.5 -15.5t-16.5 -6.5q-9 0 -15.5 6.5t-6.5 15.5zM915 237 q0 10 6.5 16.5t15.5 6.5q10 0 16.5 -6.5t6.5 -16.5q0 -9 -6.5 -15.5t-16.5 -6.5q-9 0 -15.5 6.5t-6.5 15.5zM915 437q0 10 6.5 16.5t15.5 6.5q10 0 16.5 -6.5t6.5 -16.5q0 -9 -6.5 -15.5t-16.5 -6.5q-9 0 -15.5 6.5t-6.5 15.5zM1015 437q0 10 6.5 16.5t15.5 6.5 q10 0 16.5 -6.5t6.5 -16.5q0 -9 -6.5 -15.5t-16.5 -6.5q-9 0 -15.5 6.5t-6.5 15.5zM15 37q0 10 6.5 16.5t15.5 6.5q10 0 16.5 -6.5t6.5 -16.5q0 -9 -6.5 -15.5t-16.5 -6.5q-9 0 -15.5 6.5t-6.5 15.5zM15 137q0 10 6.5 16.5t15.5 6.5q10 0 16.5 -6.5t6.5 -16.5 q0 -9 -6.5 -15.5t-16.5 -6.5q-9 0 -15.5 6.5t-6.5 15.5zM15 237q0 10 6.5 16.5t15.5 6.5q10 0 16.5 -6.5t6.5 -16.5q0 -9 -6.5 -15.5t-16.5 -6.5q-9 0 -15.5 6.5t-6.5 15.5zM15 337q0 10 6.5 16.5t15.5 6.5q10 0 16.5 -6.5t6.5 -16.5q0 -9 -6.5 -15.5t-16.5 -6.5 q-9 0 -15.5 6.5t-6.5 15.5zM15 437q0 10 6.5 16.5t15.5 6.5q10 0 16.5 -6.5t6.5 -16.5q0 -9 -6.5 -15.5t-16.5 -6.5q-9 0 -15.5 6.5t-6.5 15.5zM115 237q0 10 6.5 16.5t15.5 6.5q10 0 16.5 -6.5t6.5 -16.5q0 -9 -6.5 -15.5t-16.5 -6.5q-9 0 -15.5 6.5t-6.5 15.5zM115 437 q0 10 6.5 16.5t15.5 6.5q10 0 16.5 -6.5t6.5 -16.5q0 -9 -6.5 -15.5t-16.5 -6.5q-9 0 -15.5 6.5t-6.5 15.5zM215 237q0 10 6.5 16.5t15.5 6.5q10 0 16.5 -6.5t6.5 -16.5q0 -9 -6.5 -15.5t-16.5 -6.5q-9 0 -15.5 6.5t-6.5 15.5zM215 437q0 10 6.5 16.5t15.5 6.5 q10 0 16.5 -6.5t6.5 -16.5q0 -9 -6.5 -15.5t-16.5 -6.5q-9 0 -15.5 6.5t-6.5 15.5zM315 237q0 10 6.5 16.5t15.5 6.5q10 0 16.5 -6.5t6.5 -16.5q0 -9 -6.5 -15.5t-16.5 -6.5q-9 0 -15.5 6.5t-6.5 15.5zM315 437q0 10 6.5 16.5t15.5 6.5q10 0 16.5 -6.5t6.5 -16.5 q0 -9 -6.5 -15.5t-16.5 -6.5q-9 0 -15.5 6.5t-6.5 15.5zM415 437q0 10 6.5 16.5t15.5 6.5q10 0 16.5 -6.5t6.5 -16.5q0 -9 -6.5 -15.5t-16.5 -6.5q-9 0 -15.5 6.5t-6.5 15.5z" />
</font>
</defs>
</svg>
